<?xml version="1.0" standalone="no"?>
<!DOCTYPE svg PUBLIC "-//W3C//DTD SVG 1.1//EN" "http://www.w3.org/Graphics/SVG/1.1/DTD/svg11.dtd" >
<svg xmlns="http://www.w3.org/2000/svg" xmlns:xlink="http://www.w3.org/1999/xlink" version="1.1">
<metadata>
Created by FontForge 20201107 at Sat Feb 13 07:21:34 2021
 By Jimmy Wärting
Copyright (c) 2021 by Eko Bimantara. All rights reserved.
</metadata>
<defs>
<font id="Altone-Bold" horiz-adv-x="612" >
  <font-face 
    font-family="Altone"
    font-weight="700"
    font-stretch="normal"
    units-per-em="1000"
    panose-1="0 0 0 0 0 0 0 0 0 0"
    ascent="800"
    descent="-200"
    x-height="528"
    cap-height="670"
    bbox="-33 -213 1360 948"
    underline-thickness="50"
    underline-position="-125"
    unicode-range="U+000D-25CA"
  />
<missing-glyph horiz-adv-x="844" 
d="M90 664h664v-664h-664v664zM391 173l21 -50h86q63 0 98 26t35 76q0 38 -19 64t-57 38q26 15 43.5 37.5t17.5 54.5q0 46 -35.5 71t-97.5 25h-61l-5 26h-209v-368h183zM289 403v62h112l11 -26h57q15 0 24.5 -4.5t15.5 -10.5t8 -13t2 -13q0 -16 -9.5 -30.5t-35.5 -14.5h-47
l-10 50h-128zM396 327l16 -42h76q31 0 41.5 -12t10.5 -28q0 -15 -10 -30.5t-37 -15.5h-66l-10 51h-128v77h107z" />
    <glyph glyph-name=".notdef" horiz-adv-x="844" 
d="M90 664h664v-664h-664v664zM391 173l21 -50h86q63 0 98 26t35 76q0 38 -19 64t-57 38q26 15 43.5 37.5t17.5 54.5q0 46 -35.5 71t-97.5 25h-61l-5 26h-209v-368h183zM289 403v62h112l11 -26h57q15 0 24.5 -4.5t15.5 -10.5t8 -13t2 -13q0 -16 -9.5 -30.5t-35.5 -14.5h-47
l-10 50h-128zM396 327l16 -42h76q31 0 41.5 -12t10.5 -28q0 -15 -10 -30.5t-37 -15.5h-66l-10 51h-128v77h107z" />
    <glyph glyph-name=".null" horiz-adv-x="0" 
 />
    <glyph glyph-name=".null" horiz-adv-x="0" 
 />
    <glyph glyph-name="uni000D" unicode="&#xd;" horiz-adv-x="250" 
 />
    <glyph glyph-name="space" unicode=" " horiz-adv-x="250" 
 />
    <glyph glyph-name="a" unicode="a" horiz-adv-x="637" 
d="M581 0h-149v62q-23 -33 -59.5 -52t-92.5 -19t-102.5 20.5t-79.5 56.5t-51.5 86t-18.5 109q0 60 18.5 110t52 87t80 57.5t101.5 20.5q56 0 92.5 -19.5t59.5 -53.5v63h149v-528zM432 282q-5 46 -39 77.5t-86 31.5q-29 0 -52 -10t-39.5 -27.5t-25 -41t-8.5 -49.5
q0 -25 9 -48t25 -40t39.5 -27t51.5 -10q26 0 47.5 8.5t38 22.5t26.5 34t13 42v37z" />
    <glyph glyph-name="h" unicode="h" 
d="M56 720h149v-263q30 37 73 59t95 22q42 0 76 -14.5t57.5 -40t36.5 -61t13 -78.5v-344h-151v292q0 45 -24.5 71.5t-63.5 26.5q-25 0 -45 -10.5t-35 -28t-23 -40t-9 -47.5v-264h-149v720z" />
    <glyph glyph-name="o" unicode="o" horiz-adv-x="610" 
d="M28 264q0 59 21 109.5t57.5 87t87 57t110.5 20.5t110.5 -20.5t88 -57.5t58.5 -87t21 -109t-21 -109t-58.5 -86.5t-88 -57t-110.5 -20.5t-110.5 20.5t-87 57t-57.5 86.5t-21 109zM182 263q0 -25 9 -48t25.5 -40t39.5 -27t50 -10t49.5 10t38 27t24.5 40t9 48
q0 26 -8.5 49.5t-24.5 41t-38.5 27.5t-49.5 10q-28 0 -50.5 -10t-39 -27.5t-25.5 -41t-9 -49.5z" />
    <glyph glyph-name="n" unicode="n" 
d="M56 528h149v-77q29 41 71.5 64t96.5 23q42 0 76 -14.5t57.5 -40t36.5 -61t13 -78.5v-344h-149v292q0 45 -25.5 71.5t-64.5 26.5q-25 0 -45 -10.5t-35 -28t-23 -40t-9 -47.5v-264h-149v528z" />
    <glyph glyph-name="l" unicode="l" horiz-adv-x="261" 
d="M56 720h149v-720h-149v720z" />
    <glyph glyph-name="i" unicode="i" horiz-adv-x="261" 
d="M45 666q0 34 24.5 58t61.5 24q36 0 60.5 -24t24.5 -58q0 -35 -24.5 -59t-60.5 -24q-37 0 -61.5 24t-24.5 59zM56 528h149v-528h-149v528z" />
    <glyph glyph-name="m" unicode="m" horiz-adv-x="912" 
d="M56 528h149v-72q27 38 66 60t88 22q54 0 93 -27t59 -73q29 46 72.5 73t101.5 27q39 0 70.5 -14.5t54 -40t34.5 -61t12 -78.5v-344h-149v292q0 45 -22 71.5t-57 26.5q-21 0 -39 -10.5t-30.5 -28t-20 -40t-8.5 -47.5v-264h-149v292q0 45 -22 71.5t-56 26.5
q-22 0 -39.5 -10.5t-30.5 -28t-20 -40t-8 -47.5v-264h-149v528z" />
    <glyph glyph-name="b" unicode="b" horiz-adv-x="636" 
d="M608 263q0 -59 -18.5 -109t-51.5 -86t-79 -56.5t-102 -20.5t-92.5 19t-59.5 52v-62h-149v720h149v-254q23 33 59.5 52.5t91.5 19.5q56 0 102.5 -20.5t79.5 -57.5t51.5 -87t18.5 -110zM205 285v-42q5 -45 39 -75t85 -30q29 0 52 10t39.5 27t25 40t8.5 48q0 26 -8.5 49.5
t-25 41t-39.5 27.5t-52 10q-51 0 -84.5 -30.5t-39.5 -75.5z" />
    <glyph glyph-name="d" unicode="d" horiz-adv-x="636" 
d="M28 263q0 60 18.5 110t52 87t80 57.5t101.5 20.5t91.5 -19.5t59.5 -52.5v254h149v-720h-149v62q-23 -33 -59.5 -52t-91.5 -19q-56 0 -102.5 20.5t-79.5 56.5t-51.5 86t-18.5 109zM431 285q-6 47 -40.5 76.5t-83.5 29.5q-29 0 -52 -10t-39.5 -27.5t-25 -41t-8.5 -49.5
q0 -25 9 -48t25 -40t39.5 -27t51.5 -10q51 0 85 30t39 75v42z" />
    <glyph glyph-name="p" unicode="p" horiz-adv-x="637" 
d="M56 -195v723h149v-63q23 34 59.5 53.5t91.5 19.5q56 0 102.5 -20.5t80 -57.5t52 -87t18.5 -110q0 -59 -18.5 -109t-51.5 -86t-79.5 -56.5t-102.5 -20.5t-92.5 19t-59.5 52v-257h-149zM205 282v-37q3 -22 13 -42t26.5 -34t38 -22.5t47.5 -8.5q29 0 52 10t39 27t25 40t9 48
q0 26 -8.5 49.5t-25 41t-39.5 27.5t-52 10q-52 0 -86 -31.5t-39 -77.5z" />
    <glyph glyph-name="q" unicode="q" horiz-adv-x="637" 
d="M581 -195h-149v257q-23 -33 -59.5 -52t-92.5 -19t-102.5 20.5t-79.5 56.5t-51.5 86t-18.5 109q0 60 18.5 110t52 87t80 57.5t101.5 20.5q56 0 92.5 -19.5t59.5 -53.5v63h149v-723zM432 282q-5 46 -39 77.5t-86 31.5q-29 0 -52 -10t-39.5 -27.5t-25 -41t-8.5 -49.5
q0 -25 9 -48t25 -40t39.5 -27t51.5 -10q26 0 47.5 8.5t38 22.5t26.5 34t13 42v37z" />
    <glyph glyph-name="c" unicode="c" horiz-adv-x="603" 
d="M29 264q0 59 21 109.5t58 87t87.5 57t110.5 20.5q54 0 100.5 -16.5t82 -46.5t58.5 -71.5t29 -91.5h-157q-11 35 -40.5 57.5t-71.5 22.5q-28 0 -50.5 -10.5t-39 -28t-25.5 -41t-9 -49.5q0 -25 9 -48.5t25.5 -40.5t39 -27.5t50.5 -10.5q42 0 71 22t41 55h157
q-7 -49 -30 -90t-58.5 -70t-81.5 -45.5t-100 -16.5q-60 0 -111 20.5t-87.5 57t-57.5 86.5t-21 109z" />
    <glyph glyph-name="e" unicode="e" horiz-adv-x="606" 
d="M181 231q8 -47 41 -76.5t85 -29.5q32 0 59 16t41 39h161q-10 -43 -33.5 -78t-58 -59.5t-78 -38t-94.5 -13.5q-60 0 -110.5 20.5t-87 57t-57.5 86.5t-21 109t20.5 109.5t57 87t86.5 57t110 20.5q56 0 103.5 -16.5t83.5 -47t58.5 -73t28.5 -93.5q2 -23 2.5 -40t-0.5 -37
h-397zM418 313q-7 40 -38 65.5t-76 25.5q-47 0 -77 -25t-41 -66h232z" />
    <glyph glyph-name="j" unicode="j" horiz-adv-x="301" 
d="M82 666q0 34 24.5 58t61.5 24q36 0 60.5 -24t24.5 -58q0 -35 -24.5 -59t-60.5 -24q-37 0 -61.5 24t-24.5 59zM241 -35q0 -85 -42.5 -128t-133.5 -43q-18 0 -37.5 2t-41.5 5v133q13 -2 24 -3t20 -1q39 0 50.5 17.5t11.5 59.5v521h149v-563z" />
    <glyph glyph-name="k" unicode="k" horiz-adv-x="561" 
d="M56 720h149v-382h37l119 190h181l-162 -260l186 -268h-192l-129 198h-40v-198h-149v720z" />
    <glyph glyph-name="f" unicode="f" horiz-adv-x="408" 
d="M408 741v-130h-101q-58 0 -58 -70v-13h147v-120h-147v-408h-149v408h-82v120h82v18q0 97 44.5 146t132.5 49h131z" />
    <glyph glyph-name="g" unicode="g" horiz-adv-x="637" 
d="M581 33q0 -121 -68 -183t-201 -62q-63 0 -108.5 13.5t-75.5 38t-45.5 58t-18.5 74.5h149q7 -32 34.5 -47.5t66.5 -15.5q118 0 118 124v49q-23 -32 -59.5 -50t-92.5 -18t-102.5 19.5t-79.5 54.5t-51.5 83t-18.5 104q0 57 18.5 105t52 83t80 55t101.5 20q56 0 92.5 -18.5
t59.5 -51.5v60h149v-495zM182 271q0 -25 9 -47t25 -39t39.5 -27t51.5 -10q52 0 86 31.5t39 82.5v26q-6 51 -40.5 80t-84.5 29q-29 0 -52 -10t-39.5 -27t-25 -40t-8.5 -49z" />
    <glyph glyph-name="t" unicode="t" horiz-adv-x="413" 
d="M259 678v-150h120v-120h-120v-211q0 -40 19.5 -54.5t54.5 -14.5q10 0 21.5 1t24.5 3v-135q-46 -6 -86 -6q-91 0 -137 38.5t-46 129.5v249h-85v120h85v150h149z" />
    <glyph glyph-name="r" unicode="r" horiz-adv-x="415" 
d="M56 528h149v-95q33 53 83.5 79t108.5 26v-157q-36 1 -69.5 -8t-59.5 -28t-43 -46.5t-20 -64.5v-234h-149v528z" />
    <glyph glyph-name="u" unicode="u" 
d="M556 0h-149v76q-29 -40 -71.5 -63t-96.5 -23q-42 0 -76 14.5t-57.5 40t-36.5 61t-13 77.5v345h149v-292q0 -46 25.5 -72t64.5 -26q25 0 45 10.5t35 28t23 40t9 47.5v264h149v-528z" />
    <glyph glyph-name="v" unicode="v" horiz-adv-x="580" 
d="M207 0l-197 528h161l118 -348l120 348h160l-197 -528h-165z" />
    <glyph glyph-name="w" unicode="w" horiz-adv-x="853" 
d="M184 0l-174 528h161l95 -326l93 326h135l93 -326l96 326h160l-174 -528h-143l-99 323l-100 -323h-143z" />
    <glyph glyph-name="x" unicode="x" horiz-adv-x="564" 
d="M380 0l-98 146l-99 -146h-172l184 266l-182 262h173l95 -143l96 143h173l-181 -262l183 -266h-172z" />
    <glyph glyph-name="y" unicode="y" horiz-adv-x="568" 
d="M137 -195l74 201l-201 522h158l114 -321l118 321h157l-277 -723h-143z" />
    <glyph glyph-name="z" unicode="z" horiz-adv-x="490" 
d="M44 402v126h405v-126l-232 -276h240v-126h-424v126l236 276h-225z" />
    <glyph glyph-name="s" unicode="s" horiz-adv-x="538" 
d="M47 371q0 80 57.5 123.5t162.5 43.5q109 0 165.5 -46t58.5 -127h-151q-2 59 -72 59q-73 0 -73 -47q0 -25 23 -37.5t57 -20t74 -14.5t74 -23t57 -45t23 -80q0 -76 -57.5 -120.5t-173.5 -44.5q-120 0 -178.5 46.5t-58.5 126.5h150q5 -60 87 -60q80 0 80 47q0 25 -22.5 36
t-56.5 17.5t-73.5 13.5t-73.5 23t-56.5 46t-22.5 83z" />
    <glyph glyph-name="period" unicode="." horiz-adv-x="242" 
d="M42 70q0 32 23 55t57 23q32 0 55 -23t23 -55q0 -34 -23 -57t-55 -23q-34 0 -57 23t-23 57z" />
    <glyph glyph-name="comma" unicode="," horiz-adv-x="247" 
d="M73 109h132l-59 -236h-104z" />
    <glyph glyph-name="quotesingle" unicode="'" horiz-adv-x="197" 
d="M35 721h127l-10 -225h-108z" />
    <glyph glyph-name="quotedbl" unicode="&#x22;" horiz-adv-x="370" 
d="M35 721h127l-10 -225h-108zM209 721h126l-10 -225h-107z" />
    <glyph glyph-name="quoteleft" unicode="&#x2018;" horiz-adv-x="197" 
d="M162 496h-127l10 225h107z" />
    <glyph glyph-name="quoteright" unicode="&#x2019;" horiz-adv-x="197" 
d="M35 721h127l-10 -225h-108z" />
    <glyph glyph-name="quotedblleft" unicode="&#x201c;" horiz-adv-x="370" 
d="M335 496h-126l10 225h107zM162 496h-127l10 225h107z" />
    <glyph glyph-name="quotedblright" unicode="&#x201d;" horiz-adv-x="370" 
d="M35 721h127l-10 -225h-108zM209 721h126l-10 -225h-107z" />
    <glyph glyph-name="hyphen" unicode="-" horiz-adv-x="358" 
d="M35 346h288v-120h-288v120z" />
    <glyph glyph-name="A" unicode="A" horiz-adv-x="685" 
d="M248 670h189l246 -670h-157l-44 118h-280l-43 -118h-157zM439 240l-96 263l-97 -263h193z" />
    <glyph glyph-name="B" unicode="B" horiz-adv-x="669" 
d="M350 670q118 0 185.5 -49.5t67.5 -137.5q0 -51 -24 -86.5t-70 -55.5q57 -19 89.5 -57t32.5 -97q0 -43 -17.5 -77.5t-50 -59t-79.5 -37.5t-106 -13h-308v670h280zM341 385q46 0 73 19t27 56q0 36 -27 54t-73 18h-117v-147h117zM364 138q51 0 78 20t27 58q0 74 -108 74
h-137v-152h140z" />
    <glyph glyph-name="C" unicode="C" horiz-adv-x="752" 
d="M35 335q0 71 27.5 134t74.5 110t110.5 74t135.5 27q65 0 122 -20t101.5 -56t74.5 -86t41 -110h-171q-17 54 -62 86t-105 32q-39 0 -73 -15t-59.5 -41t-40 -60.5t-14.5 -73.5q0 -40 14.5 -75t40 -61t59.5 -41t73 -15q60 0 105 32t62 86h171q-11 -60 -41 -110t-74.5 -86
t-101.5 -56t-122 -20q-72 0 -135.5 27t-110.5 74t-74.5 110t-27.5 134z" />
    <glyph glyph-name="D" unicode="D" horiz-adv-x="715" 
d="M70 0v670h271q74 0 136.5 -25t107.5 -69.5t70 -106t25 -134.5t-25 -135t-70 -106t-107.5 -69t-136.5 -25h-271zM224 150h117q39 0 72 13.5t56 37.5t36 58t13 76t-13 76t-36 58t-56 37.5t-72 13.5h-117v-370z" />
    <glyph glyph-name="E" unicode="E" horiz-adv-x="604" 
d="M70 670h492v-137h-338v-133h279v-132h-279v-131h338v-137h-492v670z" />
    <glyph glyph-name="F" unicode="F" horiz-adv-x="584" 
d="M70 670h486v-134h-332v-148h273v-132h-273v-256h-154v670z" />
    <glyph glyph-name="G" unicode="G" horiz-adv-x="762" 
d="M354 -10q-70 0 -128.5 25t-101 70t-66 108.5t-23.5 141.5q0 71 26 134t71.5 110t108.5 74t137 27q61 0 113.5 -15.5t93.5 -45t70.5 -71t43.5 -94.5h-185q-17 37 -54 57t-85 20q-40 0 -73 -14.5t-56.5 -40.5t-36 -61t-12.5 -76q0 -94 53 -147t147 -53q53 0 92.5 18
t59.5 51v54h-151v111h305v-373h-154v63q-35 -35 -84 -54t-111 -19z" />
    <glyph glyph-name="H" unicode="H" horiz-adv-x="733" 
d="M70 670h154v-284h285v284h154v-670h-154v246h-285v-246h-154v670z" />
    <glyph glyph-name="I" unicode="I" horiz-adv-x="294" 
d="M70 670h154v-670h-154v670z" />
    <glyph glyph-name="J" unicode="J" horiz-adv-x="415" 
d="M191 670h154v-487q0 -94 -54 -144t-157 -50q-47 0 -106 12v148q45 -9 76 -9q48 0 67.5 23t19.5 75v432z" />
    <glyph glyph-name="K" unicode="K" horiz-adv-x="671" 
d="M673 0h-197l-195 253h-57v-253h-154v670h154v-277h53l185 277h188l-230 -346z" />
    <glyph glyph-name="L" unicode="L" horiz-adv-x="532" 
d="M70 670h154v-530h287v-140h-441v670z" />
    <glyph glyph-name="M" unicode="M" horiz-adv-x="882" 
d="M70 670h218l153 -367l153 367h218v-670h-154v478l-143 -350h-148l-143 350v-478h-154v670z" />
    <glyph glyph-name="N" unicode="N" horiz-adv-x="733" 
d="M70 670h194l245 -445v445h154v-670h-193l-246 446v-446h-154v670z" />
    <glyph glyph-name="O" unicode="O" horiz-adv-x="766" 
d="M35 335q0 71 27.5 134t74.5 110t110.5 74t135.5 27t135.5 -27t111 -74t74.5 -110t27 -134q0 -72 -27 -134.5t-74.5 -109.5t-111 -74t-135.5 -27t-135.5 27t-110.5 74t-74.5 109.5t-27.5 134.5zM197 336q0 -40 14.5 -75t40 -61t59 -41t72.5 -15t72.5 15t59 41t40 61
t14.5 75q0 39 -14.5 73.5t-40 60.5t-59.5 41t-72 15t-72 -15t-59.5 -41t-40 -60.5t-14.5 -73.5z" />
    <glyph glyph-name="P" unicode="P" horiz-adv-x="654" 
d="M349 670q64 0 115 -17.5t87 -50t55.5 -78.5t19.5 -103q0 -56 -19 -101t-55 -76.5t-87.5 -48.5t-115.5 -17h-125v-178h-154v670h279zM339 319q60 0 92.5 26t32.5 74t-32.5 74.5t-92.5 26.5h-115v-201h115z" />
    <glyph glyph-name="Q" unicode="Q" horiz-adv-x="766" 
d="M554 -83l-70 89q-23 -8 -49 -12t-52 -4q-72 0 -135.5 27t-110.5 74t-74.5 109.5t-27.5 134.5q0 71 27.5 134t74.5 110t110.5 74t135.5 27t135.5 -27t111 -74t74.5 -110t27 -134q0 -79 -32.5 -146t-88.5 -115l121 -157h-177zM197 336q0 -40 14.5 -75t40 -61t59 -41
t72.5 -15t72.5 15t59 41t40 61t14.5 75q0 39 -14.5 73.5t-40 60.5t-59.5 41t-72 15t-72 -15t-59.5 -41t-40 -60.5t-14.5 -73.5z" />
    <glyph glyph-name="R" unicode="R" horiz-adv-x="675" 
d="M353 670q132 0 204.5 -57.5t72.5 -163.5q0 -77 -38 -128t-107 -75l147 -246h-181l-132 226h-95v-226h-154v670h283zM349 347q57 0 88 23.5t31 64.5t-31 64.5t-88 23.5h-125v-176h125z" />
    <glyph glyph-name="S" unicode="S" horiz-adv-x="645" 
d="M57 472q0 100 68.5 154t195.5 54q131 0 198 -58.5t69 -161.5h-158q0 42 -27 67t-87 25q-49 0 -76 -18.5t-27 -52.5q0 -21 11 -35.5t29.5 -24.5t43 -16.5t51.5 -12.5q42 -9 87 -19.5t82.5 -31t61.5 -55.5t24 -93q0 -92 -67.5 -147.5t-207.5 -55.5q-143 0 -214.5 59
t-71.5 160h158q8 -92 129 -92q54 0 83.5 18t29.5 50q0 22 -11.5 36t-31.5 23t-46.5 15t-55.5 11q-41 8 -83.5 18t-77.5 31.5t-57 57.5t-22 95z" />
    <glyph glyph-name="T" unicode="T" horiz-adv-x="595" 
d="M220 536h-213v134h581v-134h-214v-536h-154v536z" />
    <glyph glyph-name="U" unicode="U" horiz-adv-x="702" 
d="M352 -10q-140 0 -216 71t-76 204v405h154v-392q0 -67 36.5 -104.5t101.5 -37.5q64 0 100 37.5t36 104.5v392h154v-405q0 -133 -75 -204t-215 -71z" />
    <glyph glyph-name="V" unicode="V" horiz-adv-x="697" 
d="M174 670l175 -487l173 487h167l-246 -670h-189l-246 670h166z" />
    <glyph glyph-name="W" unicode="W" horiz-adv-x="1015" 
d="M174 670l130 -449l129 449h149l129 -449l131 449h165l-199 -670h-168l-133 442l-132 -442h-168l-199 670h166z" />
    <glyph glyph-name="X" unicode="X" horiz-adv-x="684" 
d="M436 338l240 -338h-187l-147 204l-147 -204h-187l240 338l-236 332h188l142 -198l142 198h188z" />
    <glyph glyph-name="Y" unicode="Y" horiz-adv-x="661" 
d="M183 670l148 -287l148 287h181l-252 -457v-213h-154v213l-252 457h181z" />
    <glyph glyph-name="Z" unicode="Z" horiz-adv-x="594" 
d="M233 134h319v-134h-510v134l320 402h-320v134h510v-134z" />
    <glyph glyph-name="zero" unicode="0" horiz-adv-x="674" 
d="M337 -10q-72 0 -128 23.5t-95 67.5t-59 108t-20 146t20 146t59 108.5t95 67.5t128 23t128 -23t95 -67.5t59 -108.5t20 -146t-20 -146t-59 -108t-95 -67.5t-128 -23.5zM337 138q69 0 104.5 51.5t35.5 145.5t-35.5 145.5t-104.5 51.5t-104.5 -51.5t-35.5 -145.5
t35.5 -145.5t104.5 -51.5z" />
    <glyph glyph-name="one" unicode="1" horiz-adv-x="377" 
d="M139 538h-97v132h251v-670h-154v538z" />
    <glyph glyph-name="two" unicode="2" horiz-adv-x="579" 
d="M37 134q69 46 131 88t109 81t74.5 76t27.5 73q0 35 -21 57.5t-67 22.5q-47 0 -68 -26.5t-23 -68.5h-162q3 120 64 181.5t188 61.5q121 0 186 -56t65 -153q0 -48 -17.5 -90.5t-50 -83t-79.5 -80.5t-106 -83h256v-134h-507v134z" />
    <glyph glyph-name="three" unicode="3" horiz-adv-x="616" 
d="M419 210q0 73 -116 73h-90v105h96q48 0 71 18.5t23 53.5t-24.5 53.5t-72.5 18.5q-45 0 -69.5 -20.5t-26.5 -58.5h-163q14 227 256 227q125 0 193.5 -50.5t68.5 -144.5q0 -59 -29 -97.5t-86 -52.5q64 -11 97.5 -49t33.5 -102q0 -93 -70.5 -143.5t-204.5 -50.5
q-127 0 -195 57t-76 170h163q2 -38 30 -59.5t82 -21.5q109 0 109 74z" />
    <glyph glyph-name="four" unicode="4" horiz-adv-x="649" 
d="M358 670h166v-412h90v-122h-90v-136h-154v136h-342v122zM186 258h184v231z" />
    <glyph glyph-name="five" unicode="5" horiz-adv-x="597" 
d="M189 200q6 -37 34 -56.5t76 -19.5q50 0 78.5 25t28.5 68q0 44 -29.5 69t-77.5 25q-40 0 -71 -11.5t-51 -28.5h-133l52 399h421v-134h-303l-20 -142q20 11 56.5 20.5t84.5 9.5q107 0 167 -55.5t60 -155.5q0 -108 -67.5 -165.5t-192.5 -57.5t-192 54t-75 156h154z" />
    <glyph glyph-name="six" unicode="6" horiz-adv-x="607" 
d="M35 389q0 142 64.5 216.5t207.5 74.5q114 0 177.5 -50.5t72.5 -148.5h-153q-8 65 -95 65q-40 0 -64 -12.5t-36.5 -34.5t-16 -51.5t-3.5 -64.5q25 20 63 33.5t85 13.5q54 0 97.5 -15t74 -43t47 -67t16.5 -87q0 -50 -19 -92t-53.5 -72t-82 -47t-104.5 -17
q-64 0 -115.5 16.5t-87.5 48.5t-55.5 78t-19.5 104v152zM302 130q52 0 83 25t31 68q0 42 -30.5 67t-83.5 25t-83.5 -25t-30.5 -67q0 -45 30.5 -69t83.5 -24z" />
    <glyph glyph-name="seven" unicode="7" horiz-adv-x="535" 
d="M346 536h-318v134h479v-134l-208 -536h-165z" />
    <glyph glyph-name="eight" unicode="8" horiz-adv-x="631" 
d="M35 186q0 60 34 99.5t86 61.5q-41 20 -68 56.5t-27 89.5q0 43 18 77.5t51.5 59t81 37.5t105.5 13q59 0 106 -13t80 -37.5t51 -59t18 -77.5q0 -53 -28 -89.5t-70 -56.5q54 -22 88.5 -61.5t34.5 -99.5q0 -93 -73.5 -144.5t-206.5 -51.5q-134 0 -207.5 51.5t-73.5 144.5z
M316 551q-50 0 -75.5 -22t-25.5 -59q0 -38 27.5 -60t73.5 -22t73 22t27 60q0 36 -25 58.5t-75 22.5zM316 289q-53 0 -89 -21t-36 -64q0 -42 32 -63.5t93 -21.5t93 21.5t32 63.5q0 43 -36 64t-89 21z" />
    <glyph glyph-name="nine" unicode="9" horiz-adv-x="607" 
d="M572 281q0 -142 -64.5 -216.5t-208.5 -74.5q-114 0 -177 50.5t-72 148.5h153q8 -65 94 -65q41 0 64.5 12.5t36.5 34.5t16.5 52t3.5 64q-25 -20 -63 -33.5t-85 -13.5q-54 0 -97.5 15t-74 43t-47 67t-16.5 87q0 50 19 92t53.5 72t81.5 47t104 17q64 0 115.5 -16.5t88 -48.5
t56 -77.5t19.5 -104.5v-152zM305 540q-53 0 -83.5 -25t-30.5 -68q0 -42 30.5 -67t83.5 -25t83.5 25t30.5 67q0 45 -31 69t-83 24z" />
    <glyph glyph-name="plus" unicode="+" horiz-adv-x="467" 
d="M35 345h139v139h120v-139h138v-120h-138v-138h-120v138h-139v120z" />
    <glyph glyph-name="asterisk" unicode="*" horiz-adv-x="550" 
d="M189 292l-102 75l93 113l-145 38l39 120l147 -58l-10 160h126l-10 -161l149 59l39 -120l-146 -38l94 -113l-103 -75l-85 136z" />
    <glyph glyph-name="asciicircum" unicode="^" horiz-adv-x="517" 
d="M35 278l155 392h137l155 -392h-127l-96 260l-97 -260h-127z" />
    <glyph glyph-name="tilde" unicode="&#x2dc;" horiz-adv-x="332" 
d="M174 707q11 -5 21 -10.5t23 -5.5t28.5 8t35.5 29l29 -86q-29 -26 -50.5 -36t-41.5 -10q-15 0 -29.5 5.5t-31.5 13.5q-10 5 -20.5 10.5t-23.5 5.5t-28.5 -8t-35.5 -29l-29 86q29 26 50.5 36t41.5 10q15 0 29.5 -5.5t31.5 -13.5z" />
    <glyph glyph-name="slash" unicode="/" horiz-adv-x="420" 
d="M304 710h116l-304 -750h-116z" />
    <glyph glyph-name="backslash" unicode="\" horiz-adv-x="420" 
d="M304 -40l-304 750h116l304 -750h-116z" />
    <glyph glyph-name="colon" unicode=":" horiz-adv-x="252" 
d="M42 455q0 17 6.5 32t18 26.5t27 18t33.5 6.5q34 0 58.5 -24.5t24.5 -58.5q0 -18 -6.5 -33.5t-18 -27t-26.5 -18t-32 -6.5q-35 0 -60 25t-25 60zM42 75q0 17 6.5 32t18 26.5t27 18t33.5 6.5q34 0 58.5 -24.5t24.5 -58.5q0 -18 -6.5 -33.5t-18 -27t-26.5 -18t-32 -6.5
q-35 0 -60 25t-25 60z" />
    <glyph glyph-name="semicolon" unicode=";" horiz-adv-x="252" 
d="M42 455q0 17 6.5 32t18 26.5t27 18t33.5 6.5q34 0 58.5 -24.5t24.5 -58.5q0 -18 -6.5 -33.5t-18 -27t-26.5 -18t-32 -6.5q-35 0 -60 25t-25 60zM73 109h132l-58 -236h-104z" />
    <glyph glyph-name="less" unicode="&#x3c;" horiz-adv-x="502" 
d="M35 227v134l432 175v-127l-301 -115l301 -115v-127z" />
    <glyph glyph-name="equal" unicode="=" horiz-adv-x="449" 
d="M35 425h379v-108h-379v108zM35 234h379v-108h-379v108z" />
    <glyph glyph-name="greater" unicode="&#x3e;" horiz-adv-x="502" 
d="M35 52v127l301 115l-301 115v127l432 -175v-134z" />
    <glyph glyph-name="exclam" unicode="!" horiz-adv-x="285" 
d="M62 670h161l-13 -472h-135zM64 70q0 32 23 55t57 23q32 0 55 -23t23 -55q0 -34 -23 -57t-55 -23q-34 0 -57 23t-23 57z" />
    <glyph glyph-name="question" unicode="?" horiz-adv-x="546" 
d="M193 316l85 40q44 21 60.5 42.5t16.5 54.5q0 81 -82 81q-36 0 -57.5 -22t-26.5 -61h-154q11 229 244 229q112 0 172 -52.5t60 -152.5q0 -79 -50.5 -138.5t-158.5 -108.5l-109 -50v138zM193 70q0 32 23 55t57 23q32 0 55 -23t23 -55q0 -34 -23 -57t-55 -23q-34 0 -57 23
t-23 57z" />
    <glyph glyph-name="numbersign" unicode="#" horiz-adv-x="686" 
d="M197 670h136l-20 -137h120l20 137h136l-20 -137h102l-22 -136h-101l-18 -124h103l-22 -136h-102l-20 -137h-136l20 137h-120l-20 -137h-136l20 137h-102l22 136h101l18 124h-103l22 136h102zM274 273h120l18 124h-120z" />
    <glyph glyph-name="at" unicode="@" horiz-adv-x="878" 
d="M35 292q0 91 29 165.5t82 127.5t127.5 82t165.5 29t165.5 -29t127.5 -82t82 -127.5t29 -165.5t-29 -165.5t-82 -127.5t-127.5 -82t-165.5 -29t-165.5 29t-127.5 82t-82 127.5t-29 165.5zM144 292q0 -67 21 -121.5t59.5 -93t93 -59.5t121.5 -21t121.5 21t93 59.5t59.5 93
t21 121.5t-21 121.5t-59.5 93t-93 59.5t-121.5 21t-121.5 -21t-93 -59.5t-59.5 -93t-21 -121.5zM619 102h-112v49q-14 -23 -42 -39t-68 -16q-42 0 -75.5 15.5t-57 41.5t-36 61.5t-12.5 75.5q0 41 12.5 76.5t36 62t57 42t75.5 15.5q40 0 68 -16.5t42 -39.5v49h112v-377z
M507 315q-6 29 -28.5 48t-57.5 19q-41 0 -65 -27t-24 -65t24 -64t65 -26q35 0 57.5 18t28.5 46v51z" />
    <glyph glyph-name="dollar" unicode="$" horiz-adv-x="649" 
d="M56 472q0 85 51.5 137t147.5 66v114h145v-115q94 -16 143 -71.5t50 -142.5h-158q0 42 -27.5 67t-89.5 25q-50 0 -78 -18.5t-28 -52.5q0 -21 11 -35.5t30 -24.5t43.5 -16.5t52.5 -12.5q42 -9 88 -19.5t84 -31t62.5 -56t24.5 -93.5q0 -80 -51 -132t-157 -65v-148h-145v148
q-107 15 -160.5 71t-53.5 143h158q8 -92 133 -92q54 0 84.5 18t30.5 50q0 22 -12 36t-32 23t-46.5 15t-56.5 11q-42 8 -85 18t-78.5 31.5t-58 57.5t-22.5 95z" />
    <glyph glyph-name="Euro" unicode="&#x20ac;" horiz-adv-x="792" 
d="M75 335q0 5 0.5 10t0.5 10h-68v75h81q15 54 47 100t75.5 79t96.5 52t112 19q65 0 121.5 -20t100.5 -56t74 -86t41 -110h-172q-17 52 -61 83t-104 31q-50 0 -91 -25t-64 -67h180v-75h-206q-1 -5 -1.5 -10t-0.5 -10q0 -10 1 -19.5t3 -18.5h204v-75h-167q24 -34 61 -54
t81 -20q60 0 104 31t61 83h172q-11 -60 -41 -110t-74 -86t-100.5 -56t-121.5 -20q-56 0 -107.5 17.5t-94 48t-74.5 73t-50 93.5h-86v75h70q-3 18 -3 38z" />
    <glyph glyph-name="percent" unicode="%" horiz-adv-x="966" 
d="M35 483q0 92 50.5 144.5t135.5 52.5t135 -52.5t50 -144.5t-50 -144.5t-135 -52.5t-135.5 52.5t-50.5 144.5zM243 0l360 670h121l-360 -670h-121zM158 483q0 -43 16 -68t47 -25t47 25t16 68t-16 68t-47 25t-47 -25t-16 -68zM560 187q0 92 50.5 144.5t135.5 52.5t135 -52.5
t50 -144.5t-50 -144.5t-135 -52.5t-135.5 52.5t-50.5 144.5zM684 187q0 -43 16 -68t46 -25q31 0 47 25t16 68t-16 68t-47 25q-30 0 -46 -25t-16 -68z" />
    <glyph glyph-name="ampersand" unicode="&#x26;" horiz-adv-x="707" 
d="M672 394v-117h-67v-238q-44 -19 -120 -34t-165 -15q-138 0 -211.5 51.5t-73.5 144.5q0 60 37.5 101.5t104.5 58.5q-50 20 -78.5 61t-28.5 94q0 36 15.5 66.5t46 53.5t76 36t105.5 13h159v-129h-126q-56 0 -82 -16t-26 -50q0 -38 31.5 -59.5t91.5 -21.5h311zM451 277h-110
q-73 0 -106 -18t-33 -59q0 -40 35.5 -61t103.5 -21q36 0 63 4.5t47 10.5v144z" />
    <glyph glyph-name="parenleft" unicode="(" horiz-adv-x="381" 
d="M56 310q0 126 36 236.5t114 213.5h140q-69 -109 -104.5 -224.5t-35.5 -225.5t35.5 -225.5t104.5 -224.5h-140q-78 103 -114 213.5t-36 236.5z" />
    <glyph glyph-name="parenright" unicode=")" horiz-adv-x="381" 
d="M325 310q0 -126 -36 -236.5t-114 -213.5h-140q69 109 104.5 224.5t35.5 225.5t-35.5 225.5t-104.5 224.5h140q78 -103 114 -213.5t36 -236.5z" />
    <glyph glyph-name="braceleft" unicode="{" horiz-adv-x="396" 
d="M35 354q8 0 20.5 1t23.5 5t19 12t8 23v248q0 25 5.5 46.5t20 37t39.5 24.5t63 9h127v-111h-70q-23 0 -33 -9t-10 -33v-208q0 -41 -17.5 -61t-42.5 -28q25 -9 42.5 -29t17.5 -61v-208q0 -24 10 -33t33 -9h70v-111h-127q-38 0 -63 9t-39.5 24.5t-20 37t-5.5 46.5v248
q0 15 -8 23t-19 12t-23.5 5t-20.5 1v89z" />
    <glyph glyph-name="bar" unicode="|" horiz-adv-x="282" 
d="M70 760h142v-900h-142v900z" />
    <glyph glyph-name="braceright" unicode="}" horiz-adv-x="396" 
d="M361 354v-89q-8 0 -20 -1t-23.5 -5t-19.5 -12t-8 -23v-248q0 -25 -5.5 -46.5t-20 -37t-39.5 -24.5t-63 -9h-127v111h70q23 0 33 9t10 33v208q0 41 17.5 61t42.5 29q-25 8 -42.5 28t-17.5 61v208q0 24 -10 33t-33 9h-70v111h127q38 0 63 -9t39.5 -24.5t20 -37t5.5 -46.5
v-248q0 -15 8 -23t19.5 -12t23.5 -5t20 -1z" />
    <glyph glyph-name="bracketleft" unicode="[" horiz-adv-x="360" 
d="M70 760h255v-111h-113v-678h113v-111h-255v900z" />
    <glyph glyph-name="bracketright" unicode="]" horiz-adv-x="360" 
d="M35 -140v111h113v678h-113v111h255v-900h-255z" />
    <glyph glyph-name="quotesinglbase" unicode="&#x201a;" horiz-adv-x="211" 
d="M42 104h127l-10 -225h-108z" />
    <glyph glyph-name="quotedblbase" unicode="&#x201e;" horiz-adv-x="384" 
d="M42 104h127l-10 -225h-108zM216 104h126l-10 -225h-107z" />
    <glyph glyph-name="bullet" unicode="&#x2022;" horiz-adv-x="299" 
d="M44 343q0 49 28.5 77.5t76.5 28.5q49 0 77.5 -28.5t28.5 -77.5q0 -48 -28.5 -76.5t-77.5 -28.5q-48 0 -76.5 28.5t-28.5 76.5z" />
    <glyph glyph-name="underscore" unicode="_" horiz-adv-x="456" 
d="M35 -24h386v-105h-386v105z" />
    <glyph glyph-name="endash" unicode="&#x2013;" horiz-adv-x="572" 
d="M35 346h502v-120h-502v120z" />
    <glyph glyph-name="emdash" unicode="&#x2014;" horiz-adv-x="1074" 
d="M35 346h1004v-120h-1004v120z" />
    <glyph glyph-name="macron" unicode="&#xaf;" horiz-adv-x="322" 
d="M35 711h252v-96h-252v96z" />
    <glyph glyph-name="logicalnot" unicode="&#xac;" horiz-adv-x="524" 
d="M35 370h454v-258h-120v138h-334v120z" />
    <glyph glyph-name="trademark" unicode="&#x2122;" horiz-adv-x="885" 
d="M149 579h-110v91h326v-91h-110v-281h-106v281zM401 670h155l61 -179l61 179h154v-372h-106v250l-61 -181h-97l-61 181v-250h-106v372z" />
    <glyph glyph-name="registered" unicode="&#xae;" horiz-adv-x="878" 
d="M35 292q0 91 29 165.5t82 127.5t127.5 82t165.5 29t165.5 -29t127.5 -82t82 -127.5t29 -165.5t-29 -165.5t-82 -127.5t-127.5 -82t-165.5 -29t-165.5 29t-127.5 82t-82 127.5t-29 165.5zM139 292q0 -68 21.5 -123.5t60.5 -94.5t94.5 -60.5t123.5 -21.5t123.5 21.5
t94.5 60.5t60.5 94.5t21.5 123.5t-21.5 123.5t-60.5 94.5t-94.5 60.5t-123.5 21.5t-123.5 -21.5t-94.5 -60.5t-60.5 -94.5t-21.5 -123.5zM452 512q90 0 137 -37.5t47 -108.5q0 -50 -23 -83t-66 -50l92 -156h-137l-81 141h-42v-141h-117v435h190zM379 308h71q63 0 63 46
t-63 46h-71v-92z" />
    <glyph glyph-name="copyright" unicode="&#xa9;" horiz-adv-x="878" 
d="M35 292q0 91 29 165.5t82 127.5t127.5 82t165.5 29t165.5 -29t127.5 -82t82 -127.5t29 -165.5t-29 -165.5t-82 -127.5t-127.5 -82t-165.5 -29t-165.5 29t-127.5 82t-82 127.5t-29 165.5zM144 292q0 -67 21 -121.5t59.5 -93t93 -59.5t121.5 -21t121.5 21t93 59.5t59.5 93
t21 121.5t-21 121.5t-59.5 93t-93 59.5t-121.5 21t-121.5 -21t-93 -59.5t-59.5 -93t-21 -121.5zM221 293q0 48 16.5 87.5t45.5 68.5t69 45t88 16q44 0 81 -13.5t65.5 -37.5t46.5 -57.5t22 -73.5h-131q-8 26 -30 43t-53 17q-41 0 -66 -28t-25 -67q0 -19 7 -36t19 -29.5
t28.5 -20t36.5 -7.5q30 0 52.5 16t30.5 42h131q-5 -40 -23 -73t-46.5 -57t-65.5 -37.5t-80 -13.5q-48 0 -88 16t-69 45t-45.5 68.5t-16.5 86.5z" />
    <glyph glyph-name="currency" unicode="&#xa4;" horiz-adv-x="569" 
d="M82 298q0 49 19 90l-66 66l94 94l66 -66q41 19 90 19q48 0 89 -19l66 66l94 -94l-66 -66q8 -20 13 -42t5 -48q0 -25 -5 -47t-13 -42l66 -66l-94 -94l-66 66q-41 -19 -89 -19q-49 0 -90 19l-66 -66l-94 94l66 66q-19 41 -19 89zM205 298q0 -35 22 -57t58 -22q35 0 57 22
t22 57q0 36 -22 58t-57 22q-36 0 -58 -22t-22 -58z" />
    <glyph glyph-name="cent" unicode="&#xa2;" horiz-adv-x="617" 
d="M36 264q0 49 14.5 91.5t40.5 76.5t62 58.5t80 36.5v143h145v-140q83 -18 138 -76t66 -143h-158q-11 35 -40 57.5t-70 22.5q-28 0 -50.5 -10t-39 -27.5t-25.5 -41t-9 -49.5q0 -25 9 -48t25.5 -40t39 -27t50.5 -10q40 0 69.5 21.5t40.5 54.5h158q-11 -84 -66.5 -141
t-137.5 -75v-149h-145v152q-44 12 -80 36t-62 58.5t-40.5 77t-14.5 91.5z" />
    <glyph glyph-name="sterling" unicode="&#xa3;" horiz-adv-x="632" 
d="M20 135h79v116h-79v120h79v100q0 46 16.5 84.5t47.5 66t74.5 43t97.5 15.5q56 0 99 -17t72.5 -47.5t45.5 -74t17 -97.5h-156q-4 90 -78 90q-38 0 -60 -22t-22 -61v-80h170v-120h-170v-116h329v-135h-562v135z" />
    <glyph glyph-name="yen" unicode="&#xa5;" horiz-adv-x="685" 
d="M194 670l149 -287l148 287h180l-216 -393h91v-75h-126v-52h126v-75h-126v-75h-154v75h-127v75h127v52h-127v75h91l-216 393h180z" />
    <glyph glyph-name="florin" unicode="&#x192;" horiz-adv-x="419" 
d="M29 408v120h82v18q0 97 44.5 146t132.5 49h131v-130h-101q-58 0 -58 -70v-13h147v-120h-147v-431q0 -189 -190 -189h-67v130h37q71 0 71 88v402h-82z" />
    <glyph glyph-name="minus" unicode="&#x2212;" horiz-adv-x="358" 
d="M35 346h288v-120h-288v120z" />
    <glyph glyph-name="plusminus" unicode="&#xb1;" horiz-adv-x="467" 
d="M35 407h139v121h120v-121h138v-120h-138v-120h-120v120h-139v120zM35 120h397v-120h-397v120z" />
    <glyph glyph-name="multiply" unicode="&#xd7;" horiz-adv-x="427" 
d="M111 463l103 -101l102 101l76 -75l-102 -103l101 -102l-75 -76l-102 103l-103 -103l-75 76l102 102l-103 103z" />
    <glyph glyph-name="divide" unicode="&#xf7;" horiz-adv-x="511" 
d="M177 459q0 32 23 55t57 23q32 0 55 -23t23 -55q0 -34 -23 -57t-55 -23q-34 0 -57 23t-23 57zM35 330h441v-108h-441v108zM177 95q0 32 23 55t57 23q32 0 55 -23t23 -55q0 -34 -23 -57t-55 -23q-34 0 -57 23t-23 57z" />
    <glyph glyph-name="brokenbar" unicode="&#xa6;" horiz-adv-x="282" 
d="M70 760h142v-349h-142v349zM70 209h142v-349h-142v349z" />
    <glyph glyph-name="ellipsis" unicode="&#x2026;" horiz-adv-x="735" 
d="M54 70q0 32 23 55t57 23q32 0 55 -23t23 -55q0 -34 -23 -57t-55 -23q-34 0 -57 23t-23 57zM299 70q0 32 23 55t57 23q32 0 55 -23t23 -55q0 -34 -23 -57t-55 -23q-34 0 -57 23t-23 57zM544 70q0 32 23 55t57 23q32 0 55 -23t23 -55q0 -34 -23 -57t-55 -23q-34 0 -57 23
t-23 57z" />
    <glyph glyph-name="periodcentered" unicode="&#xb7;" horiz-adv-x="228" 
d="M35 343q0 32 23 55.5t57 23.5q32 0 55 -23.5t23 -55.5q0 -33 -23 -56t-55 -23q-34 0 -57 23t-23 56z" />
    <glyph glyph-name="exclamdown" unicode="&#xa1;" horiz-adv-x="285" 
d="M64 399q0 34 23 57t57 23q32 0 55 -23t23 -57q0 -32 -23 -55t-55 -23q-34 0 -57 23t-23 55zM210 271l13 -472h-161l13 472h135z" />
    <glyph glyph-name="questiondown" unicode="&#xbf;" horiz-adv-x="546" 
d="M353 409q0 -32 -23 -55t-57 -23q-32 0 -55 23t-23 55q0 34 23 57t55 23q34 0 57 -23t23 -57zM353 163l-85 -40q-44 -21 -60.5 -42.5t-16.5 -54.5q0 -75 82 -75q40 0 61.5 22t23.5 63h153q-3 -116 -63 -176.5t-181 -60.5q-115 0 -173.5 54t-58.5 151q0 79 50 138.5
t159 108.5l109 50v-138z" />
    <glyph glyph-name="degree" unicode="&#xb0;" horiz-adv-x="413" 
d="M35 510q0 35 13.5 66t36.5 54t54.5 36.5t67.5 13.5t67 -13.5t54 -36.5t36.5 -54t13.5 -66q0 -36 -13.5 -67.5t-36.5 -54.5t-54.5 -36.5t-66.5 -13.5q-36 0 -67 13.5t-54.5 36.5t-37 54.5t-13.5 67.5zM148 510q0 -25 17 -42.5t42 -17.5q24 0 41 17t17 43q0 23 -17 41
t-41 18q-25 0 -42 -18t-17 -41z" />
    <glyph glyph-name="fraction" unicode="&#x2044;" horiz-adv-x="420" 
d="M304 710h116l-304 -750h-116z" />
    <glyph glyph-name="perthousand" unicode="&#x2030;" horiz-adv-x="1395" 
d="M35 483q0 92 50.5 144.5t135.5 52.5t135 -52.5t50 -144.5t-50 -144.5t-135 -52.5t-135.5 52.5t-50.5 144.5zM243 0l360 670h121l-360 -670h-121zM158 483q0 -43 16 -68t47 -25t47 25t16 68t-16 68t-47 25t-47 -25t-16 -68zM560 187q0 92 50.5 144.5t135.5 52.5t135 -52.5
t50 -144.5t-50 -144.5t-135 -52.5t-135.5 52.5t-50.5 144.5zM989 187q0 92 50.5 144.5t135.5 52.5t135 -52.5t50 -144.5t-50 -144.5t-135 -52.5t-135.5 52.5t-50.5 144.5zM684 187q0 -43 16 -68t46 -25q31 0 47 25t16 68t-16 68t-47 25q-30 0 -46 -25t-16 -68zM1113 187
q0 -43 16 -68t46 -25q31 0 47 25t16 68t-16 68t-47 25q-30 0 -46 -25t-16 -68z" />
    <glyph glyph-name="uni03BC" unicode="&#x3bc;" 
d="M205 -195h-149v723h149v-292q0 -46 25.5 -72t64.5 -26q25 0 45 10.5t35 28t23 40t9 47.5v264h149v-528h-149v76q-27 -38 -67.5 -61t-91.5 -25q-24 0 -43 11v-196z" />
    <glyph glyph-name="paragraph" unicode="&#xb6;" horiz-adv-x="634" 
d="M260 222q-51 0 -92.5 16t-71 45.5t-45.5 70.5t-16 91q0 51 16 92.5t45.5 71t71 45.5t92.5 16h112v-803h-112v355zM452 670h112v-803h-112v803z" />
    <glyph glyph-name="section" unicode="&#xa7;" horiz-adv-x="545" 
d="M47 507q0 82 58.5 127.5t165.5 45.5q112 0 169 -49t58 -135h-135q0 34 -22.5 55t-73.5 21q-42 0 -64.5 -15t-22.5 -44q0 -17 9 -29t25 -20t36.5 -13.5t43.5 -10.5q35 -7 73.5 -16t70 -25.5t52 -44.5t20.5 -74q0 -83 -72 -117q32 -18 52 -47.5t20 -77.5q0 -78 -57 -124
t-176 -46q-121 0 -181.5 49.5t-60.5 134.5h135q6 -75 108 -75q46 0 70.5 14t24.5 40q0 18 -10 30t-26.5 19.5t-39 12t-46.5 9.5q-34 6 -70.5 16t-66 28.5t-48.5 47.5t-19 74q0 39 16 66.5t47 46.5q-28 18 -45.5 48t-17.5 78zM269 211q20 -1 38.5 1.5t33 9t23.5 17.5t9 27
q0 19 -11 31t-28.5 19.5t-38.5 12t-41 8.5q-74 -6 -74 -58q0 -30 25.5 -44.5t63.5 -23.5z" />
    <glyph glyph-name="dagger" unicode="&#x2020;" horiz-adv-x="364" 
d="M120 426h-82v102h82v232h124v-232h82v-102h-82v-566h-124v566z" />
    <glyph glyph-name="daggerdbl" unicode="&#x2021;" horiz-adv-x="364" 
d="M120 134h-82v102h82v148h-82v102h82v274h124v-274h82v-102h-82v-148h82v-102h-82v-274h-124v274z" />
    <glyph glyph-name="asciitilde" unicode="~" horiz-adv-x="544" 
d="M280 328q18 -8 38.5 -13t42.5 -5q31 0 61.5 11.5t57.5 39.5l29 -101q-36 -29 -74.5 -43t-77.5 -14q-47 0 -93 20q-18 8 -38.5 13t-42.5 5q-31 0 -61.5 -11.5t-57.5 -39.5l-29 101q36 29 74.5 43t77.5 14q47 0 93 -20z" />
    <glyph glyph-name="guilsinglleft" unicode="&#x2039;" horiz-adv-x="301" 
d="M35 229v123l231 135v-127l-127 -70l127 -69v-127z" />
    <glyph glyph-name="guilsinglright" unicode="&#x203a;" horiz-adv-x="301" 
d="M35 94v127l127 69l-127 70v127l231 -135v-123z" />
    <glyph glyph-name="guillemotleft" unicode="&#xab;" horiz-adv-x="555" 
d="M35 229v123l231 135v-127l-127 -70l127 -69v-127zM289 229v123l231 135v-127l-128 -70l128 -69v-127z" />
    <glyph glyph-name="guillemotright" unicode="&#xbb;" horiz-adv-x="555" 
d="M289 94v127l127 69l-127 70v127l231 -135v-123zM35 94v127l127 69l-127 70v127l231 -135v-123z" />
    <glyph glyph-name="Thorn" unicode="&#xde;" horiz-adv-x="657" 
d="M345 580q64 0 115 -17.5t87 -50t55.5 -78t19.5 -102.5q0 -56 -19 -101t-55 -76.5t-87.5 -48t-115.5 -16.5l-128 1v-91h-154v670h154v-90h128zM335 229q60 0 92.5 26.5t32.5 74.5t-32.5 75t-92.5 27h-118v-203h118z" />
    <glyph glyph-name="thorn" unicode="&#xfe;" horiz-adv-x="634" 
d="M56 -195v915h149v-251q23 32 59 50.5t91 18.5q56 0 102 -20.5t79 -57.5t51.5 -87t18.5 -110q0 -59 -18.5 -109t-51.5 -86t-79 -56.5t-101 -20.5q-56 0 -92 18t-59 50v-254h-149zM205 239q7 -44 40 -72.5t82 -28.5q28 0 51 10t39.5 27t25.5 40t9 48q0 26 -9 49.5t-25.5 41
t-39.5 27.5t-51 10q-50 0 -82 -29t-40 -73v-50z" />
    <glyph glyph-name="germandbls" unicode="&#xdf;" horiz-adv-x="668" 
d="M536 555q0 -42 -15.5 -68t-34.5 -44t-34.5 -32.5t-15.5 -33.5q0 -17 14.5 -26.5t36.5 -18t47.5 -18t47.5 -26.5t36.5 -44t14.5 -70q0 -91 -67.5 -132.5t-192.5 -41.5h-88v126h85q49 0 82 13t33 44q0 20 -14 31.5t-34.5 20.5t-44.5 18t-44.5 23t-34.5 35.5t-14 55.5
q0 36 15 59.5t32.5 41t32 33t12.5 37.5q-2 25 -25.5 39t-65.5 14q-46 0 -70.5 -21.5t-24.5 -61.5v-508h-149v519q0 98 63 149.5t184 51.5q112 0 172.5 -44t60.5 -121z" />
    <glyph glyph-name="eth" unicode="&#xf0;" horiz-adv-x="589" 
d="M542 230q0 -55 -20 -99.5t-55 -75.5t-83 -48t-105 -17q-56 0 -102.5 15t-79.5 42t-51 65t-18 85q0 91 52.5 141.5t157.5 50.5q47 0 87 -13.5t71 -37.5v22q0 83 -47 127l-87 -73l-62 73l54 45q-56 14 -127 14v134q150 0 250 -44l79 67l63 -73l-57 -47q39 -38 59.5 -89
t20.5 -117v-147zM385 230q-19 27 -51.5 42.5t-64.5 15.5q-39 0 -63 -22t-24 -60q0 -37 26.5 -59.5t70.5 -22.5q42 0 70 24.5t36 65.5v16z" />
    <glyph glyph-name="dotlessi" unicode="&#x131;" horiz-adv-x="261" 
d="M56 528h149v-528h-149v528z" />
    <glyph glyph-name="franc" unicode="&#x20a3;" horiz-adv-x="584" 
d="M70 80h-60v120h60v470h486v-132h-332v-132h273v-132h-273v-74h102v-120h-102v-80h-154v80z" />
    <glyph glyph-name="lira" unicode="&#x20a4;" horiz-adv-x="640" 
d="M28 414h79v57q0 46 16.5 84.5t47.5 66t74.5 43t97.5 15.5q110 0 170.5 -51.5t63.5 -154.5h-156q-4 78 -78 78q-38 0 -60 -22t-22 -61v-55h188v-93h-188v-52h188v-93h-188v-59h329v-117h-562v117h79v59h-79v93h79v52h-79v93z" />
    <glyph glyph-name="uni03A9" unicode="&#x3a9;" horiz-adv-x="786" 
d="M393 680q72 0 132.5 -23.5t104 -65t67.5 -98.5t24 -124q0 -72 -30.5 -133t-84.5 -104h152v-132h-316v185q57 22 90 68.5t33 103.5q0 38 -12 69.5t-34.5 54t-54.5 35t-71 12.5t-70.5 -12.5t-54 -35t-35 -54t-12.5 -69.5q0 -57 33 -103.5t90 -68.5v-185h-316v132h152
q-54 43 -84.5 104t-30.5 133q0 67 24.5 124t68 98.5t103.5 65t132 23.5z" />
    <glyph glyph-name="estimated" unicode="&#x212e;" horiz-adv-x="756" 
d="M375 47q72 0 130 32t100 96h82q-19 -45 -53 -82t-77 -63t-91.5 -40t-97.5 -14q-66 0 -124 23.5t-101 68.5t-68 110.5t-25 149.5q0 83 25.5 148.5t70 110.5t104 68.5t127.5 23.5q69 0 129 -27.5t104.5 -77.5t70 -119.5t25.5 -152.5h-512v-177q35 -39 81 -58.5t100 -19.5z
M562 373v156q-88 78 -193 78q-107 0 -175 -78v-156h368z" />
    <glyph glyph-name="partialdiff" unicode="&#x2202;" horiz-adv-x="644" 
d="M578 237q-9 -58 -36.5 -104t-69.5 -78t-96 -48.5t-116 -16.5q-57 0 -101.5 17t-74 47.5t-41.5 73t-4 93.5q8 49 30.5 88.5t57.5 67.5t81 43.5t100 15.5q47 0 83 -13.5t58 -33.5l1 6q6 42 4 71t-13.5 46.5t-32.5 25.5t-53 8q-88 0 -108 -65h-152q25 98 96 148.5t185 50.5
q139 0 194 -71.5t32 -219.5zM294 130q53 0 87.5 25.5t41.5 70.5q8 44 -18.5 69.5t-80.5 25.5q-52 0 -86.5 -25t-41.5 -69q-8 -45 19 -71t79 -26z" />
    <glyph glyph-name="uni0394" unicode="&#x394;" horiz-adv-x="691" 
d="M271 670h149l250 -544v-126h-649v126zM526 126l-180 391l-181 -391h361z" />
    <glyph glyph-name="product" unicode="&#x220f;" horiz-adv-x="642" 
d="M70 670h502v-883h-154v751h-194v-751h-154v883z" />
    <glyph glyph-name="summation" unicode="&#x2211;" horiz-adv-x="533" 
d="M35 670h463v-132h-288l191 -270l-191 -270h288v-132h-463v132l191 270l-191 270v132z" />
    <glyph glyph-name="radical" unicode="&#x221a;" horiz-adv-x="601" 
d="M597 707l-261 -707h-128l-87 258h-100v114h174l79 -231l209 566h114z" />
    <glyph glyph-name="infinity" unicode="&#x221e;" horiz-adv-x="892" 
d="M446 379q15 23 32.5 43t41 36t54 25t70.5 9q46 0 85 -15.5t67.5 -43.5t44.5 -67t16 -85t-16 -84.5t-44.5 -66t-67.5 -42.5t-85 -15q-75 0 -121 31t-77 88q-32 -57 -78.5 -88t-121.5 -31q-46 0 -85 15t-67 42.5t-43.5 66t-15.5 84.5q0 47 15.5 86t43 67t66.5 43t86 15
q38 0 68.5 -9t55 -25t43 -36t33.5 -43zM635 383q-18 0 -38 -5.5t-38.5 -17.5t-34 -31t-25.5 -45q9 -28 24 -47.5t33 -31.5t38 -17.5t41 -5.5q49 0 76.5 25t27.5 75q0 48 -27 74.5t-77 26.5zM256 383q-47 0 -75.5 -27t-28.5 -74q0 -50 28 -75t76 -25q42 0 80 23t56 79
q-10 26 -25.5 45t-34 31t-38.5 17.5t-38 5.5z" />
    <glyph glyph-name="integral" unicode="&#x222b;" horiz-adv-x="367" 
d="M236 -23q0 -189 -190 -189h-67v130h37q71 0 71 88v540q0 97 44.5 146t132.5 49h89v-130h-59q-58 0 -58 -70v-564z" />
    <glyph glyph-name="approxequal" unicode="&#x2248;" horiz-adv-x="574" 
d="M295 242q18 -8 38.5 -13t42.5 -5q31 0 61.5 11.5t57.5 39.5l29 -101q-36 -29 -74.5 -43t-77.5 -14q-47 0 -93 20q-18 8 -38.5 13t-42.5 5q-31 0 -61.5 -11.5t-57.5 -39.5l-29 101q36 29 74.5 43t77.5 14q47 0 93 -20zM295 423q18 -8 38.5 -13t42.5 -5q31 0 61.5 11.5
t57.5 39.5l29 -101q-36 -29 -74.5 -43t-77.5 -14q-47 0 -93 20q-18 8 -38.5 13t-42.5 5q-31 0 -61.5 -11.5t-57.5 -39.5l-29 101q36 29 74.5 43t77.5 14q47 0 93 -20z" />
    <glyph glyph-name="notequal" unicode="&#x2260;" horiz-adv-x="449" 
d="M35 425h195l51 125h110l-51 -125h74v-108h-117l-34 -83h151v-108h-195l-51 -126h-110l51 126h-74v108h118l34 83h-152v108z" />
    <glyph glyph-name="lessequal" unicode="&#x2264;" horiz-adv-x="515" 
d="M35 277v128l445 133v-127l-265 -70l265 -70v-127zM35 105h445v-105h-445v105z" />
    <glyph glyph-name="greaterequal" unicode="&#x2265;" horiz-adv-x="515" 
d="M36 144v127l265 70l-265 70v127l444 -133v-128zM480 105v-105h-445v105h445z" />
    <glyph glyph-name="lozenge" unicode="&#x25ca;" horiz-adv-x="541" 
d="M207 671h127l172 -336l-172 -335h-127l-172 335zM385 335l-114 224l-115 -224l115 -223z" />
    <glyph glyph-name="grave" unicode="`" horiz-adv-x="288" 
d="M15 678l53 96l200 -124l-44 -79z" />
    <glyph glyph-name="dieresis" unicode="&#xa8;" horiz-adv-x="310" 
d="M21 669q0 26 17 43t43 17t43 -17t17 -43q0 -25 -17 -42t-43 -17t-43 17t-17 42zM170 669q0 26 17 43t43 17t42.5 -17t16.5 -43q0 -25 -16.5 -42t-42.5 -17t-43 17t-17 42z" />
    <glyph glyph-name="acute" unicode="&#xb4;" horiz-adv-x="288" 
d="M15 650l200 124l53 -96l-209 -107z" />
    <glyph glyph-name="cedilla" unicode="&#xb8;" horiz-adv-x="217" 
d="M173 10l-27 -33q18 -10 34 -29.5t16 -51.5q0 -43 -31.5 -68t-74.5 -25h-69v90q27 0 42 9t15 27q0 12 -9 21.5t-23 12.5l39 47h88z" />
    <glyph glyph-name="circumflex" unicode="&#x2c6;" horiz-adv-x="369" 
d="M21 630l118 124h91l118 -124l-52 -56l-111 86l-112 -86z" />
    <glyph glyph-name="caron" unicode="&#x2c7;" horiz-adv-x="369" 
d="M185 668l111 86l52 -56l-118 -124h-91l-118 124l52 56z" />
    <glyph glyph-name="breve" unicode="&#x2d8;" horiz-adv-x="330" 
d="M165 677q21 0 32.5 13.5t11.5 31.5h100q0 -26 -7.5 -52t-25 -47t-45 -34t-66.5 -13t-66.5 13t-45 34t-25 47t-7.5 52h100q0 -18 11.5 -31.5t32.5 -13.5z" />
    <glyph glyph-name="dotaccent" unicode="&#x2d9;" horiz-adv-x="187" 
d="M21 666q0 29 20.5 50t52.5 21q31 0 51.5 -21t20.5 -50q0 -30 -20.5 -50.5t-51.5 -20.5q-32 0 -52.5 20.5t-20.5 50.5z" />
    <glyph glyph-name="ring" unicode="&#x2da;" horiz-adv-x="270" 
d="M21 671q0 51 31.5 82.5t82.5 31.5q52 0 83 -31.5t31 -82.5q0 -52 -31 -83.5t-83 -31.5q-51 0 -82.5 31.5t-31.5 83.5zM102 671q0 -34 33 -34q34 0 34 34q0 33 -34 33q-33 0 -33 -33z" />
    <glyph glyph-name="ogonek" unicode="&#x2db;" horiz-adv-x="212" 
d="M96 10h94q-21 -14 -33.5 -34t-11.5 -37q2 -34 46 -34v-90h-75q-42 0 -68.5 22.5t-26.5 57.5q0 30 19.5 62t55.5 53z" />
    <glyph glyph-name="hungarumlaut" unicode="&#x2dd;" horiz-adv-x="339" 
d="M69 747h106l-55 -166h-99zM212 747h106l-55 -166h-99z" />
    <glyph glyph-name="uni0326" unicode="&#x326;" horiz-adv-x="234" 
d="M190 -29l-55 -169h-91l24 169h122z" />
    <glyph glyph-name="exclam.alt" horiz-adv-x="273" 
d="M56 670h161l-13 -472h-135zM63 129h147v-129h-147v129z" />
    <glyph glyph-name="period.alt" horiz-adv-x="239" 
d="M52 135h135v-135h-135v135z" />
    <glyph glyph-name="colon.alt" horiz-adv-x="239" 
d="M52 520h135v-135h-135v135zM52 135h135v-135h-135v135z" />
    <glyph glyph-name="semicolon.alt" horiz-adv-x="261" 
d="M63 385v135h135v-135h-135zM80 109h132l-59 -236h-104z" />
    <glyph glyph-name="question.alt" horiz-adv-x="546" 
d="M193 316l85 40q44 21 60.5 42.5t16.5 54.5q0 81 -82 81q-36 0 -57.5 -22t-26.5 -61h-154q11 229 244 229q112 0 172 -52.5t60 -152.5q0 -79 -50.5 -138.5t-158.5 -108.5l-109 -50v138zM193 0v135h135v-135h-135z" />
    <glyph glyph-name="i.alt" horiz-adv-x="261" 
d="M53 598v135h155v-135h-155zM56 528h149v-528h-149v528z" />
    <glyph glyph-name="j.alt" horiz-adv-x="294" 
d="M86 598v135h155v-135h-155zM238 -35q0 -85 -42.5 -128t-134.5 -43q-18 0 -37.5 2t-41.5 5v133q13 -2 24 -3t20 -1q39 0 51 17.5t12 59.5v521h149v-563z" />
    <glyph glyph-name="dieresis.alt" horiz-adv-x="300" 
d="M21 616v108h106v-108h-106zM173 616v108h106v-108h-106z" />
    <glyph glyph-name="periodcentered.alt" horiz-adv-x="231" 
d="M52 276v135h135v-135h-135z" />
    <glyph glyph-name="divide.alt" horiz-adv-x="517" 
d="M191 393v135h135v-135h-135zM38 335h441v-108h-441v108zM191 35v135h135v-135h-135z" />
    <glyph glyph-name="ordfeminine" unicode="&#xaa;" horiz-adv-x="503" 
d="M451 278h-130v40q-15 -23 -39.5 -35t-61.5 -12q-41 0 -75 15t-58 42t-37.5 64t-13.5 82t13.5 82t38 64t58.5 42t75 15q36 0 60.5 -12.5t39.5 -34.5v40h130v-392zM321 484q-3 29 -24 47.5t-52 18.5q-35 0 -55.5 -22.5t-20.5 -54.5t21 -53.5t55 -21.5q32 0 53 19t23 48v19z
" />
    <glyph glyph-name="onesuperior" unicode="&#xb9;" horiz-adv-x="268" 
d="M93 655h-58v95h170v-402h-112v307z" />
    <glyph glyph-name="ordmasculine" unicode="&#xba;" horiz-adv-x="490" 
d="M36 477q0 45 15.5 82.5t43 65t65.5 42.5t84 15t84.5 -15.5t66.5 -42.5t44 -64.5t16 -82.5t-16 -83t-44 -65t-66.5 -42.5t-84.5 -15.5t-84 15t-65.5 42.5t-43 65.5t-15.5 83zM169 476q0 -33 21.5 -55.5t55.5 -22.5q32 0 54 22.5t22 55.5t-21.5 56.5t-54.5 23.5
q-35 0 -56 -23.5t-21 -56.5z" />
    <glyph glyph-name="onequarter" unicode="&#xbc;" horiz-adv-x="857" 
d="M475 710h116l-304 -750h-116zM93 575h-58v95h170v-402h-112v307zM651 402h120v-242h50v-85h-50v-75h-112v75h-201v85zM571 160h88v112z" />
    <glyph glyph-name="onehalf" unicode="&#xbd;" horiz-adv-x="867" 
d="M474 710h116l-304 -750h-116zM93 575h-58v95h170v-402h-112v307zM515 100q38 23 73.5 45.5t63 44t44 42t16.5 39.5q0 13 -8.5 24t-29.5 11q-24 0 -33 -15t-9 -35h-118q1 77 39 116.5t120 39.5q77 0 117 -33.5t40 -91.5q0 -54 -33 -97.5t-99 -89.5h133v-96h-316v96z" />
    <glyph glyph-name="threequarters" unicode="&#xbe;" horiz-adv-x="995" 
d="M614 710h116l-304 -750h-116zM257 406q0 32 -55 32h-59v72h65q40 0 40 31q0 15 -12 24t-32 9q-23 0 -34.5 -10t-11.5 -26h-119q9 142 161 142q78 0 121.5 -30.5t43.5 -87.5q0 -74 -69 -89q37 -5 57.5 -28t20.5 -61q0 -56 -44.5 -87t-127.5 -31q-78 0 -120.5 36t-46.5 106
h118q1 -15 14 -25.5t39 -10.5q24 0 37.5 9t13.5 25zM789 402h120v-242h50v-85h-50v-75h-112v75h-201v85zM709 160h88v112z" />
    <glyph glyph-name="zero.dnom" horiz-adv-x="444" 
d="M222 -10q-90 0 -138.5 53.5t-48.5 153.5t48.5 153.5t138.5 53.5t138.5 -53.5t48.5 -153.5t-48.5 -153.5t-138.5 -53.5zM222 96q34 0 52 26.5t18 74.5t-18 74.5t-52 26.5t-52 -26.5t-18 -74.5t18 -74.5t52 -26.5z" />
    <glyph glyph-name="one.dnom" horiz-adv-x="268" 
d="M93 307h-58v95h170v-402h-112v307z" />
    <glyph glyph-name="two.dnom" horiz-adv-x="389" 
d="M37 96q38 23 73.5 45.5t63 44t44 42t16.5 39.5q0 13 -8.5 24t-29.5 11q-24 0 -33 -15t-9 -35h-118q1 77 39 116.5t120 39.5q77 0 117 -33.5t40 -91.5q0 -54 -33 -97.5t-99 -89.5h133v-96h-316v96z" />
    <glyph glyph-name="three.dnom" horiz-adv-x="410" 
d="M257 130q0 32 -55 32h-59v72h65q40 0 40 31q0 15 -12 24t-32 9q-23 0 -34.5 -10t-11.5 -26h-119q9 142 161 142q78 0 121.5 -30.5t43.5 -87.5q0 -74 -69 -89q37 -5 57.5 -28t20.5 -61q0 -56 -44.5 -87t-127.5 -31q-78 0 -120.5 36t-46.5 106h118q1 -15 14 -25.5t39 -10.5
q24 0 37.5 9t13.5 25z" />
    <glyph glyph-name="four.dnom" horiz-adv-x="422" 
d="M216 402h120v-242h50v-85h-50v-75h-112v75h-201v85zM136 160h88v112z" />
    <glyph glyph-name="five.dnom" horiz-adv-x="399" 
d="M145 120q6 -34 55 -34q23 0 37 11.5t14 31.5q0 22 -14.5 34t-39.5 12q-20 0 -36 -6t-27 -17h-94l31 246h264v-95h-180l-9 -65q11 7 32 11.5t47 4.5q66 0 102 -34t36 -95q0 -66 -41.5 -100.5t-119.5 -34.5q-79 0 -121 33.5t-46 96.5h110z" />
    <glyph glyph-name="six.dnom" horiz-adv-x="406" 
d="M35 234q0 80 39.5 125t128.5 45q147 0 158 -124h-110q-3 29 -46 29q-20 0 -31.5 -6.5t-17.5 -17t-7.5 -25t-1.5 -31.5q14 11 35 18t47 7q64 0 102.5 -34t38.5 -91q0 -30 -11.5 -55.5t-32.5 -44t-50.5 -29t-65.5 -10.5q-83 0 -129 41t-46 110v93zM202 91q26 0 41 10.5
t15 30.5q0 19 -15 29.5t-41 10.5t-41 -10.5t-15 -29.5q0 -20 15 -30.5t41 -10.5z" />
    <glyph glyph-name="seven.dnom" horiz-adv-x="344" 
d="M204 307h-181v95h298v-95l-118 -307h-120z" />
    <glyph glyph-name="eight.dnom" horiz-adv-x="419" 
d="M35 109q0 37 20 60.5t48 36.5q-21 11 -36.5 32.5t-15.5 53.5q0 51 43 81.5t115 30.5t115 -30.5t43 -81.5q0 -32 -15.5 -53.5t-37.5 -32.5q29 -13 49 -36.5t20 -60.5q0 -57 -45.5 -88t-128.5 -31t-128.5 31t-45.5 88zM209 312q-23 0 -35 -11.5t-12 -28.5q0 -18 13 -29
t34 -11q22 0 35 11t13 29q0 17 -12 28.5t-36 11.5zM209 166q-25 0 -43.5 -10t-18.5 -32q0 -41 62 -41q63 0 63 41q0 22 -19 32t-44 10z" />
    <glyph glyph-name="nine.dnom" horiz-adv-x="406" 
d="M370 160q0 -80 -39.5 -125t-128.5 -45q-147 0 -159 125h111q3 -29 46 -29q20 0 31.5 6t17.5 17t7.5 25.5t1.5 30.5q-14 -11 -35 -18t-47 -7q-64 0 -102.5 34t-38.5 91q0 30 11.5 55.5t32.5 44t50.5 29t65.5 10.5q82 0 128.5 -41t46.5 -110v-93zM203 303q-26 0 -41 -10.5
t-15 -30.5q0 -19 15 -29.5t41 -10.5t41 10.5t15 29.5q0 20 -15 30.5t-41 10.5z" />
    <glyph glyph-name="zero.tnum" horiz-adv-x="600" 
d="M300 -10q-66 0 -118 23.5t-87.5 67.5t-54 108t-18.5 146q0 164 72.5 254.5t205.5 90.5t205.5 -90.5t72.5 -254.5q0 -82 -18.5 -146t-54 -108t-87.5 -67.5t-118 -23.5zM300 138q58 0 87 51.5t29 145.5t-29 145.5t-87 51.5q-57 0 -86.5 -51.5t-29.5 -145.5t29.5 -145.5
t86.5 -51.5z" />
    <glyph glyph-name="one.tnum" horiz-adv-x="600" 
d="M94 132h134v406h-129v132h283v-538h124v-132h-412v132z" />
    <glyph glyph-name="two.tnum" horiz-adv-x="600" 
d="M48 134q69 46 131 88t109 81t74.5 76t27.5 73q0 35 -21 57.5t-67 22.5q-47 0 -68 -26.5t-23 -68.5h-162q3 120 64 181.5t188 61.5q121 0 186 -56t65 -153q0 -48 -17.5 -90.5t-50 -83t-79.5 -80.5t-106 -83h256v-134h-507v134z" />
    <glyph glyph-name="three.tnum" horiz-adv-x="600" 
d="M411 210q0 73 -116 73h-90v105h96q48 0 71 18.5t23 53.5t-24.5 53.5t-72.5 18.5q-45 0 -69.5 -20.5t-26.5 -58.5h-163q14 227 256 227q125 0 193.5 -50.5t68.5 -144.5q0 -59 -29 -97.5t-86 -52.5q64 -11 97.5 -49t33.5 -102q0 -93 -70.5 -143.5t-204.5 -50.5
q-127 0 -195 57t-76 170h163q2 -38 30 -59.5t82 -21.5q109 0 109 74z" />
    <glyph glyph-name="four.tnum" horiz-adv-x="600" 
d="M322 670h166v-412h90v-122h-90v-136h-154v136h-312v122zM161 258h173v231z" />
    <glyph glyph-name="five.tnum" horiz-adv-x="600" 
d="M191 200q6 -37 34 -56.5t76 -19.5q50 0 78.5 25t28.5 68q0 44 -29.5 69t-77.5 25q-40 0 -71 -11.5t-51 -28.5h-133l52 399h421v-134h-303l-20 -142q20 11 56.5 20.5t84.5 9.5q107 0 167 -55.5t60 -155.5q0 -108 -67.5 -165.5t-192.5 -57.5t-192 54t-75 156h154z" />
    <glyph glyph-name="six.tnum" horiz-adv-x="600" 
d="M32 389q0 142 64.5 216.5t207.5 74.5q114 0 177.5 -50.5t72.5 -148.5h-153q-8 65 -95 65q-40 0 -64 -12.5t-36.5 -34.5t-16 -51.5t-3.5 -64.5q25 20 63 33.5t85 13.5q54 0 97.5 -15t74 -43t47 -67t16.5 -87q0 -50 -19 -92t-53.5 -72t-82 -47t-104.5 -17
q-64 0 -115.5 16.5t-87.5 48.5t-55.5 78t-19.5 104v152zM299 130q52 0 83 25t31 68q0 42 -30.5 67t-83.5 25t-83.5 -25t-30.5 -67q0 -45 30.5 -69t83.5 -24z" />
    <glyph glyph-name="seven.tnum" horiz-adv-x="600" 
d="M379 536h-318v134h479v-134l-208 -536h-165z" />
    <glyph glyph-name="eight.tnum" horiz-adv-x="600" 
d="M20 186q0 60 34 99.5t86 61.5q-41 20 -68 56.5t-27 89.5q0 43 18 77.5t51.5 59t81 37.5t105.5 13q59 0 106 -13t80 -37.5t51 -59t18 -77.5q0 -53 -28 -89.5t-70 -56.5q54 -22 88.5 -61.5t34.5 -99.5q0 -93 -73.5 -144.5t-206.5 -51.5q-134 0 -207.5 51.5t-73.5 144.5z
M301 551q-50 0 -75.5 -22t-25.5 -59q0 -38 27.5 -60t73.5 -22t73 22t27 60q0 36 -25 58.5t-75 22.5zM301 289q-53 0 -89 -21t-36 -64q0 -42 32 -63.5t93 -21.5t93 21.5t32 63.5q0 43 -36 64t-89 21z" />
    <glyph glyph-name="nine.tnum" horiz-adv-x="600" 
d="M569 281q0 -142 -64.5 -216.5t-208.5 -74.5q-114 0 -177 50.5t-72 148.5h153q8 -65 94 -65q41 0 64.5 12.5t36.5 34.5t16.5 52t3.5 64q-25 -20 -63 -33.5t-85 -13.5q-54 0 -97.5 15t-74 43t-47 67t-16.5 87q0 50 19 92t53.5 72t81.5 47t104 17q64 0 115.5 -16.5t88 -48.5
t56 -77.5t19.5 -104.5v-152zM302 540q-53 0 -83.5 -25t-30.5 -68q0 -42 30.5 -67t83.5 -25t83.5 25t30.5 67q0 45 -31 69t-83 24z" />
    <glyph glyph-name="Agrave" unicode="&#xc0;" horiz-adv-x="685" 
d="M248 670h189l246 -670h-157l-44 118h-280l-43 -118h-157zM439 240l-96 263l-97 -263h193zM216 820l53 96l200 -124l-44 -79z" />
    <glyph glyph-name="Aacute" unicode="&#xc1;" horiz-adv-x="685" 
d="M248 670h189l246 -670h-157l-44 118h-280l-43 -118h-157zM439 240l-96 263l-97 -263h193zM216 792l200 124l53 -96l-209 -107z" />
    <glyph glyph-name="Acircumflex" unicode="&#xc2;" horiz-adv-x="685" 
d="M248 670h189l246 -670h-157l-44 118h-280l-43 -118h-157zM439 240l-96 263l-97 -263h193zM179 772l118 124h91l118 -124l-52 -56l-111 86l-112 -86z" />
    <glyph glyph-name="Atilde" unicode="&#xc3;" horiz-adv-x="685" 
d="M248 670h189l246 -670h-157l-44 118h-280l-43 -118h-157zM439 240l-96 263l-97 -263h193zM351 849q11 -5 21 -10.5t23 -5.5t28.5 8t35.5 29l29 -86q-29 -26 -50.5 -36t-41.5 -10q-15 0 -29.5 5.5t-31.5 13.5q-10 5 -20.5 10.5t-23.5 5.5t-28.5 -8t-35.5 -29l-29 86
q29 26 50.5 36t41.5 10q15 0 29.5 -5.5t31.5 -13.5z" />
    <glyph glyph-name="Adieresis" unicode="&#xc4;" horiz-adv-x="685" 
d="M248 670h189l246 -670h-157l-44 118h-280l-43 -118h-157zM439 240l-96 263l-97 -263h193zM209 811q0 26 17 43t43 17t43 -17t17 -43q0 -25 -17 -42t-43 -17t-43 17t-17 42zM358 811q0 26 17 43t43 17t42.5 -17t16.5 -43q0 -25 -16.5 -42t-42.5 -17t-43 17t-17 42z" />
    <glyph glyph-name="Aring" unicode="&#xc5;" horiz-adv-x="685" 
d="M248 670h189l246 -670h-157l-44 118h-280l-43 -118h-157zM439 240l-96 263l-97 -263h193zM229 813q0 51 31.5 82.5t82.5 31.5q52 0 83 -31.5t31 -82.5q0 -52 -31 -83.5t-83 -31.5q-51 0 -82.5 31.5t-31.5 83.5zM310 813q0 -34 33 -34q34 0 34 34q0 33 -34 33
q-33 0 -33 -33z" />
    <glyph glyph-name="AE" unicode="&#xc6;" horiz-adv-x="897" 
d="M423 102h-201l-53 -102h-167l350 670h503v-137h-278v-133h219v-132h-219v-131h278v-137h-432v102zM423 224v265l-139 -265h139z" />
    <glyph glyph-name="Ccedilla" unicode="&#xc7;" horiz-adv-x="752" 
d="M35 335q0 71 27.5 134t74.5 110t110.5 74t135.5 27q65 0 122 -20t101.5 -56t74.5 -86t41 -110h-171q-17 54 -62 86t-105 32q-39 0 -73 -15t-59.5 -41t-40 -60.5t-14.5 -73.5q0 -40 14.5 -75t40 -61t59.5 -41t73 -15q60 0 105 32t62 86h171q-10 -54 -36 -100.5t-64 -81.5
t-87.5 -57.5t-106.5 -29.5l-13 -16q19 -10 34.5 -29.5t15.5 -51.5q0 -43 -31.5 -68t-74.5 -25h-69v90q27 0 42 9t15 27q0 12 -9 21.5t-23 12.5l25 30q-64 8 -120 37.5t-97 75.5t-64.5 104.5t-23.5 124.5z" />
    <glyph glyph-name="Eth" unicode="&#xd0;" horiz-adv-x="715" 
d="M70 0v276h-58v120h58v274h271q74 0 136.5 -25t107.5 -69.5t70 -106t25 -134.5t-25 -135t-70 -106t-107.5 -69t-136.5 -25h-271zM224 150h117q39 0 72 13.5t56 37.5t36 58t13 76t-13 76t-36 58t-56 37.5t-72 13.5h-117v-124h108v-120h-108v-126z" />
    <glyph glyph-name="Dcroat" unicode="&#x110;" horiz-adv-x="715" 
d="M70 0v276h-58v120h58v274h271q74 0 136.5 -25t107.5 -69.5t70 -106t25 -134.5t-25 -135t-70 -106t-107.5 -69t-136.5 -25h-271zM224 150h117q39 0 72 13.5t56 37.5t36 58t13 76t-13 76t-36 58t-56 37.5t-72 13.5h-117v-124h108v-120h-108v-126z" />
    <glyph glyph-name="Egrave" unicode="&#xc8;" horiz-adv-x="604" 
d="M70 670h492v-137h-338v-133h279v-132h-279v-131h338v-137h-492v670zM176 820l53 96l200 -124l-44 -79z" />
    <glyph glyph-name="Eacute" unicode="&#xc9;" horiz-adv-x="604" 
d="M70 670h492v-137h-338v-133h279v-132h-279v-131h338v-137h-492v670zM176 792l200 124l53 -96l-209 -107z" />
    <glyph glyph-name="Ecircumflex" unicode="&#xca;" horiz-adv-x="604" 
d="M70 670h492v-137h-338v-133h279v-132h-279v-131h338v-137h-492v670zM138 772l118 124h91l118 -124l-52 -56l-111 86l-112 -86z" />
    <glyph glyph-name="Edieresis" unicode="&#xcb;" horiz-adv-x="604" 
d="M70 670h492v-137h-338v-133h279v-132h-279v-131h338v-137h-492v670zM168 811q0 26 17 43t43 17t43 -17t17 -43q0 -25 -17 -42t-43 -17t-43 17t-17 42zM317 811q0 26 17 43t43 17t42.5 -17t16.5 -43q0 -25 -16.5 -42t-42.5 -17t-43 17t-17 42z" />
    <glyph glyph-name="Igrave" unicode="&#xcc;" horiz-adv-x="294" 
d="M70 670h154v-670h-154v670zM21 820l53 96l200 -124l-44 -79z" />
    <glyph glyph-name="Iacute" unicode="&#xcd;" horiz-adv-x="294" 
d="M70 670h154v-670h-154v670zM21 792l200 124l53 -96l-209 -107z" />
    <glyph glyph-name="Icircumflex" unicode="&#xce;" horiz-adv-x="294" 
d="M70 670h154v-670h-154v670zM-17 772l118 124h91l118 -124l-52 -56l-111 86l-112 -86z" />
    <glyph glyph-name="Idieresis" unicode="&#xcf;" horiz-adv-x="294" 
d="M70 670h154v-670h-154v670zM12 811q0 26 17 43t43 17t43 -17t17 -43q0 -25 -17 -42t-43 -17t-43 17t-17 42zM161 811q0 26 17 43t43 17t42.5 -17t16.5 -43q0 -25 -16.5 -42t-42.5 -17t-43 17t-17 42z" />
    <glyph glyph-name="Lslash" unicode="&#x141;" horiz-adv-x="532" 
d="M70 243l-59 -18v120l59 18v307h154v-264l136 40v-120l-136 -40v-146h287v-140h-441v243z" />
    <glyph glyph-name="Ntilde" unicode="&#xd1;" horiz-adv-x="733" 
d="M70 670h194l245 -445v445h154v-670h-193l-246 446v-446h-154v670zM375 849q11 -5 21 -10.5t23 -5.5t28.5 8t35.5 29l29 -86q-29 -26 -50.5 -36t-41.5 -10q-15 0 -29.5 5.5t-31.5 13.5q-10 5 -20.5 10.5t-23.5 5.5t-28.5 -8t-35.5 -29l-29 86q29 26 50.5 36t41.5 10
q15 0 29.5 -5.5t31.5 -13.5z" />
    <glyph glyph-name="Ograve" unicode="&#xd2;" horiz-adv-x="766" 
d="M35 335q0 71 27.5 134t74.5 110t110.5 74t135.5 27t135.5 -27t111 -74t74.5 -110t27 -134q0 -72 -27 -134.5t-74.5 -109.5t-111 -74t-135.5 -27t-135.5 27t-110.5 74t-74.5 109.5t-27.5 134.5zM197 336q0 -40 14.5 -75t40 -61t59 -41t72.5 -15t72.5 15t59 41t40 61
t14.5 75q0 39 -14.5 73.5t-40 60.5t-59.5 41t-72 15t-72 -15t-59.5 -41t-40 -60.5t-14.5 -73.5zM257 820l53 96l200 -124l-44 -79z" />
    <glyph glyph-name="Oacute" unicode="&#xd3;" horiz-adv-x="766" 
d="M35 335q0 71 27.5 134t74.5 110t110.5 74t135.5 27t135.5 -27t111 -74t74.5 -110t27 -134q0 -72 -27 -134.5t-74.5 -109.5t-111 -74t-135.5 -27t-135.5 27t-110.5 74t-74.5 109.5t-27.5 134.5zM197 336q0 -40 14.5 -75t40 -61t59 -41t72.5 -15t72.5 15t59 41t40 61
t14.5 75q0 39 -14.5 73.5t-40 60.5t-59.5 41t-72 15t-72 -15t-59.5 -41t-40 -60.5t-14.5 -73.5zM257 792l200 124l53 -96l-209 -107z" />
    <glyph glyph-name="Ocircumflex" unicode="&#xd4;" horiz-adv-x="766" 
d="M35 335q0 71 27.5 134t74.5 110t110.5 74t135.5 27t135.5 -27t111 -74t74.5 -110t27 -134q0 -72 -27 -134.5t-74.5 -109.5t-111 -74t-135.5 -27t-135.5 27t-110.5 74t-74.5 109.5t-27.5 134.5zM197 336q0 -40 14.5 -75t40 -61t59 -41t72.5 -15t72.5 15t59 41t40 61
t14.5 75q0 39 -14.5 73.5t-40 60.5t-59.5 41t-72 15t-72 -15t-59.5 -41t-40 -60.5t-14.5 -73.5zM220 772l118 124h91l118 -124l-52 -56l-111 86l-112 -86z" />
    <glyph glyph-name="Otilde" unicode="&#xd5;" horiz-adv-x="766" 
d="M35 335q0 71 27.5 134t74.5 110t110.5 74t135.5 27t135.5 -27t111 -74t74.5 -110t27 -134q0 -72 -27 -134.5t-74.5 -109.5t-111 -74t-135.5 -27t-135.5 27t-110.5 74t-74.5 109.5t-27.5 134.5zM197 336q0 -40 14.5 -75t40 -61t59 -41t72.5 -15t72.5 15t59 41t40 61
t14.5 75q0 39 -14.5 73.5t-40 60.5t-59.5 41t-72 15t-72 -15t-59.5 -41t-40 -60.5t-14.5 -73.5zM391 849q11 -5 21 -10.5t23 -5.5t28.5 8t35.5 29l29 -86q-29 -26 -50.5 -36t-41.5 -10q-15 0 -29.5 5.5t-31.5 13.5q-10 5 -20.5 10.5t-23.5 5.5t-28.5 -8t-35.5 -29l-29 86
q29 26 50.5 36t41.5 10q15 0 29.5 -5.5t31.5 -13.5z" />
    <glyph glyph-name="Odieresis" unicode="&#xd6;" horiz-adv-x="766" 
d="M35 335q0 71 27.5 134t74.5 110t110.5 74t135.5 27t135.5 -27t111 -74t74.5 -110t27 -134q0 -72 -27 -134.5t-74.5 -109.5t-111 -74t-135.5 -27t-135.5 27t-110.5 74t-74.5 109.5t-27.5 134.5zM197 336q0 -40 14.5 -75t40 -61t59 -41t72.5 -15t72.5 15t59 41t40 61
t14.5 75q0 39 -14.5 73.5t-40 60.5t-59.5 41t-72 15t-72 -15t-59.5 -41t-40 -60.5t-14.5 -73.5zM249 811q0 26 17 43t43 17t43 -17t17 -43q0 -25 -17 -42t-43 -17t-43 17t-17 42zM398 811q0 26 17 43t43 17t42.5 -17t16.5 -43q0 -25 -16.5 -42t-42.5 -17t-43 17t-17 42z" />
    <glyph glyph-name="Oslash" unicode="&#xd8;" horiz-adv-x="766" 
d="M35 335q0 71 27.5 134t74.5 110t110.5 74t135.5 27q41 0 78 -9l16 39h116l-32 -79q77 -45 123.5 -123t46.5 -173q0 -72 -27 -134.5t-74.5 -109.5t-111 -74t-135.5 -27q-40 0 -78 9l-16 -39h-116l32 79q-77 45 -123.5 123t-46.5 173zM197 336q0 -45 18.5 -82.5t50.5 -63.5
l135 333q-12 3 -25 3q-37 -1 -69.5 -17t-57 -41.5t-38.5 -59.5t-14 -72zM365 147q12 -3 24 -3q38 2 70.5 17.5t57 41.5t38.5 60t14 73q0 44 -18.5 81.5t-50.5 62.5z" />
    <glyph glyph-name="OE" unicode="&#x152;" horiz-adv-x="885" 
d="M35 335q0 69 27 129.5t73.5 106t109.5 72t134 27.5h464v-137h-278v-133h219v-132h-219v-131h278v-137h-464q-71 0 -134 26.5t-109.5 72t-73.5 106.5t-27 130zM411 516h-32q-37 -1 -70.5 -15.5t-58 -39t-39 -57t-14.5 -68.5q0 -37 14 -70t39 -57.5t58 -39t71 -15.5h32v362
z" />
    <glyph glyph-name="Scaron" unicode="&#x160;" horiz-adv-x="645" 
d="M57 472q0 100 68.5 154t195.5 54q131 0 198 -58.5t69 -161.5h-158q0 42 -27 67t-87 25q-49 0 -76 -18.5t-27 -52.5q0 -21 11 -35.5t29.5 -24.5t43 -16.5t51.5 -12.5q42 -9 87 -19.5t82.5 -31t61.5 -55.5t24 -93q0 -92 -67.5 -147.5t-207.5 -55.5q-143 0 -214.5 59
t-71.5 160h158q8 -92 129 -92q54 0 83.5 18t29.5 50q0 22 -11.5 36t-31.5 23t-46.5 15t-55.5 11q-41 8 -83.5 18t-77.5 31.5t-57 57.5t-22 95zM323 810l111 86l52 -56l-118 -124h-91l-118 124l52 56z" />
    <glyph glyph-name="Ugrave" unicode="&#xd9;" horiz-adv-x="702" 
d="M352 -10q-140 0 -216 71t-76 204v405h154v-392q0 -67 36.5 -104.5t101.5 -37.5q64 0 100 37.5t36 104.5v392h154v-405q0 -133 -75 -204t-215 -71zM225 820l53 96l200 -124l-44 -79z" />
    <glyph glyph-name="Uacute" unicode="&#xda;" horiz-adv-x="702" 
d="M352 -10q-140 0 -216 71t-76 204v405h154v-392q0 -67 36.5 -104.5t101.5 -37.5q64 0 100 37.5t36 104.5v392h154v-405q0 -133 -75 -204t-215 -71zM225 792l200 124l53 -96l-209 -107z" />
    <glyph glyph-name="Ucircumflex" unicode="&#xdb;" horiz-adv-x="702" 
d="M352 -10q-140 0 -216 71t-76 204v405h154v-392q0 -67 36.5 -104.5t101.5 -37.5q64 0 100 37.5t36 104.5v392h154v-405q0 -133 -75 -204t-215 -71zM188 772l118 124h91l118 -124l-52 -56l-111 86l-112 -86z" />
    <glyph glyph-name="Udieresis" unicode="&#xdc;" horiz-adv-x="702" 
d="M352 -10q-140 0 -216 71t-76 204v405h154v-392q0 -67 36.5 -104.5t101.5 -37.5q64 0 100 37.5t36 104.5v392h154v-405q0 -133 -75 -204t-215 -71zM217 811q0 26 17 43t43 17t43 -17t17 -43q0 -25 -17 -42t-43 -17t-43 17t-17 42zM366 811q0 26 17 43t43 17t42.5 -17
t16.5 -43q0 -25 -16.5 -42t-42.5 -17t-43 17t-17 42z" />
    <glyph glyph-name="Ydieresis" unicode="&#x178;" horiz-adv-x="661" 
d="M183 670l148 -287l148 287h181l-252 -457v-213h-154v213l-252 457h181zM197 811q0 26 17 43t43 17t43 -17t17 -43q0 -25 -17 -42t-43 -17t-43 17t-17 42zM346 811q0 26 17 43t43 17t42.5 -17t16.5 -43q0 -25 -16.5 -42t-42.5 -17t-43 17t-17 42z" />
    <glyph glyph-name="Yacute" unicode="&#xdd;" horiz-adv-x="661" 
d="M183 670l148 -287l148 287h181l-252 -457v-213h-154v213l-252 457h181zM204 792l200 124l53 -96l-209 -107z" />
    <glyph glyph-name="Zcaron" unicode="&#x17d;" horiz-adv-x="594" 
d="M233 134h319v-134h-510v134l320 402h-320v134h510v-134zM298 810l111 86l52 -56l-118 -124h-91l-118 124l52 56z" />
    <glyph glyph-name="agrave" unicode="&#xe0;" horiz-adv-x="637" 
d="M581 0h-149v62q-23 -33 -59.5 -52t-92.5 -19t-102.5 20.5t-79.5 56.5t-51.5 86t-18.5 109q0 60 18.5 110t52 87t80 57.5t101.5 20.5q56 0 92.5 -19.5t59.5 -53.5v63h149v-528zM432 282q-5 46 -39 77.5t-86 31.5q-29 0 -52 -10t-39.5 -27.5t-25 -41t-8.5 -49.5
q0 -25 9 -48t25 -40t39.5 -27t51.5 -10q26 0 47.5 8.5t38 22.5t26.5 34t13 42v37zM192 678l53 96l200 -124l-44 -79z" />
    <glyph glyph-name="aacute" unicode="&#xe1;" horiz-adv-x="637" 
d="M581 0h-149v62q-23 -33 -59.5 -52t-92.5 -19t-102.5 20.5t-79.5 56.5t-51.5 86t-18.5 109q0 60 18.5 110t52 87t80 57.5t101.5 20.5q56 0 92.5 -19.5t59.5 -53.5v63h149v-528zM432 282q-5 46 -39 77.5t-86 31.5q-29 0 -52 -10t-39.5 -27.5t-25 -41t-8.5 -49.5
q0 -25 9 -48t25 -40t39.5 -27t51.5 -10q26 0 47.5 8.5t38 22.5t26.5 34t13 42v37zM192 650l200 124l53 -96l-209 -107z" />
    <glyph glyph-name="acircumflex" unicode="&#xe2;" horiz-adv-x="637" 
d="M581 0h-149v62q-23 -33 -59.5 -52t-92.5 -19t-102.5 20.5t-79.5 56.5t-51.5 86t-18.5 109q0 60 18.5 110t52 87t80 57.5t101.5 20.5q56 0 92.5 -19.5t59.5 -53.5v63h149v-528zM432 282q-5 46 -39 77.5t-86 31.5q-29 0 -52 -10t-39.5 -27.5t-25 -41t-8.5 -49.5
q0 -25 9 -48t25 -40t39.5 -27t51.5 -10q26 0 47.5 8.5t38 22.5t26.5 34t13 42v37zM155 630l118 124h91l118 -124l-52 -56l-111 86l-112 -86z" />
    <glyph glyph-name="atilde" unicode="&#xe3;" horiz-adv-x="637" 
d="M581 0h-149v62q-23 -33 -59.5 -52t-92.5 -19t-102.5 20.5t-79.5 56.5t-51.5 86t-18.5 109q0 60 18.5 110t52 87t80 57.5t101.5 20.5q56 0 92.5 -19.5t59.5 -53.5v63h149v-528zM432 282q-5 46 -39 77.5t-86 31.5q-29 0 -52 -10t-39.5 -27.5t-25 -41t-8.5 -49.5
q0 -25 9 -48t25 -40t39.5 -27t51.5 -10q26 0 47.5 8.5t38 22.5t26.5 34t13 42v37zM326 707q11 -5 21 -10.5t23 -5.5t28.5 8t35.5 29l29 -86q-29 -26 -50.5 -36t-41.5 -10q-15 0 -29.5 5.5t-31.5 13.5q-10 5 -20.5 10.5t-23.5 5.5t-28.5 -8t-35.5 -29l-29 86q29 26 50.5 36
t41.5 10q15 0 29.5 -5.5t31.5 -13.5z" />
    <glyph glyph-name="adieresis" unicode="&#xe4;" horiz-adv-x="637" 
d="M581 0h-149v62q-23 -33 -59.5 -52t-92.5 -19t-102.5 20.5t-79.5 56.5t-51.5 86t-18.5 109q0 60 18.5 110t52 87t80 57.5t101.5 20.5q56 0 92.5 -19.5t59.5 -53.5v63h149v-528zM432 282q-5 46 -39 77.5t-86 31.5q-29 0 -52 -10t-39.5 -27.5t-25 -41t-8.5 -49.5
q0 -25 9 -48t25 -40t39.5 -27t51.5 -10q26 0 47.5 8.5t38 22.5t26.5 34t13 42v37zM185 669q0 26 17 43t43 17t43 -17t17 -43q0 -25 -17 -42t-43 -17t-43 17t-17 42zM334 669q0 26 17 43t43 17t42.5 -17t16.5 -43q0 -25 -16.5 -42t-42.5 -17t-43 17t-17 42z" />
    <glyph glyph-name="aring" unicode="&#xe5;" horiz-adv-x="637" 
d="M581 0h-149v62q-23 -33 -59.5 -52t-92.5 -19t-102.5 20.5t-79.5 56.5t-51.5 86t-18.5 109q0 60 18.5 110t52 87t80 57.5t101.5 20.5q56 0 92.5 -19.5t59.5 -53.5v63h149v-528zM432 282q-5 46 -39 77.5t-86 31.5q-29 0 -52 -10t-39.5 -27.5t-25 -41t-8.5 -49.5
q0 -25 9 -48t25 -40t39.5 -27t51.5 -10q26 0 47.5 8.5t38 22.5t26.5 34t13 42v37zM205 671q0 51 31.5 82.5t82.5 31.5q52 0 83 -31.5t31 -82.5q0 -52 -31 -83.5t-83 -31.5q-51 0 -82.5 31.5t-31.5 83.5zM286 671q0 -34 33 -34q34 0 34 34q0 33 -34 33q-33 0 -33 -33z" />
    <glyph glyph-name="ae" unicode="&#xe6;" horiz-adv-x="1011" 
d="M581 0h-149v62q-23 -33 -59.5 -52t-92.5 -19t-102.5 20.5t-79.5 56.5t-51.5 86t-18.5 109q0 60 18.5 110t52 87t80 57.5t101.5 20.5q56 0 92.5 -19.5t59.5 -53.5v63h149v-27q26 17 58 27t68 10q56 0 103.5 -16.5t83.5 -47t58.5 -73t28.5 -93.5q2 -23 2 -40t-1 -37h-396
q8 -47 40.5 -76.5t84.5 -29.5q32 0 59.5 16t40.5 39h162q-10 -43 -33.5 -78t-58 -59.5t-78 -38t-94.5 -13.5q-36 0 -68.5 10t-59.5 28v-29zM822 313q-6 40 -37.5 65.5t-76.5 25.5q-46 0 -76.5 -25t-41.5 -66h232zM432 282q-5 46 -39 77.5t-86 31.5q-29 0 -52 -10
t-39.5 -27.5t-25 -41t-8.5 -49.5q0 -25 9 -48t25 -40t39.5 -27t51.5 -10q26 0 47.5 8.5t38 22.5t26.5 34t13 42v37z" />
    <glyph glyph-name="ccedilla" unicode="&#xe7;" horiz-adv-x="603" 
d="M28 264q0 59 21 109.5t57.5 87t87 57t110.5 20.5q54 0 101 -16.5t82.5 -46.5t58.5 -72t29 -92h-159q-11 35 -40 57.5t-70 22.5q-28 0 -50.5 -10t-39 -27.5t-25.5 -41t-9 -49.5q0 -25 9 -48t25.5 -40t39.5 -27t50 -10q41 0 70 21.5t40 54.5h159q-6 -43 -24.5 -80.5
t-47.5 -66t-67 -47t-83 -25.5l-14 -18q18 -10 34 -29.5t16 -51.5q0 -43 -31.5 -68t-74.5 -25h-69v90q27 0 42 9t15 27q0 12 -9 21.5t-23 12.5l25 31q-52 6 -95 29t-74.5 58.5t-49 82t-17.5 100.5z" />
    <glyph glyph-name="dcroat" unicode="&#x111;" horiz-adv-x="636" 
d="M28 263q0 60 18.5 110t52 87t80 57.5t101.5 20.5t91.5 -19.5t59.5 -52.5v106h-86v94h86v54h149v-54h51v-94h-51v-572h-149v62q-23 -33 -59.5 -52t-91.5 -19q-56 0 -102.5 20.5t-79.5 56.5t-51.5 86t-18.5 109zM431 285q-6 47 -40.5 76.5t-83.5 29.5q-29 0 -52 -10
t-39.5 -27.5t-25 -41t-8.5 -49.5q0 -25 9 -48t25 -40t39.5 -27t51.5 -10q51 0 85 30t39 75v42z" />
    <glyph glyph-name="egrave" unicode="&#xe8;" horiz-adv-x="606" 
d="M181 231q8 -47 41 -76.5t85 -29.5q32 0 59 16t41 39h161q-10 -43 -33.5 -78t-58 -59.5t-78 -38t-94.5 -13.5q-60 0 -110.5 20.5t-87 57t-57.5 86.5t-21 109t20.5 109.5t57 87t86.5 57t110 20.5q56 0 103.5 -16.5t83.5 -47t58.5 -73t28.5 -93.5q2 -23 2.5 -40t-0.5 -37
h-397zM418 313q-7 40 -38 65.5t-76 25.5q-47 0 -77 -25t-41 -66h232zM177 678l53 96l200 -124l-44 -79z" />
    <glyph glyph-name="eacute" unicode="&#xe9;" horiz-adv-x="606" 
d="M181 231q8 -47 41 -76.5t85 -29.5q32 0 59 16t41 39h161q-10 -43 -33.5 -78t-58 -59.5t-78 -38t-94.5 -13.5q-60 0 -110.5 20.5t-87 57t-57.5 86.5t-21 109t20.5 109.5t57 87t86.5 57t110 20.5q56 0 103.5 -16.5t83.5 -47t58.5 -73t28.5 -93.5q2 -23 2.5 -40t-0.5 -37
h-397zM418 313q-7 40 -38 65.5t-76 25.5q-47 0 -77 -25t-41 -66h232zM177 650l200 124l53 -96l-209 -107z" />
    <glyph glyph-name="ecircumflex" unicode="&#xea;" horiz-adv-x="606" 
d="M181 231q8 -47 41 -76.5t85 -29.5q32 0 59 16t41 39h161q-10 -43 -33.5 -78t-58 -59.5t-78 -38t-94.5 -13.5q-60 0 -110.5 20.5t-87 57t-57.5 86.5t-21 109t20.5 109.5t57 87t86.5 57t110 20.5q56 0 103.5 -16.5t83.5 -47t58.5 -73t28.5 -93.5q2 -23 2.5 -40t-0.5 -37
h-397zM418 313q-7 40 -38 65.5t-76 25.5q-47 0 -77 -25t-41 -66h232zM139 630l118 124h91l118 -124l-52 -56l-111 86l-112 -86z" />
    <glyph glyph-name="edieresis" unicode="&#xeb;" horiz-adv-x="606" 
d="M181 231q8 -47 41 -76.5t85 -29.5q32 0 59 16t41 39h161q-10 -43 -33.5 -78t-58 -59.5t-78 -38t-94.5 -13.5q-60 0 -110.5 20.5t-87 57t-57.5 86.5t-21 109t20.5 109.5t57 87t86.5 57t110 20.5q56 0 103.5 -16.5t83.5 -47t58.5 -73t28.5 -93.5q2 -23 2.5 -40t-0.5 -37
h-397zM418 313q-7 40 -38 65.5t-76 25.5q-47 0 -77 -25t-41 -66h232zM169 669q0 26 17 43t43 17t43 -17t17 -43q0 -25 -17 -42t-43 -17t-43 17t-17 42zM318 669q0 26 17 43t43 17t42.5 -17t16.5 -43q0 -25 -16.5 -42t-42.5 -17t-43 17t-17 42z" />
    <glyph glyph-name="uni021B" unicode="&#x21b;" horiz-adv-x="413" 
d="M259 678v-150h120v-120h-120v-211q0 -40 19.5 -54.5t54.5 -14.5q10 0 21.5 1t24.5 3v-135q-46 -6 -86 -6q-91 0 -137 38.5t-46 129.5v249h-85v120h85v150h149zM309 -29l-55 -169h-91l24 169h122z" />
    <glyph glyph-name="igrave" unicode="&#xec;" horiz-adv-x="261" 
d="M56 528h149v-528h-149v528zM4 678l53 96l200 -124l-44 -79z" />
    <glyph glyph-name="iacute" unicode="&#xed;" horiz-adv-x="261" 
d="M56 528h149v-528h-149v528zM4 650l200 124l53 -96l-209 -107z" />
    <glyph glyph-name="icircumflex" unicode="&#xee;" horiz-adv-x="261" 
d="M56 528h149v-528h-149v528zM-33 630l118 124h91l118 -124l-52 -56l-111 86l-112 -86z" />
    <glyph glyph-name="idieresis" unicode="&#xef;" horiz-adv-x="261" 
d="M56 528h149v-528h-149v528zM-4 669q0 26 17 43t43 17t43 -17t17 -43q0 -25 -17 -42t-43 -17t-43 17t-17 42zM145 669q0 26 17 43t43 17t42.5 -17t16.5 -43q0 -25 -16.5 -42t-42.5 -17t-43 17t-17 42z" />
    <glyph glyph-name="lslash" unicode="&#x142;" horiz-adv-x="261" 
d="M56 374v346h149v-271l57 28v-120l-57 -28v-329h-149v254l-57 -28v120z" />
    <glyph glyph-name="ntilde" unicode="&#xf1;" 
d="M56 528h149v-77q29 41 71.5 64t96.5 23q42 0 76 -14.5t57.5 -40t36.5 -61t13 -78.5v-344h-149v292q0 45 -25.5 71.5t-64.5 26.5q-25 0 -45 -10.5t-35 -28t-23 -40t-9 -47.5v-264h-149v528zM314 707q11 -5 21 -10.5t23 -5.5t28.5 8t35.5 29l29 -86q-29 -26 -50.5 -36
t-41.5 -10q-15 0 -29.5 5.5t-31.5 13.5q-10 5 -20.5 10.5t-23.5 5.5t-28.5 -8t-35.5 -29l-29 86q29 26 50.5 36t41.5 10q15 0 29.5 -5.5t31.5 -13.5z" />
    <glyph glyph-name="ograve" unicode="&#xf2;" horiz-adv-x="610" 
d="M28 264q0 59 21 109.5t57.5 87t87 57t110.5 20.5t110.5 -20.5t88 -57.5t58.5 -87t21 -109t-21 -109t-58.5 -86.5t-88 -57t-110.5 -20.5t-110.5 20.5t-87 57t-57.5 86.5t-21 109zM182 263q0 -25 9 -48t25.5 -40t39.5 -27t50 -10t49.5 10t38 27t24.5 40t9 48
q0 26 -8.5 49.5t-24.5 41t-38.5 27.5t-49.5 10q-28 0 -50.5 -10t-39 -27.5t-25.5 -41t-9 -49.5zM179 678l53 96l200 -124l-44 -79z" />
    <glyph glyph-name="oacute" unicode="&#xf3;" horiz-adv-x="610" 
d="M28 264q0 59 21 109.5t57.5 87t87 57t110.5 20.5t110.5 -20.5t88 -57.5t58.5 -87t21 -109t-21 -109t-58.5 -86.5t-88 -57t-110.5 -20.5t-110.5 20.5t-87 57t-57.5 86.5t-21 109zM182 263q0 -25 9 -48t25.5 -40t39.5 -27t50 -10t49.5 10t38 27t24.5 40t9 48
q0 26 -8.5 49.5t-24.5 41t-38.5 27.5t-49.5 10q-28 0 -50.5 -10t-39 -27.5t-25.5 -41t-9 -49.5zM179 650l200 124l53 -96l-209 -107z" />
    <glyph glyph-name="ocircumflex" unicode="&#xf4;" horiz-adv-x="610" 
d="M28 264q0 59 21 109.5t57.5 87t87 57t110.5 20.5t110.5 -20.5t88 -57.5t58.5 -87t21 -109t-21 -109t-58.5 -86.5t-88 -57t-110.5 -20.5t-110.5 20.5t-87 57t-57.5 86.5t-21 109zM182 263q0 -25 9 -48t25.5 -40t39.5 -27t50 -10t49.5 10t38 27t24.5 40t9 48
q0 26 -8.5 49.5t-24.5 41t-38.5 27.5t-49.5 10q-28 0 -50.5 -10t-39 -27.5t-25.5 -41t-9 -49.5zM141 630l118 124h91l118 -124l-52 -56l-111 86l-112 -86z" />
    <glyph glyph-name="otilde" unicode="&#xf5;" horiz-adv-x="610" 
d="M28 264q0 59 21 109.5t57.5 87t87 57t110.5 20.5t110.5 -20.5t88 -57.5t58.5 -87t21 -109t-21 -109t-58.5 -86.5t-88 -57t-110.5 -20.5t-110.5 20.5t-87 57t-57.5 86.5t-21 109zM182 263q0 -25 9 -48t25.5 -40t39.5 -27t50 -10t49.5 10t38 27t24.5 40t9 48
q0 26 -8.5 49.5t-24.5 41t-38.5 27.5t-49.5 10q-28 0 -50.5 -10t-39 -27.5t-25.5 -41t-9 -49.5zM313 707q11 -5 21 -10.5t23 -5.5t28.5 8t35.5 29l29 -86q-29 -26 -50.5 -36t-41.5 -10q-15 0 -29.5 5.5t-31.5 13.5q-10 5 -20.5 10.5t-23.5 5.5t-28.5 -8t-35.5 -29l-29 86
q29 26 50.5 36t41.5 10q15 0 29.5 -5.5t31.5 -13.5z" />
    <glyph glyph-name="odieresis" unicode="&#xf6;" horiz-adv-x="610" 
d="M28 264q0 59 21 109.5t57.5 87t87 57t110.5 20.5t110.5 -20.5t88 -57.5t58.5 -87t21 -109t-21 -109t-58.5 -86.5t-88 -57t-110.5 -20.5t-110.5 20.5t-87 57t-57.5 86.5t-21 109zM182 263q0 -25 9 -48t25.5 -40t39.5 -27t50 -10t49.5 10t38 27t24.5 40t9 48
q0 26 -8.5 49.5t-24.5 41t-38.5 27.5t-49.5 10q-28 0 -50.5 -10t-39 -27.5t-25.5 -41t-9 -49.5zM171 669q0 26 17 43t43 17t43 -17t17 -43q0 -25 -17 -42t-43 -17t-43 17t-17 42zM320 669q0 26 17 43t43 17t42.5 -17t16.5 -43q0 -25 -16.5 -42t-42.5 -17t-43 17t-17 42z" />
    <glyph glyph-name="oslash" unicode="&#xf8;" horiz-adv-x="610" 
d="M28 264q0 59 21 109.5t57.5 87t87 57t110.5 20.5q33 0 67 -8l25 62h86l-36 -90q63 -35 99.5 -97t36.5 -141q0 -59 -21 -109t-58.5 -86.5t-88 -57t-110.5 -20.5q-31 0 -63 6l-25 -63h-86l36 90q-64 34 -101 96.5t-37 143.5zM182 263q0 -28 11.5 -53t31.5 -42l90 222
q-3 0 -6 0.5t-7 0.5q-27 -1 -49 -11.5t-37.5 -28t-24.5 -40t-9 -48.5zM299 140q4 -1 7 -1.5t7 -0.5q26 2 47 12.5t36 27.5t23 39t8 46q0 28 -10 53t-30 42z" />
    <glyph glyph-name="oe" unicode="&#x153;" horiz-adv-x="1006" 
d="M28 264q0 59 21 109.5t57.5 87t87 57t110.5 20.5q61 0 112 -22.5t88 -61.5q35 38 86 60.5t111 22.5q56 0 104 -16.5t84 -47t58.5 -73t27.5 -93.5q2 -23 2.5 -40t-0.5 -37h-396q8 -46 40.5 -76t84.5 -30q32 0 59.5 16t40.5 39h162q-10 -43 -33.5 -78t-58 -59.5t-78 -38
t-94.5 -13.5q-62 0 -113 22.5t-87 61.5q-37 -39 -88 -61t-112 -22q-60 0 -110.5 20.5t-87 57t-57.5 86.5t-21 109zM817 312q-7 40 -38 65.5t-76 25.5q-46 0 -76.5 -25t-41.5 -66h232zM182 263q0 -25 9 -48t25.5 -40t39.5 -27t50 -10t49.5 10t38 27t24.5 40t9 48
q0 26 -8.5 49.5t-24.5 41t-38.5 27.5t-49.5 10q-28 0 -50.5 -10t-39 -27.5t-25.5 -41t-9 -49.5z" />
    <glyph glyph-name="scaron" unicode="&#x161;" horiz-adv-x="538" 
d="M47 371q0 80 57.5 123.5t162.5 43.5q109 0 165.5 -46t58.5 -127h-151q-2 59 -72 59q-73 0 -73 -47q0 -25 23 -37.5t57 -20t74 -14.5t74 -23t57 -45t23 -80q0 -76 -57.5 -120.5t-173.5 -44.5q-120 0 -178.5 46.5t-58.5 126.5h150q5 -60 87 -60q80 0 80 47q0 25 -22.5 36
t-56.5 17.5t-73.5 13.5t-73.5 23t-56.5 46t-22.5 83zM269 668l111 86l52 -56l-118 -124h-91l-118 124l52 56z" />
    <glyph glyph-name="ugrave" unicode="&#xf9;" 
d="M556 0h-149v76q-29 -40 -71.5 -63t-96.5 -23q-42 0 -76 14.5t-57.5 40t-36.5 61t-13 77.5v345h149v-292q0 -46 25.5 -72t64.5 -26q25 0 45 10.5t35 28t23 40t9 47.5v264h149v-528zM180 678l53 96l200 -124l-44 -79z" />
    <glyph glyph-name="uacute" unicode="&#xfa;" 
d="M556 0h-149v76q-29 -40 -71.5 -63t-96.5 -23q-42 0 -76 14.5t-57.5 40t-36.5 61t-13 77.5v345h149v-292q0 -46 25.5 -72t64.5 -26q25 0 45 10.5t35 28t23 40t9 47.5v264h149v-528zM180 650l200 124l53 -96l-209 -107z" />
    <glyph glyph-name="ucircumflex" unicode="&#xfb;" 
d="M556 0h-149v76q-29 -40 -71.5 -63t-96.5 -23q-42 0 -76 14.5t-57.5 40t-36.5 61t-13 77.5v345h149v-292q0 -46 25.5 -72t64.5 -26q25 0 45 10.5t35 28t23 40t9 47.5v264h149v-528zM143 630l118 124h91l118 -124l-52 -56l-111 86l-112 -86z" />
    <glyph glyph-name="udieresis" unicode="&#xfc;" 
d="M556 0h-149v76q-29 -40 -71.5 -63t-96.5 -23q-42 0 -76 14.5t-57.5 40t-36.5 61t-13 77.5v345h149v-292q0 -46 25.5 -72t64.5 -26q25 0 45 10.5t35 28t23 40t9 47.5v264h149v-528zM172 669q0 26 17 43t43 17t43 -17t17 -43q0 -25 -17 -42t-43 -17t-43 17t-17 42zM321 669
q0 26 17 43t43 17t42.5 -17t16.5 -43q0 -25 -16.5 -42t-42.5 -17t-43 17t-17 42z" />
    <glyph glyph-name="yacute" unicode="&#xfd;" horiz-adv-x="568" 
d="M137 -195l74 201l-201 522h158l114 -321l118 321h157l-277 -723h-143zM158 650l200 124l53 -96l-209 -107z" />
    <glyph glyph-name="ydieresis" unicode="&#xff;" horiz-adv-x="568" 
d="M137 -195l74 201l-201 522h158l114 -321l118 321h157l-277 -723h-143zM150 669q0 26 17 43t43 17t43 -17t17 -43q0 -25 -17 -42t-43 -17t-43 17t-17 42zM299 669q0 26 17 43t43 17t42.5 -17t16.5 -43q0 -25 -16.5 -42t-42.5 -17t-43 17t-17 42z" />
    <glyph glyph-name="zcaron" unicode="&#x17e;" horiz-adv-x="490" 
d="M44 402v126h405v-126l-232 -276h240v-126h-424v126l236 276h-225zM246 668l111 86l52 -56l-118 -124h-91l-118 124l52 56z" />
    <glyph glyph-name="Hbar" unicode="&#x126;" horiz-adv-x="733" 
d="M70 473h-62v108h62v89h154v-89h285v89h154v-89h62v-108h-62v-473h-154v246h-285v-246h-154v473zM509 386v87h-285v-87h285z" />
    <glyph glyph-name="hbar" unicode="&#x127;" 
d="M56 720h149v-59h96v-94h-96v-110q30 37 73 59t95 22q42 0 76 -14.5t57.5 -40t36.5 -61t13 -78.5v-344h-151v292q0 45 -24.5 71.5t-63.5 26.5q-25 0 -45 -10.5t-35 -28t-23 -40t-9 -47.5v-264h-149v567h-54v94h54v59z" />
    <glyph glyph-name="kgreenlandic" unicode="&#x138;" horiz-adv-x="561" 
d="M56 528h149v-190h37l119 190h181l-162 -260l186 -268h-192l-129 198h-40v-198h-149v528z" />
    <glyph glyph-name="uni0237" unicode="&#x237;" horiz-adv-x="301" 
d="M241 -35q0 -85 -42.5 -128t-133.5 -43q-18 0 -37.5 2t-41.5 5v133q13 -2 24 -3t20 -1q39 0 50.5 17.5t11.5 59.5v521h149v-563z" />
    <glyph glyph-name="pi" unicode="&#x3c0;" horiz-adv-x="681" 
d="M35 528h611v-108h-62v-420h-149v420h-189v-420h-149v420h-62v108z" />
    <glyph glyph-name="longs" unicode="&#x17f;" horiz-adv-x="408" 
d="M408 741v-130h-101q-58 0 -58 -70v-541h-149v546q0 97 44.5 146t132.5 49h131z" />
    <glyph glyph-name="Germandbls" unicode="&#x1e9e;" horiz-adv-x="717" 
d="M578 670v-135l-94 -140q44 0 80.5 -13.5t62.5 -37.5t40.5 -57t14.5 -73q0 -50 -18.5 -89.5t-53 -67.5t-84.5 -42.5t-113 -14.5h-73v137h69q54 0 84 19t30 55q0 35 -26 57.5t-87 22.5h-71v108l91 134h-115q-45 0 -68 -23t-23 -66v-444h-154v491q0 85 55 132t153 47h300z
" />
    <glyph glyph-name="uni0123" unicode="&#x123;" horiz-adv-x="637" 
d="M581 33q0 -121 -68 -183t-201 -62q-63 0 -108.5 13.5t-75.5 38t-45.5 58t-18.5 74.5h149q7 -32 34.5 -47.5t66.5 -15.5q118 0 118 124v49q-23 -32 -59.5 -50t-92.5 -18t-102.5 19.5t-79.5 54.5t-51.5 83t-18.5 104q0 57 18.5 105t52 83t80 55t101.5 20q56 0 92.5 -18.5
t59.5 -51.5v60h149v-495zM182 271q0 -25 9 -47t25 -39t39.5 -27t51.5 -10q52 0 86 31.5t39 82.5v26q-6 51 -40.5 80t-84.5 29q-29 0 -52 -10t-39.5 -27t-25 -40t-8.5 -49zM240.012 588.998l54.9961 168.99h90.9951l-23.999 -168.99h-121.992z" />
    <glyph glyph-name="oslashacute" unicode="&#x1ff;" horiz-adv-x="610" 
d="M179 650l200 124l53 -96l-209 -107zM28 264q0 59 21 109.5t57.5 87t87 57t110.5 20.5q33 0 67 -8l25 62h86l-36 -90q63 -35 99.5 -97t36.5 -141q0 -59 -21 -109t-58.5 -86.5t-88 -57t-110.5 -20.5q-31 0 -63 6l-25 -63h-86l36 90q-64 34 -101 96.5t-37 143.5zM182 263
q0 -28 11.5 -53t31.5 -42l90 222q-3 0 -6 0.5t-7 0.5q-27 -1 -49 -11.5t-37.5 -28t-24.5 -40t-9 -48.5zM299 140q4 -1 7 -1.5t7 -0.5q26 2 47 12.5t36 27.5t23 39t8 46q0 28 -10 53t-30 42z" />
    <glyph glyph-name="Oslashacute" unicode="&#x1fe;" horiz-adv-x="752" 
d="M250 792l200 124l53 -96l-209 -107zM28 335q0 71 27.5 134t74.5 110t110.5 74t135.5 27q41 0 78 -9l16 39h116l-32 -79q77 -45 123.5 -123t46.5 -173q0 -72 -27 -134.5t-74.5 -109.5t-111 -74t-135.5 -27q-40 0 -78 9l-16 -39h-116l32 79q-77 45 -123.5 123t-46.5 173z
M190 336q0 -45 18.5 -82.5t50.5 -63.5l135 333q-12 3 -25 3q-37 -1 -69.5 -17t-57 -41.5t-38.5 -59.5t-14 -72zM358 147q12 -3 24 -3q38 2 70.5 17.5t57 41.5t38.5 60t14 73q0 44 -18.5 81.5t-50.5 62.5z" />
    <glyph glyph-name="Amacron" unicode="&#x100;" horiz-adv-x="685" 
d="M248 670h189l246 -670h-157l-44 118h-280l-43 -118h-157zM439 240l-96 263l-97 -263h193zM217 853h252v-96h-252v96z" />
    <glyph glyph-name="Emacron" unicode="&#x112;" horiz-adv-x="604" 
d="M70 670h492v-137h-338v-133h279v-132h-279v-131h338v-137h-492v670zM176 853h252v-96h-252v96z" />
    <glyph glyph-name="uni1E20" unicode="&#x1e20;" horiz-adv-x="762" 
d="M354 -10q-70 0 -128.5 25t-101 70t-66 108.5t-23.5 141.5q0 71 26 134t71.5 110t108.5 74t137 27q61 0 113.5 -15.5t93.5 -45t70.5 -71t43.5 -94.5h-185q-17 37 -54 57t-85 20q-40 0 -73 -14.5t-56.5 -40.5t-36 -61t-12.5 -76q0 -94 53 -147t147 -53q53 0 92.5 18
t59.5 51v54h-151v111h305v-373h-154v63q-35 -35 -84 -54t-111 -19zM250 853h252v-96h-252v96z" />
    <glyph glyph-name="Imacron" unicode="&#x12a;" horiz-adv-x="294" 
d="M70 670h154v-670h-154v670zM21 853h252v-96h-252v96z" />
    <glyph glyph-name="Omacron" unicode="&#x14c;" horiz-adv-x="766" 
d="M35 335q0 71 27.5 134t74.5 110t110.5 74t135.5 27t135.5 -27t111 -74t74.5 -110t27 -134q0 -72 -27 -134.5t-74.5 -109.5t-111 -74t-135.5 -27t-135.5 27t-110.5 74t-74.5 109.5t-27.5 134.5zM197 336q0 -40 14.5 -75t40 -61t59 -41t72.5 -15t72.5 15t59 41t40 61
t14.5 75q0 39 -14.5 73.5t-40 60.5t-59.5 41t-72 15t-72 -15t-59.5 -41t-40 -60.5t-14.5 -73.5zM257 853h252v-96h-252v96z" />
    <glyph glyph-name="Umacron" unicode="&#x16a;" horiz-adv-x="702" 
d="M352 -10q-140 0 -216 71t-76 204v405h154v-392q0 -67 36.5 -104.5t101.5 -37.5q64 0 100 37.5t36 104.5v392h154v-405q0 -133 -75 -204t-215 -71zM226 853h252v-96h-252v96z" />
    <glyph glyph-name="amacron" unicode="&#x101;" horiz-adv-x="637" 
d="M581 0h-149v62q-23 -33 -59.5 -52t-92.5 -19t-102.5 20.5t-79.5 56.5t-51.5 86t-18.5 109q0 60 18.5 110t52 87t80 57.5t101.5 20.5q56 0 92.5 -19.5t59.5 -53.5v63h149v-528zM432 282q-5 46 -39 77.5t-86 31.5q-29 0 -52 -10t-39.5 -27.5t-25 -41t-8.5 -49.5
q0 -25 9 -48t25 -40t39.5 -27t51.5 -10q26 0 47.5 8.5t38 22.5t26.5 34t13 42v37zM192 711h252v-96h-252v96z" />
    <glyph glyph-name="Abreve" unicode="&#x102;" horiz-adv-x="685" 
d="M248 670h189l246 -670h-157l-44 118h-280l-43 -118h-157zM439 240l-96 263l-97 -263h193zM343 819q21 0 32.5 13.5t11.5 31.5h100q0 -26 -7.5 -52t-25 -47t-45 -34t-66.5 -13t-66.5 13t-45 34t-25 47t-7.5 52h100q0 -18 11.5 -31.5t32.5 -13.5z" />
    <glyph glyph-name="abreve" unicode="&#x103;" horiz-adv-x="637" 
d="M581 0h-149v62q-23 -33 -59.5 -52t-92.5 -19t-102.5 20.5t-79.5 56.5t-51.5 86t-18.5 109q0 60 18.5 110t52 87t80 57.5t101.5 20.5q56 0 92.5 -19.5t59.5 -53.5v63h149v-528zM432 282q-5 46 -39 77.5t-86 31.5q-29 0 -52 -10t-39.5 -27.5t-25 -41t-8.5 -49.5
q0 -25 9 -48t25 -40t39.5 -27t51.5 -10q26 0 47.5 8.5t38 22.5t26.5 34t13 42v37zM318 677q21 0 32.5 13.5t11.5 31.5h100q0 -26 -7.5 -52t-25 -47t-45 -34t-66.5 -13t-66.5 13t-45 34t-25 47t-7.5 52h100q0 -18 11.5 -31.5t32.5 -13.5z" />
    <glyph glyph-name="Aogonek" unicode="&#x104;" horiz-adv-x="685" 
d="M248 670h189l246 -670h-27q-15 -14 -24 -30.5t-8 -30.5q2 -34 46 -34v-90h-75q-42 0 -68.5 22.5t-26.5 57.5q0 27 17 55.5t46 49.5h-37l-44 118h-280l-43 -118h-157zM439 240l-96 263l-97 -263h193z" />
    <glyph glyph-name="aogonek" unicode="&#x105;" horiz-adv-x="637" 
d="M581 0h-20q-15 -14 -25 -30.5t-9 -30.5q2 -34 46 -34v-90h-75q-42 0 -68.5 22.5t-26.5 57.5q0 27 17.5 55.5t46.5 49.5h-35v62q-23 -33 -59.5 -52t-92.5 -19t-102.5 20.5t-79.5 56.5t-51.5 86t-18.5 109q0 60 18.5 110t52 87t80 57.5t101.5 20.5q56 0 92.5 -19.5
t59.5 -53.5v63h149v-528zM432 282q-5 46 -39 77.5t-86 31.5q-29 0 -52 -10t-39.5 -27.5t-25 -41t-8.5 -49.5q0 -25 9 -48t25 -40t39.5 -27t51.5 -10q26 0 47.5 8.5t38 22.5t26.5 34t13 42v37z" />
    <glyph glyph-name="Cacute" unicode="&#x106;" horiz-adv-x="752" 
d="M35 335q0 71 27.5 134t74.5 110t110.5 74t135.5 27q65 0 122 -20t101.5 -56t74.5 -86t41 -110h-171q-17 54 -62 86t-105 32q-39 0 -73 -15t-59.5 -41t-40 -60.5t-14.5 -73.5q0 -40 14.5 -75t40 -61t59.5 -41t73 -15q60 0 105 32t62 86h171q-11 -60 -41 -110t-74.5 -86
t-101.5 -56t-122 -20q-72 0 -135.5 27t-110.5 74t-74.5 110t-27.5 134zM251 792l200 124l53 -96l-209 -107z" />
    <glyph glyph-name="cacute" unicode="&#x107;" horiz-adv-x="603" 
d="M29 264q0 59 21 109.5t58 87t87.5 57t110.5 20.5q54 0 100.5 -16.5t82 -46.5t58.5 -71.5t29 -91.5h-157q-11 35 -40.5 57.5t-71.5 22.5q-28 0 -50.5 -10.5t-39 -28t-25.5 -41t-9 -49.5q0 -25 9 -48.5t25.5 -40.5t39 -27.5t50.5 -10.5q42 0 71 22t41 55h157
q-7 -49 -30 -90t-58.5 -70t-81.5 -45.5t-100 -16.5q-60 0 -111 20.5t-87.5 57t-57.5 86.5t-21 109zM175 650l200 124l53 -96l-209 -107z" />
    <glyph glyph-name="Ccircumflex" unicode="&#x108;" horiz-adv-x="752" 
d="M35 335q0 71 27.5 134t74.5 110t110.5 74t135.5 27q65 0 122 -20t101.5 -56t74.5 -86t41 -110h-171q-17 54 -62 86t-105 32q-39 0 -73 -15t-59.5 -41t-40 -60.5t-14.5 -73.5q0 -40 14.5 -75t40 -61t59.5 -41t73 -15q60 0 105 32t62 86h171q-11 -60 -41 -110t-74.5 -86
t-101.5 -56t-122 -20q-72 0 -135.5 27t-110.5 74t-74.5 110t-27.5 134zM214 772l118 124h91l118 -124l-52 -56l-111 86l-112 -86z" />
    <glyph glyph-name="ccircumflex" unicode="&#x109;" horiz-adv-x="603" 
d="M29 264q0 59 21 109.5t58 87t87.5 57t110.5 20.5q54 0 100.5 -16.5t82 -46.5t58.5 -71.5t29 -91.5h-157q-11 35 -40.5 57.5t-71.5 22.5q-28 0 -50.5 -10.5t-39 -28t-25.5 -41t-9 -49.5q0 -25 9 -48.5t25.5 -40.5t39 -27.5t50.5 -10.5q42 0 71 22t41 55h157
q-7 -49 -30 -90t-58.5 -70t-81.5 -45.5t-100 -16.5q-60 0 -111 20.5t-87.5 57t-57.5 86.5t-21 109zM138 630l118 124h91l118 -124l-52 -56l-111 86l-112 -86z" />
    <glyph glyph-name="Cdotaccent" unicode="&#x10a;" horiz-adv-x="752" 
d="M35 335q0 71 27.5 134t74.5 110t110.5 74t135.5 27q65 0 122 -20t101.5 -56t74.5 -86t41 -110h-171q-17 54 -62 86t-105 32q-39 0 -73 -15t-59.5 -41t-40 -60.5t-14.5 -73.5q0 -40 14.5 -75t40 -61t59.5 -41t73 -15q60 0 105 32t62 86h171q-11 -60 -41 -110t-74.5 -86
t-101.5 -56t-122 -20q-72 0 -135.5 27t-110.5 74t-74.5 110t-27.5 134zM306 808q0 29 20.5 50t52.5 21q31 0 51.5 -21t20.5 -50q0 -30 -20.5 -50.5t-51.5 -20.5q-32 0 -52.5 20.5t-20.5 50.5z" />
    <glyph glyph-name="cdotaccent" unicode="&#x10b;" horiz-adv-x="603" 
d="M29 264q0 59 21 109.5t58 87t87.5 57t110.5 20.5q54 0 100.5 -16.5t82 -46.5t58.5 -71.5t29 -91.5h-157q-11 35 -40.5 57.5t-71.5 22.5q-28 0 -50.5 -10.5t-39 -28t-25.5 -41t-9 -49.5q0 -25 9 -48.5t25.5 -40.5t39 -27.5t50.5 -10.5q42 0 71 22t41 55h157
q-7 -49 -30 -90t-58.5 -70t-81.5 -45.5t-100 -16.5q-60 0 -111 20.5t-87.5 57t-57.5 86.5t-21 109zM229 666q0 29 20.5 50t52.5 21q31 0 51.5 -21t20.5 -50q0 -30 -20.5 -50.5t-51.5 -20.5q-32 0 -52.5 20.5t-20.5 50.5z" />
    <glyph glyph-name="Ccaron" unicode="&#x10c;" horiz-adv-x="752" 
d="M35 335q0 71 27.5 134t74.5 110t110.5 74t135.5 27q65 0 122 -20t101.5 -56t74.5 -86t41 -110h-171q-17 54 -62 86t-105 32q-39 0 -73 -15t-59.5 -41t-40 -60.5t-14.5 -73.5q0 -40 14.5 -75t40 -61t59.5 -41t73 -15q60 0 105 32t62 86h171q-11 -60 -41 -110t-74.5 -86
t-101.5 -56t-122 -20q-72 0 -135.5 27t-110.5 74t-74.5 110t-27.5 134zM378 810l111 86l52 -56l-118 -124h-91l-118 124l52 56z" />
    <glyph glyph-name="ccaron" unicode="&#x10d;" horiz-adv-x="603" 
d="M29 264q0 59 21 109.5t58 87t87.5 57t110.5 20.5q54 0 100.5 -16.5t82 -46.5t58.5 -71.5t29 -91.5h-157q-11 35 -40.5 57.5t-71.5 22.5q-28 0 -50.5 -10.5t-39 -28t-25.5 -41t-9 -49.5q0 -25 9 -48.5t25.5 -40.5t39 -27.5t50.5 -10.5q42 0 71 22t41 55h157
q-7 -49 -30 -90t-58.5 -70t-81.5 -45.5t-100 -16.5q-60 0 -111 20.5t-87.5 57t-57.5 86.5t-21 109zM302 668l111 86l52 -56l-118 -124h-91l-118 124l52 56z" />
    <glyph glyph-name="Dcaron" unicode="&#x10e;" horiz-adv-x="715" 
d="M70 0v670h271q74 0 136.5 -25t107.5 -69.5t70 -106t25 -134.5t-25 -135t-70 -106t-107.5 -69t-136.5 -25h-271zM224 150h117q39 0 72 13.5t56 37.5t36 58t13 76t-13 76t-36 58t-56 37.5t-72 13.5h-117v-370zM358 810l111 86l52 -56l-118 -124h-91l-118 124l52 56z" />
    <glyph glyph-name="dcaron" unicode="&#x10f;" horiz-adv-x="790" 
d="M28 263q0 60 18.5 110t52 87t80 57.5t101.5 20.5t91.5 -19.5t59.5 -52.5v254h149v-720h-149v62q-23 -33 -59.5 -52t-91.5 -19q-56 0 -102.5 20.5t-79.5 56.5t-51.5 86t-18.5 109zM431 285q-6 47 -40.5 76.5t-83.5 29.5q-29 0 -52 -10t-39.5 -27.5t-25 -41t-8.5 -49.5
q0 -25 9 -48t25 -40t39.5 -27t51.5 -10q51 0 85 30t39 75v42zM653 721h127l-10 -225h-108z" />
    <glyph glyph-name="emacron" unicode="&#x113;" horiz-adv-x="606" 
d="M181 231q8 -47 41 -76.5t85 -29.5q32 0 59 16t41 39h161q-10 -43 -33.5 -78t-58 -59.5t-78 -38t-94.5 -13.5q-60 0 -110.5 20.5t-87 57t-57.5 86.5t-21 109t20.5 109.5t57 87t86.5 57t110 20.5q56 0 103.5 -16.5t83.5 -47t58.5 -73t28.5 -93.5q2 -23 2.5 -40t-0.5 -37
h-397zM418 313q-7 40 -38 65.5t-76 25.5q-47 0 -77 -25t-41 -66h232zM177 711h252v-96h-252v96z" />
    <glyph glyph-name="Ebreve" unicode="&#x114;" horiz-adv-x="604" 
d="M70 670h492v-137h-338v-133h279v-132h-279v-131h338v-137h-492v670zM302 819q21 0 32.5 13.5t11.5 31.5h100q0 -26 -7.5 -52t-25 -47t-45 -34t-66.5 -13t-66.5 13t-45 34t-25 47t-7.5 52h100q0 -18 11.5 -31.5t32.5 -13.5z" />
    <glyph glyph-name="ebreve" unicode="&#x115;" horiz-adv-x="606" 
d="M181 231q8 -47 41 -76.5t85 -29.5q32 0 59 16t41 39h161q-10 -43 -33.5 -78t-58 -59.5t-78 -38t-94.5 -13.5q-60 0 -110.5 20.5t-87 57t-57.5 86.5t-21 109t20.5 109.5t57 87t86.5 57t110 20.5q56 0 103.5 -16.5t83.5 -47t58.5 -73t28.5 -93.5q2 -23 2.5 -40t-0.5 -37
h-397zM418 313q-7 40 -38 65.5t-76 25.5q-47 0 -77 -25t-41 -66h232zM303 677q21 0 32.5 13.5t11.5 31.5h100q0 -26 -7.5 -52t-25 -47t-45 -34t-66.5 -13t-66.5 13t-45 34t-25 47t-7.5 52h100q0 -18 11.5 -31.5t32.5 -13.5z" />
    <glyph glyph-name="Edotaccent" unicode="&#x116;" horiz-adv-x="604" 
d="M70 670h492v-137h-338v-133h279v-132h-279v-131h338v-137h-492v670zM229 808q0 29 20.5 50t52.5 21q31 0 51.5 -21t20.5 -50q0 -30 -20.5 -50.5t-51.5 -20.5q-32 0 -52.5 20.5t-20.5 50.5z" />
    <glyph glyph-name="edotaccent" unicode="&#x117;" horiz-adv-x="606" 
d="M181 231q8 -47 41 -76.5t85 -29.5q32 0 59 16t41 39h161q-10 -43 -33.5 -78t-58 -59.5t-78 -38t-94.5 -13.5q-60 0 -110.5 20.5t-87 57t-57.5 86.5t-21 109t20.5 109.5t57 87t86.5 57t110 20.5q56 0 103.5 -16.5t83.5 -47t58.5 -73t28.5 -93.5q2 -23 2.5 -40t-0.5 -37
h-397zM418 313q-7 40 -38 65.5t-76 25.5q-47 0 -77 -25t-41 -66h232zM231 666q0 29 20.5 50t52.5 21q31 0 51.5 -21t20.5 -50q0 -30 -20.5 -50.5t-51.5 -20.5q-32 0 -52.5 20.5t-20.5 50.5z" />
    <glyph glyph-name="Eogonek" unicode="&#x118;" horiz-adv-x="604" 
d="M70 670h492v-137h-338v-133h279v-132h-279v-131h338v-137h-188q-16 -14 -25 -30.5t-8 -30.5q2 -34 46 -34v-90h-75q-42 0 -68.5 22.5t-26.5 57.5q0 27 15.5 55.5t44.5 49.5h-207v670z" />
    <glyph glyph-name="eogonek" unicode="&#x119;" horiz-adv-x="606" 
d="M181 231q8 -47 41 -76.5t85 -29.5q32 0 59 16t41 39h161q-14 -63 -55.5 -107t-102.5 -65q-17 -14 -27.5 -31.5t-9.5 -33.5q1 -15 12 -24.5t34 -9.5v-90h-75q-42 0 -68.5 22.5t-26.5 57.5q0 24 11 48t34 45h-9q-56 3 -103 24.5t-81.5 57.5t-53.5 84.5t-19 105.5
q0 59 20.5 109.5t57 87t86.5 57t110 20.5q56 0 103.5 -16.5t83.5 -47t58.5 -73t28.5 -93.5q2 -23 2.5 -40t-0.5 -37h-397zM418 313q-7 40 -38 65.5t-76 25.5q-47 0 -77 -25t-41 -66h232z" />
    <glyph glyph-name="Ecaron" unicode="&#x11a;" horiz-adv-x="604" 
d="M70 670h492v-137h-338v-133h279v-132h-279v-131h338v-137h-492v670zM302 810l111 86l52 -56l-118 -124h-91l-118 124l52 56z" />
    <glyph glyph-name="ecaron" unicode="&#x11b;" horiz-adv-x="606" 
d="M181 231q8 -47 41 -76.5t85 -29.5q32 0 59 16t41 39h161q-10 -43 -33.5 -78t-58 -59.5t-78 -38t-94.5 -13.5q-60 0 -110.5 20.5t-87 57t-57.5 86.5t-21 109t20.5 109.5t57 87t86.5 57t110 20.5q56 0 103.5 -16.5t83.5 -47t58.5 -73t28.5 -93.5q2 -23 2.5 -40t-0.5 -37
h-397zM418 313q-7 40 -38 65.5t-76 25.5q-47 0 -77 -25t-41 -66h232zM303 668l111 86l52 -56l-118 -124h-91l-118 124l52 56z" />
    <glyph glyph-name="Gcircumflex" unicode="&#x11c;" horiz-adv-x="762" 
d="M354 -10q-70 0 -128.5 25t-101 70t-66 108.5t-23.5 141.5q0 71 26 134t71.5 110t108.5 74t137 27q61 0 113.5 -15.5t93.5 -45t70.5 -71t43.5 -94.5h-185q-17 37 -54 57t-85 20q-40 0 -73 -14.5t-56.5 -40.5t-36 -61t-12.5 -76q0 -94 53 -147t147 -53q53 0 92.5 18
t59.5 51v54h-151v111h305v-373h-154v63q-35 -35 -84 -54t-111 -19zM212 772l118 124h91l118 -124l-52 -56l-111 86l-112 -86z" />
    <glyph glyph-name="gcircumflex" unicode="&#x11d;" horiz-adv-x="637" 
d="M581 33q0 -121 -68 -183t-201 -62q-63 0 -108.5 13.5t-75.5 38t-45.5 58t-18.5 74.5h149q7 -32 34.5 -47.5t66.5 -15.5q118 0 118 124v49q-23 -32 -59.5 -50t-92.5 -18t-102.5 19.5t-79.5 54.5t-51.5 83t-18.5 104q0 57 18.5 105t52 83t80 55t101.5 20q56 0 92.5 -18.5
t59.5 -51.5v60h149v-495zM182 271q0 -25 9 -47t25 -39t39.5 -27t51.5 -10q52 0 86 31.5t39 82.5v26q-6 51 -40.5 80t-84.5 29q-29 0 -52 -10t-39.5 -27t-25 -40t-8.5 -49zM155 630l118 124h91l118 -124l-52 -56l-111 86l-112 -86z" />
    <glyph glyph-name="Gbreve" unicode="&#x11e;" horiz-adv-x="762" 
d="M354 -10q-70 0 -128.5 25t-101 70t-66 108.5t-23.5 141.5q0 71 26 134t71.5 110t108.5 74t137 27q61 0 113.5 -15.5t93.5 -45t70.5 -71t43.5 -94.5h-185q-17 37 -54 57t-85 20q-40 0 -73 -14.5t-56.5 -40.5t-36 -61t-12.5 -76q0 -94 53 -147t147 -53q53 0 92.5 18
t59.5 51v54h-151v111h305v-373h-154v63q-35 -35 -84 -54t-111 -19zM376 819q21 0 32.5 13.5t11.5 31.5h100q0 -26 -7.5 -52t-25 -47t-45 -34t-66.5 -13t-66.5 13t-45 34t-25 47t-7.5 52h100q0 -18 11.5 -31.5t32.5 -13.5z" />
    <glyph glyph-name="gbreve" unicode="&#x11f;" horiz-adv-x="637" 
d="M581 33q0 -121 -68 -183t-201 -62q-63 0 -108.5 13.5t-75.5 38t-45.5 58t-18.5 74.5h149q7 -32 34.5 -47.5t66.5 -15.5q118 0 118 124v49q-23 -32 -59.5 -50t-92.5 -18t-102.5 19.5t-79.5 54.5t-51.5 83t-18.5 104q0 57 18.5 105t52 83t80 55t101.5 20q56 0 92.5 -18.5
t59.5 -51.5v60h149v-495zM182 271q0 -25 9 -47t25 -39t39.5 -27t51.5 -10q52 0 86 31.5t39 82.5v26q-6 51 -40.5 80t-84.5 29q-29 0 -52 -10t-39.5 -27t-25 -40t-8.5 -49zM318 677q21 0 32.5 13.5t11.5 31.5h100q0 -26 -7.5 -52t-25 -47t-45 -34t-66.5 -13t-66.5 13t-45 34
t-25 47t-7.5 52h100q0 -18 11.5 -31.5t32.5 -13.5z" />
    <glyph glyph-name="Gdotaccent" unicode="&#x120;" horiz-adv-x="762" 
d="M354 -10q-70 0 -128.5 25t-101 70t-66 108.5t-23.5 141.5q0 71 26 134t71.5 110t108.5 74t137 27q61 0 113.5 -15.5t93.5 -45t70.5 -71t43.5 -94.5h-185q-17 37 -54 57t-85 20q-40 0 -73 -14.5t-56.5 -40.5t-36 -61t-12.5 -76q0 -94 53 -147t147 -53q53 0 92.5 18
t59.5 51v54h-151v111h305v-373h-154v63q-35 -35 -84 -54t-111 -19zM304 808q0 29 20.5 50t52.5 21q31 0 51.5 -21t20.5 -50q0 -30 -20.5 -50.5t-51.5 -20.5q-32 0 -52.5 20.5t-20.5 50.5z" />
    <glyph glyph-name="gdotaccent" unicode="&#x121;" horiz-adv-x="637" 
d="M581 33q0 -121 -68 -183t-201 -62q-63 0 -108.5 13.5t-75.5 38t-45.5 58t-18.5 74.5h149q7 -32 34.5 -47.5t66.5 -15.5q118 0 118 124v49q-23 -32 -59.5 -50t-92.5 -18t-102.5 19.5t-79.5 54.5t-51.5 83t-18.5 104q0 57 18.5 105t52 83t80 55t101.5 20q56 0 92.5 -18.5
t59.5 -51.5v60h149v-495zM182 271q0 -25 9 -47t25 -39t39.5 -27t51.5 -10q52 0 86 31.5t39 82.5v26q-6 51 -40.5 80t-84.5 29q-29 0 -52 -10t-39.5 -27t-25 -40t-8.5 -49zM246 666q0 29 20.5 50t52.5 21q31 0 51.5 -21t20.5 -50q0 -30 -20.5 -50.5t-51.5 -20.5
q-32 0 -52.5 20.5t-20.5 50.5z" />
    <glyph glyph-name="uni0122" unicode="&#x122;" horiz-adv-x="752" 
d="M354 -10q-70 0 -128.5 25t-101 70t-66 108.5t-23.5 141.5q0 71 26 134t71.5 110t108.5 74t137 27q61 0 113.5 -15.5t93.5 -45t70.5 -71t43.5 -94.5h-185q-17 37 -54 57t-85 20q-40 0 -73 -14.5t-56.5 -40.5t-36 -61t-12.5 -76q0 -94 53 -147t147 -53q53 0 92.5 18
t59.5 51v54h-151v111h305v-373h-154v63q-35 -35 -84 -54t-111 -19zM449 -29l-55 -169h-91l24 169h122z" />
    <glyph glyph-name="Hcircumflex" unicode="&#x124;" horiz-adv-x="733" 
d="M70 670h154v-284h285v284h154v-670h-154v246h-285v-246h-154v670zM203 772l118 124h91l118 -124l-52 -56l-111 86l-112 -86z" />
    <glyph glyph-name="hcircumflex" unicode="&#x125;" 
d="M56 720h149v-263q30 37 73 59t95 22q42 0 76 -14.5t57.5 -40t36.5 -61t13 -78.5v-344h-151v292q0 45 -24.5 71.5t-63.5 26.5q-25 0 -45 -10.5t-35 -28t-23 -40t-9 -47.5v-264h-149v720zM-30 814l118 124h91l118 -124l-52 -56l-111 86l-112 -86z" />
    <glyph glyph-name="Itilde" unicode="&#x128;" horiz-adv-x="294" 
d="M70 670h154v-670h-154v670zM155 849q11 -5 21 -10.5t23 -5.5t28.5 8t35.5 29l29 -86q-29 -26 -50.5 -36t-41.5 -10q-15 0 -29.5 5.5t-31.5 13.5q-10 5 -20.5 10.5t-23.5 5.5t-28.5 -8t-35.5 -29l-29 86q29 26 50.5 36t41.5 10q15 0 29.5 -5.5t31.5 -13.5z" />
    <glyph glyph-name="itilde" unicode="&#x129;" horiz-adv-x="261" 
d="M56 528h149v-528h-149v528zM138 707q11 -5 21 -10.5t23 -5.5t28.5 8t35.5 29l29 -86q-29 -26 -50.5 -36t-41.5 -10q-15 0 -29.5 5.5t-31.5 13.5q-10 5 -20.5 10.5t-23.5 5.5t-28.5 -8t-35.5 -29l-29 86q29 26 50.5 36t41.5 10q15 0 29.5 -5.5t31.5 -13.5z" />
    <glyph glyph-name="imacron" unicode="&#x12b;" horiz-adv-x="261" 
d="M56 528h149v-528h-149v528zM4 711h252v-96h-252v96z" />
    <glyph glyph-name="Iogonek" unicode="&#x12e;" horiz-adv-x="294" 
d="M70 670h154v-670h-19q-16 -14 -25 -30.5t-8 -30.5q2 -34 46 -34v-90h-75q-42 0 -68.5 22.5t-26.5 57.5q0 27 15.5 55.5t44.5 49.5h-38v670z" />
    <glyph glyph-name="iogonek" unicode="&#x12f;" horiz-adv-x="261" 
d="M45 666q0 34 24.5 58t61.5 24q36 0 60.5 -24t24.5 -58q0 -35 -24.5 -59t-60.5 -24q-37 0 -61.5 24t-24.5 59zM56 528h149v-528h-21q-15 -14 -24 -30.5t-8 -30.5q2 -34 46 -34v-90h-75q-42 0 -68.5 22.5t-26.5 57.5q0 27 15 55.5t44 49.5h-31v528z" />
    <glyph glyph-name="Idotaccent" unicode="&#x130;" horiz-adv-x="294" 
d="M70 670h154v-670h-154v670zM75 808q0 29 20.5 50t52.5 21q31 0 51.5 -21t20.5 -50q0 -30 -20.5 -50.5t-51.5 -20.5q-32 0 -52.5 20.5t-20.5 50.5z" />
    <glyph glyph-name="IJ" unicode="&#x132;" horiz-adv-x="709" 
d="M70 670h154v-670h-154v670zM485 670h154v-487q0 -94 -54 -144t-157 -50q-47 0 -106 12v148q45 -9 76 -9q48 0 67.5 23t19.5 75v432z" />
    <glyph glyph-name="ij" unicode="&#x133;" horiz-adv-x="562" 
d="M45 666q0 34 24.5 58t61.5 24q36 0 60.5 -24t24.5 -58q0 -35 -24.5 -59t-60.5 -24q-37 0 -61.5 24t-24.5 59zM56 528h149v-528h-149v528zM343 666q0 34 24.5 58t61.5 24q36 0 60.5 -24t24.5 -58q0 -35 -24.5 -59t-60.5 -24q-37 0 -61.5 24t-24.5 59zM502 -35
q0 -85 -42.5 -128t-133.5 -43q-18 0 -37.5 2t-41.5 5v133q13 -2 24 -3t20 -1q39 0 50.5 17.5t11.5 59.5v521h149v-563z" />
    <glyph glyph-name="Jcircumflex" unicode="&#x134;" horiz-adv-x="415" 
d="M191 670h154v-487q0 -94 -54 -144t-157 -50q-47 0 -106 12v148q45 -9 76 -9q48 0 67.5 23t19.5 75v432zM104 772l118 124h91l118 -124l-52 -56l-111 86l-112 -86z" />
    <glyph glyph-name="jcircumflex" unicode="&#x135;" horiz-adv-x="301" 
d="M241 -35q0 -85 -42.5 -128t-133.5 -43q-18 0 -37.5 2t-41.5 5v133q13 -2 24 -3t20 -1q39 0 50.5 17.5t11.5 59.5v521h149v-563zM3 630l118 124h91l118 -124l-52 -56l-111 86l-112 -86z" />
    <glyph glyph-name="uni0136" unicode="&#x136;" horiz-adv-x="677" 
d="M673 0h-197l-195 253h-57v-253h-154v670h154v-277h53l185 277h188l-230 -346zM412 -29l-55 -169h-91l24 169h122z" />
    <glyph glyph-name="uni0137" unicode="&#x137;" horiz-adv-x="561" 
d="M56 720h149v-382h37l119 190h181l-162 -260l186 -268h-192l-129 198h-40v-198h-149v720zM354 -29l-55 -169h-91l24 169h122z" />
    <glyph glyph-name="Lacute" unicode="&#x139;" horiz-adv-x="532" 
d="M70 670h154v-530h287v-140h-441v670zM32 792l200 124l53 -96l-209 -107z" />
    <glyph glyph-name="lacute" unicode="&#x13a;" horiz-adv-x="261" 
d="M56 720h149v-720h-149v720zM4 824l200 124l53 -96l-209 -107z" />
    <glyph glyph-name="uni013B" unicode="&#x13b;" horiz-adv-x="532" 
d="M70 670h154v-530h287v-140h-441v670zM339 -29l-55 -169h-91l24 169h122z" />
    <glyph glyph-name="uni013C" unicode="&#x13c;" horiz-adv-x="261" 
d="M56 720h149v-720h-149v720zM204 -29l-55 -169h-91l24 169h122z" />
    <glyph glyph-name="Lcaron" unicode="&#x13d;" horiz-adv-x="532" 
d="M70 670h154v-530h287v-140h-441v670zM320 692h127l-10 -225h-108z" />
    <glyph glyph-name="lcaron" unicode="&#x13e;" horiz-adv-x="403" 
d="M56 720h149v-720h-149v720zM272 721h127l-10 -225h-108z" />
    <glyph glyph-name="Ldot" unicode="&#x13f;" horiz-adv-x="532" 
d="M70 670h154v-530h287v-140h-441v670zM314 451q0 32 23 55.5t57 23.5q32 0 55 -23.5t23 -55.5q0 -33 -23 -56t-55 -23q-34 0 -57 23t-23 56z" />
    <glyph glyph-name="ldot" unicode="&#x140;" horiz-adv-x="433" 
d="M56 720h149v-720h-149v720zM263 450q0 32 23 55.5t57 23.5q32 0 55 -23.5t23 -55.5q0 -33 -23 -56t-55 -23q-34 0 -57 23t-23 56z" />
    <glyph glyph-name="Nacute" unicode="&#x143;" horiz-adv-x="733" 
d="M70 670h194l245 -445v445h154v-670h-193l-246 446v-446h-154v670zM240 792l200 124l53 -96l-209 -107z" />
    <glyph glyph-name="nacute" unicode="&#x144;" 
d="M56 528h149v-77q29 41 71.5 64t96.5 23q42 0 76 -14.5t57.5 -40t36.5 -61t13 -78.5v-344h-149v292q0 45 -25.5 71.5t-64.5 26.5q-25 0 -45 -10.5t-35 -28t-23 -40t-9 -47.5v-264h-149v528zM180 650l200 124l53 -96l-209 -107z" />
    <glyph glyph-name="uni0145" unicode="&#x145;" horiz-adv-x="733" 
d="M70 670h194l245 -445v445h154v-670h-193l-246 446v-446h-154v670zM440 -29l-55 -169h-91l24 169h122z" />
    <glyph glyph-name="uni0146" unicode="&#x146;" 
d="M56 528h149v-77q29 41 71.5 64t96.5 23q42 0 76 -14.5t57.5 -40t36.5 -61t13 -78.5v-344h-149v292q0 45 -25.5 71.5t-64.5 26.5q-25 0 -45 -10.5t-35 -28t-23 -40t-9 -47.5v-264h-149v528zM379 -29l-55 -169h-91l24 169h122z" />
    <glyph glyph-name="Ncaron" unicode="&#x147;" horiz-adv-x="733" 
d="M70 670h194l245 -445v445h154v-670h-193l-246 446v-446h-154v670zM367 810l111 86l52 -56l-118 -124h-91l-118 124l52 56z" />
    <glyph glyph-name="ncaron" unicode="&#x148;" 
d="M56 528h149v-77q29 41 71.5 64t96.5 23q42 0 76 -14.5t57.5 -40t36.5 -61t13 -78.5v-344h-149v292q0 45 -25.5 71.5t-64.5 26.5q-25 0 -45 -10.5t-35 -28t-23 -40t-9 -47.5v-264h-149v528zM307 668l111 86l52 -56l-118 -124h-91l-118 124l52 56z" />
    <glyph glyph-name="napostrophe" unicode="&#x149;" horiz-adv-x="672" 
d="M116 528h149v-77q29 41 71.5 64t96.5 23q42 0 76 -14.5t57.5 -40t36.5 -61t13 -78.5v-344h-149v292q0 45 -25.5 71.5t-64.5 26.5q-25 0 -45 -10.5t-35 -28t-23 -40t-9 -47.5v-264h-149v528zM-30 721h127l-10 -225h-108z" />
    <glyph glyph-name="omacron" unicode="&#x14d;" horiz-adv-x="610" 
d="M28 264q0 59 21 109.5t57.5 87t87 57t110.5 20.5t110.5 -20.5t88 -57.5t58.5 -87t21 -109t-21 -109t-58.5 -86.5t-88 -57t-110.5 -20.5t-110.5 20.5t-87 57t-57.5 86.5t-21 109zM182 263q0 -25 9 -48t25.5 -40t39.5 -27t50 -10t49.5 10t38 27t24.5 40t9 48
q0 26 -8.5 49.5t-24.5 41t-38.5 27.5t-49.5 10q-28 0 -50.5 -10t-39 -27.5t-25.5 -41t-9 -49.5zM179 711h252v-96h-252v96z" />
    <glyph glyph-name="Obreve" unicode="&#x14e;" horiz-adv-x="766" 
d="M35 335q0 71 27.5 134t74.5 110t110.5 74t135.5 27t135.5 -27t111 -74t74.5 -110t27 -134q0 -72 -27 -134.5t-74.5 -109.5t-111 -74t-135.5 -27t-135.5 27t-110.5 74t-74.5 109.5t-27.5 134.5zM197 336q0 -40 14.5 -75t40 -61t59 -41t72.5 -15t72.5 15t59 41t40 61
t14.5 75q0 39 -14.5 73.5t-40 60.5t-59.5 41t-72 15t-72 -15t-59.5 -41t-40 -60.5t-14.5 -73.5zM383 819q21 0 32.5 13.5t11.5 31.5h100q0 -26 -7.5 -52t-25 -47t-45 -34t-66.5 -13t-66.5 13t-45 34t-25 47t-7.5 52h100q0 -18 11.5 -31.5t32.5 -13.5z" />
    <glyph glyph-name="obreve" unicode="&#x14f;" horiz-adv-x="610" 
d="M28 264q0 59 21 109.5t57.5 87t87 57t110.5 20.5t110.5 -20.5t88 -57.5t58.5 -87t21 -109t-21 -109t-58.5 -86.5t-88 -57t-110.5 -20.5t-110.5 20.5t-87 57t-57.5 86.5t-21 109zM182 263q0 -25 9 -48t25.5 -40t39.5 -27t50 -10t49.5 10t38 27t24.5 40t9 48
q0 26 -8.5 49.5t-24.5 41t-38.5 27.5t-49.5 10q-28 0 -50.5 -10t-39 -27.5t-25.5 -41t-9 -49.5zM305 677q21 0 32.5 13.5t11.5 31.5h100q0 -26 -7.5 -52t-25 -47t-45 -34t-66.5 -13t-66.5 13t-45 34t-25 47t-7.5 52h100q0 -18 11.5 -31.5t32.5 -13.5z" />
    <glyph glyph-name="Ohungarumlaut" unicode="&#x150;" horiz-adv-x="766" 
d="M35 335q0 71 27.5 134t74.5 110t110.5 74t135.5 27t135.5 -27t111 -74t74.5 -110t27 -134q0 -72 -27 -134.5t-74.5 -109.5t-111 -74t-135.5 -27t-135.5 27t-110.5 74t-74.5 109.5t-27.5 134.5zM197 336q0 -40 14.5 -75t40 -61t59 -41t72.5 -15t72.5 15t59 41t40 61
t14.5 75q0 39 -14.5 73.5t-40 60.5t-59.5 41t-72 15t-72 -15t-59.5 -41t-40 -60.5t-14.5 -73.5zM283 889h106l-55 -166h-99zM426 889h106l-55 -166h-99z" />
    <glyph glyph-name="ohungarumlaut" unicode="&#x151;" horiz-adv-x="610" 
d="M28 264q0 59 21 109.5t57.5 87t87 57t110.5 20.5t110.5 -20.5t88 -57.5t58.5 -87t21 -109t-21 -109t-58.5 -86.5t-88 -57t-110.5 -20.5t-110.5 20.5t-87 57t-57.5 86.5t-21 109zM182 263q0 -25 9 -48t25.5 -40t39.5 -27t50 -10t49.5 10t38 27t24.5 40t9 48
q0 26 -8.5 49.5t-24.5 41t-38.5 27.5t-49.5 10q-28 0 -50.5 -10t-39 -27.5t-25.5 -41t-9 -49.5zM205 747h106l-55 -166h-99zM348 747h106l-55 -166h-99z" />
    <glyph glyph-name="Racute" unicode="&#x154;" horiz-adv-x="675" 
d="M353 670q132 0 204.5 -57.5t72.5 -163.5q0 -77 -38 -128t-107 -75l147 -246h-181l-132 226h-95v-226h-154v670h283zM349 347q57 0 88 23.5t31 64.5t-31 64.5t-88 23.5h-125v-176h125zM211 792l200 124l53 -96l-209 -107z" />
    <glyph glyph-name="racute" unicode="&#x155;" horiz-adv-x="415" 
d="M56 528h149v-95q33 53 83.5 79t108.5 26v-157q-36 1 -69.5 -8t-59.5 -28t-43 -46.5t-20 -64.5v-234h-149v528zM81 650l200 124l53 -96l-209 -107z" />
    <glyph glyph-name="uni0156" unicode="&#x156;" horiz-adv-x="675" 
d="M353 670q132 0 204.5 -57.5t72.5 -163.5q0 -77 -38 -128t-107 -75l147 -246h-181l-132 226h-95v-226h-154v670h283zM349 347q57 0 88 23.5t31 64.5t-31 64.5t-88 23.5h-125v-176h125zM411 -29l-55 -169h-91l24 169h122z" />
    <glyph glyph-name="uni0157" unicode="&#x157;" horiz-adv-x="415" 
d="M56 528h149v-95q33 53 83.5 79t108.5 26v-157q-36 1 -69.5 -8t-59.5 -28t-43 -46.5t-20 -64.5v-234h-149v528zM200 -29l-55 -169h-91l24 169h122z" />
    <glyph glyph-name="Rcaron" unicode="&#x158;" horiz-adv-x="675" 
d="M353 670q132 0 204.5 -57.5t72.5 -163.5q0 -77 -38 -128t-107 -75l147 -246h-181l-132 226h-95v-226h-154v670h283zM349 347q57 0 88 23.5t31 64.5t-31 64.5t-88 23.5h-125v-176h125zM338 810l111 86l52 -56l-118 -124h-91l-118 124l52 56z" />
    <glyph glyph-name="rcaron" unicode="&#x159;" horiz-adv-x="415" 
d="M56 528h149v-95q33 53 83.5 79t108.5 26v-157q-36 1 -69.5 -8t-59.5 -28t-43 -46.5t-20 -64.5v-234h-149v528zM208 668l111 86l52 -56l-118 -124h-91l-118 124l52 56z" />
    <glyph glyph-name="Sacute" unicode="&#x15a;" horiz-adv-x="645" 
d="M57 472q0 100 68.5 154t195.5 54q131 0 198 -58.5t69 -161.5h-158q0 42 -27 67t-87 25q-49 0 -76 -18.5t-27 -52.5q0 -21 11 -35.5t29.5 -24.5t43 -16.5t51.5 -12.5q42 -9 87 -19.5t82.5 -31t61.5 -55.5t24 -93q0 -92 -67.5 -147.5t-207.5 -55.5q-143 0 -214.5 59
t-71.5 160h158q8 -92 129 -92q54 0 83.5 18t29.5 50q0 22 -11.5 36t-31.5 23t-46.5 15t-55.5 11q-41 8 -83.5 18t-77.5 31.5t-57 57.5t-22 95zM196 792l200 124l53 -96l-209 -107z" />
    <glyph glyph-name="sacute" unicode="&#x15b;" horiz-adv-x="538" 
d="M47 371q0 80 57.5 123.5t162.5 43.5q109 0 165.5 -46t58.5 -127h-151q-2 59 -72 59q-73 0 -73 -47q0 -25 23 -37.5t57 -20t74 -14.5t74 -23t57 -45t23 -80q0 -76 -57.5 -120.5t-173.5 -44.5q-120 0 -178.5 46.5t-58.5 126.5h150q5 -60 87 -60q80 0 80 47q0 25 -22.5 36
t-56.5 17.5t-73.5 13.5t-73.5 23t-56.5 46t-22.5 83zM143 650l200 124l53 -96l-209 -107z" />
    <glyph glyph-name="Scircumflex" unicode="&#x15c;" horiz-adv-x="645" 
d="M57 472q0 100 68.5 154t195.5 54q131 0 198 -58.5t69 -161.5h-158q0 42 -27 67t-87 25q-49 0 -76 -18.5t-27 -52.5q0 -21 11 -35.5t29.5 -24.5t43 -16.5t51.5 -12.5q42 -9 87 -19.5t82.5 -31t61.5 -55.5t24 -93q0 -92 -67.5 -147.5t-207.5 -55.5q-143 0 -214.5 59
t-71.5 160h158q8 -92 129 -92q54 0 83.5 18t29.5 50q0 22 -11.5 36t-31.5 23t-46.5 15t-55.5 11q-41 8 -83.5 18t-77.5 31.5t-57 57.5t-22 95zM159 772l118 124h91l118 -124l-52 -56l-111 86l-112 -86z" />
    <glyph glyph-name="scircumflex" unicode="&#x15d;" horiz-adv-x="538" 
d="M47 371q0 80 57.5 123.5t162.5 43.5q109 0 165.5 -46t58.5 -127h-151q-2 59 -72 59q-73 0 -73 -47q0 -25 23 -37.5t57 -20t74 -14.5t74 -23t57 -45t23 -80q0 -76 -57.5 -120.5t-173.5 -44.5q-120 0 -178.5 46.5t-58.5 126.5h150q5 -60 87 -60q80 0 80 47q0 25 -22.5 36
t-56.5 17.5t-73.5 13.5t-73.5 23t-56.5 46t-22.5 83zM105 630l118 124h91l118 -124l-52 -56l-111 86l-112 -86z" />
    <glyph glyph-name="Scedilla" unicode="&#x15e;" horiz-adv-x="645" 
d="M57 472q0 100 68.5 154t195.5 54q131 0 198 -58.5t69 -161.5h-158q0 42 -27 67t-87 25q-49 0 -76 -18.5t-27 -52.5q0 -21 11 -35.5t29.5 -24.5t43 -16.5t51.5 -12.5q42 -9 87 -19.5t82.5 -31t61.5 -55.5t24 -93q0 -85 -57 -139t-174 -62l-12 -15q18 -10 34 -29.5
t16 -51.5q0 -43 -31.5 -68t-74.5 -25h-69v90q27 0 42 9t15 27q0 12 -9 21.5t-23 12.5l24 29q-121 9 -181.5 66.5t-60.5 150.5h158q8 -92 129 -92q54 0 83.5 18t29.5 50q0 22 -11.5 36t-31.5 23t-46.5 15t-55.5 11q-41 8 -83.5 18t-77.5 31.5t-57 57.5t-22 95z" />
    <glyph glyph-name="scedilla" unicode="&#x15f;" horiz-adv-x="538" 
d="M47 371q0 80 57.5 123.5t162.5 43.5q109 0 165.5 -46t58.5 -127h-151q-2 59 -72 59q-73 0 -73 -47q0 -25 23 -37.5t57 -20t74 -14.5t74 -23t57 -45t23 -80q0 -68 -45.5 -110.5t-136.5 -51.5l-14 -18q18 -10 34 -29.5t16 -51.5q0 -43 -31.5 -68t-74.5 -25h-69v90
q27 0 42 9t15 27q0 12 -9 21.5t-23 12.5l25 31q-99 8 -148 53.5t-49 117.5h150q5 -60 87 -60q80 0 80 47q0 25 -22.5 36t-56.5 17.5t-73.5 13.5t-73.5 23t-56.5 46t-22.5 83z" />
    <glyph glyph-name="uni0162" unicode="&#x162;" horiz-adv-x="609" 
d="M227 536h-213v134h581v-134h-214v-536h-154v536zM377 -29l-55 -169h-91l24 169h122z" />
    <glyph glyph-name="uni0163" unicode="&#x163;" horiz-adv-x="413" 
d="M259 678v-150h120v-120h-120v-211q0 -40 19.5 -54.5t54.5 -14.5q10 0 21.5 1t24.5 3v-135q-46 -6 -86 -6q-91 0 -137 38.5t-46 129.5v249h-85v120h85v150h149zM299 -29l-55 -169h-91l24 169h122z" />
    <glyph glyph-name="Tcaron" unicode="&#x164;" horiz-adv-x="595" 
d="M220 536h-213v134h581v-134h-214v-536h-154v536zM298 810l111 86l52 -56l-118 -124h-91l-118 124l52 56z" />
    <glyph glyph-name="tcaron" unicode="&#x165;" horiz-adv-x="469" 
d="M259 678v-150h120v-120h-120v-211q0 -40 19.5 -54.5t54.5 -14.5q10 0 21.5 1t24.5 3v-135q-46 -6 -86 -6q-91 0 -137 38.5t-46 129.5v249h-85v120h85v150h149zM326 858h127l-10 -225h-108z" />
    <glyph glyph-name="Tbar" unicode="&#x166;" horiz-adv-x="595" 
d="M220 231h-126v108h126v197h-213v134h581v-134h-214v-197h126v-108h-126v-231h-154v231z" />
    <glyph glyph-name="tbar" unicode="&#x167;" horiz-adv-x="413" 
d="M25 336h85v72h-85v120h85v150h149v-150h120v-120h-120v-72h120v-96h-120v-43q0 -40 19.5 -54.5t54.5 -14.5q10 0 21.5 1t24.5 3v-135q-46 -6 -86 -6q-91 0 -137 38.5t-46 129.5v81h-85v96z" />
    <glyph glyph-name="Utilde" unicode="&#x168;" horiz-adv-x="702" 
d="M352 -10q-140 0 -216 71t-76 204v405h154v-392q0 -67 36.5 -104.5t101.5 -37.5q64 0 100 37.5t36 104.5v392h154v-405q0 -133 -75 -204t-215 -71zM360 849q11 -5 21 -10.5t23 -5.5t28.5 8t35.5 29l29 -86q-29 -26 -50.5 -36t-41.5 -10q-15 0 -29.5 5.5t-31.5 13.5
q-10 5 -20.5 10.5t-23.5 5.5t-28.5 -8t-35.5 -29l-29 86q29 26 50.5 36t41.5 10q15 0 29.5 -5.5t31.5 -13.5z" />
    <glyph glyph-name="utilde" unicode="&#x169;" 
d="M556 0h-149v76q-29 -40 -71.5 -63t-96.5 -23q-42 0 -76 14.5t-57.5 40t-36.5 61t-13 77.5v345h149v-292q0 -46 25.5 -72t64.5 -26q25 0 45 10.5t35 28t23 40t9 47.5v264h149v-528zM314 707q11 -5 21 -10.5t23 -5.5t28.5 8t35.5 29l29 -86q-29 -26 -50.5 -36t-41.5 -10
q-15 0 -29.5 5.5t-31.5 13.5q-10 5 -20.5 10.5t-23.5 5.5t-28.5 -8t-35.5 -29l-29 86q29 26 50.5 36t41.5 10q15 0 29.5 -5.5t31.5 -13.5z" />
    <glyph glyph-name="umacron" unicode="&#x16b;" 
d="M556 0h-149v76q-29 -40 -71.5 -63t-96.5 -23q-42 0 -76 14.5t-57.5 40t-36.5 61t-13 77.5v345h149v-292q0 -46 25.5 -72t64.5 -26q25 0 45 10.5t35 28t23 40t9 47.5v264h149v-528zM180 711h252v-96h-252v96z" />
    <glyph glyph-name="Ubreve" unicode="&#x16c;" horiz-adv-x="702" 
d="M352 -10q-140 0 -216 71t-76 204v405h154v-392q0 -67 36.5 -104.5t101.5 -37.5q64 0 100 37.5t36 104.5v392h154v-405q0 -133 -75 -204t-215 -71zM352 819q21 0 32.5 13.5t11.5 31.5h100q0 -26 -7.5 -52t-25 -47t-45 -34t-66.5 -13t-66.5 13t-45 34t-25 47t-7.5 52h100
q0 -18 11.5 -31.5t32.5 -13.5z" />
    <glyph glyph-name="ubreve" unicode="&#x16d;" 
d="M556 0h-149v76q-29 -40 -71.5 -63t-96.5 -23q-42 0 -76 14.5t-57.5 40t-36.5 61t-13 77.5v345h149v-292q0 -46 25.5 -72t64.5 -26q25 0 45 10.5t35 28t23 40t9 47.5v264h149v-528zM306 677q21 0 32.5 13.5t11.5 31.5h100q0 -26 -7.5 -52t-25 -47t-45 -34t-66.5 -13
t-66.5 13t-45 34t-25 47t-7.5 52h100q0 -18 11.5 -31.5t32.5 -13.5z" />
    <glyph glyph-name="Uring" unicode="&#x16e;" horiz-adv-x="702" 
d="M352 -10q-140 0 -216 71t-76 204v405h154v-392q0 -67 36.5 -104.5t101.5 -37.5q64 0 100 37.5t36 104.5v392h154v-405q0 -133 -75 -204t-215 -71zM237 813q0 51 31.5 82.5t82.5 31.5q52 0 83 -31.5t31 -82.5q0 -52 -31 -83.5t-83 -31.5q-51 0 -82.5 31.5t-31.5 83.5z
M318 813q0 -34 33 -34q34 0 34 34q0 33 -34 33q-33 0 -33 -33z" />
    <glyph glyph-name="uring" unicode="&#x16f;" 
d="M556 0h-149v76q-29 -40 -71.5 -63t-96.5 -23q-42 0 -76 14.5t-57.5 40t-36.5 61t-13 77.5v345h149v-292q0 -46 25.5 -72t64.5 -26q25 0 45 10.5t35 28t23 40t9 47.5v264h149v-528zM192 671q0 51 31.5 82.5t82.5 31.5q52 0 83 -31.5t31 -82.5q0 -52 -31 -83.5t-83 -31.5
q-51 0 -82.5 31.5t-31.5 83.5zM273 671q0 -34 33 -34q34 0 34 34q0 33 -34 33q-33 0 -33 -33z" />
    <glyph glyph-name="Uhungarumlaut" unicode="&#x170;" horiz-adv-x="702" 
d="M352 -10q-140 0 -216 71t-76 204v405h154v-392q0 -67 36.5 -104.5t101.5 -37.5q64 0 100 37.5t36 104.5v392h154v-405q0 -133 -75 -204t-215 -71zM251 889h106l-55 -166h-99zM394 889h106l-55 -166h-99z" />
    <glyph glyph-name="uhungarumlaut" unicode="&#x171;" 
d="M556 0h-149v76q-29 -40 -71.5 -63t-96.5 -23q-42 0 -76 14.5t-57.5 40t-36.5 61t-13 77.5v345h149v-292q0 -46 25.5 -72t64.5 -26q25 0 45 10.5t35 28t23 40t9 47.5v264h149v-528zM206 747h106l-55 -166h-99zM349 747h106l-55 -166h-99z" />
    <glyph glyph-name="Uogonek" unicode="&#x172;" horiz-adv-x="702" 
d="M362 -186q-42 0 -68.5 22.5t-26.5 57.5q0 25 12.5 51t36.5 47q-124 8 -190 78t-66 195v405h154v-389q0 -67 35.5 -106t102.5 -39q68 0 102 39t34 106v389h154v-405q0 -116 -58 -185t-166 -86q-14 -14 -21 -28t-6 -28q1 -15 12 -24.5t34 -9.5v-90h-75z" />
    <glyph glyph-name="uogonek" unicode="&#x173;" 
d="M556 0h-21q-15 -14 -24 -30.5t-8 -30.5q2 -34 46 -34v-90h-75q-42 0 -68.5 22.5t-26.5 57.5q0 27 17 55.5t46 49.5h-35v76q-29 -40 -71.5 -63t-96.5 -23q-42 0 -76 14.5t-57.5 40t-36.5 61t-13 77.5v345h149v-292q0 -46 25.5 -72t64.5 -26q25 0 45 10.5t35 28t23 40
t9 47.5v264h149v-528z" />
    <glyph glyph-name="Wcircumflex" unicode="&#x174;" horiz-adv-x="1015" 
d="M174 670l130 -449l129 449h149l129 -449l131 449h165l-199 -670h-168l-133 442l-132 -442h-168l-199 670h166zM344 772l118 124h91l118 -124l-52 -56l-111 86l-112 -86z" />
    <glyph glyph-name="wcircumflex" unicode="&#x175;" horiz-adv-x="853" 
d="M184 0l-174 528h161l95 -326l93 326h135l93 -326l96 326h160l-174 -528h-143l-99 323l-100 -323h-143zM263 630l118 124h91l118 -124l-52 -56l-111 86l-112 -86z" />
    <glyph glyph-name="Ycircumflex" unicode="&#x176;" horiz-adv-x="661" 
d="M183 670l148 -287l148 287h181l-252 -457v-213h-154v213l-252 457h181zM167 772l118 124h91l118 -124l-52 -56l-111 86l-112 -86z" />
    <glyph glyph-name="ycircumflex" unicode="&#x177;" horiz-adv-x="568" 
d="M137 -195l74 201l-201 522h158l114 -321l118 321h157l-277 -723h-143zM121 630l118 124h91l118 -124l-52 -56l-111 86l-112 -86z" />
    <glyph glyph-name="Zacute" unicode="&#x179;" horiz-adv-x="594" 
d="M233 134h319v-134h-510v134l320 402h-320v134h510v-134zM171 792l200 124l53 -96l-209 -107z" />
    <glyph glyph-name="zacute" unicode="&#x17a;" horiz-adv-x="490" 
d="M44 402v126h405v-126l-232 -276h240v-126h-424v126l236 276h-225zM119 650l200 124l53 -96l-209 -107z" />
    <glyph glyph-name="Zdotaccent" unicode="&#x17b;" horiz-adv-x="594" 
d="M233 134h319v-134h-510v134l320 402h-320v134h510v-134zM225 808q0 29 20.5 50t52.5 21q31 0 51.5 -21t20.5 -50q0 -30 -20.5 -50.5t-51.5 -20.5q-32 0 -52.5 20.5t-20.5 50.5z" />
    <glyph glyph-name="zdotaccent" unicode="&#x17c;" horiz-adv-x="490" 
d="M44 402v126h405v-126l-232 -276h240v-126h-424v126l236 276h-225zM173 666q0 29 20.5 50t52.5 21q31 0 51.5 -21t20.5 -50q0 -30 -20.5 -50.5t-51.5 -20.5q-32 0 -52.5 20.5t-20.5 50.5z" />
    <glyph glyph-name="uni0218" unicode="&#x218;" horiz-adv-x="645" 
d="M57 472q0 100 68.5 154t195.5 54q131 0 198 -58.5t69 -161.5h-158q0 42 -27 67t-87 25q-49 0 -76 -18.5t-27 -52.5q0 -21 11 -35.5t29.5 -24.5t43 -16.5t51.5 -12.5q42 -9 87 -19.5t82.5 -31t61.5 -55.5t24 -93q0 -92 -67.5 -147.5t-207.5 -55.5q-143 0 -214.5 59
t-71.5 160h158q8 -92 129 -92q54 0 83.5 18t29.5 50q0 22 -11.5 36t-31.5 23t-46.5 15t-55.5 11q-41 8 -83.5 18t-77.5 31.5t-57 57.5t-22 95zM396 -29l-55 -169h-91l24 169h122z" />
    <glyph glyph-name="uni0219" unicode="&#x219;" horiz-adv-x="538" 
d="M47 371q0 80 57.5 123.5t162.5 43.5q109 0 165.5 -46t58.5 -127h-151q-2 59 -72 59q-73 0 -73 -47q0 -25 23 -37.5t57 -20t74 -14.5t74 -23t57 -45t23 -80q0 -76 -57.5 -120.5t-173.5 -44.5q-120 0 -178.5 46.5t-58.5 126.5h150q5 -60 87 -60q80 0 80 47q0 25 -22.5 36
t-56.5 17.5t-73.5 13.5t-73.5 23t-56.5 46t-22.5 83zM342 -29l-55 -169h-91l24 169h122z" />
    <glyph glyph-name="uni021A" unicode="&#x21a;" horiz-adv-x="609" 
d="M227 536h-213v134h581v-134h-214v-536h-154v536zM377 -29l-55 -169h-91l24 169h122z" />
    <glyph glyph-name="Wgrave" unicode="&#x1e80;" horiz-adv-x="1015" 
d="M174 670l130 -449l129 449h149l129 -449l131 449h165l-199 -670h-168l-133 442l-132 -442h-168l-199 670h166zM381 820l53 96l200 -124l-44 -79z" />
    <glyph glyph-name="wgrave" unicode="&#x1e81;" horiz-adv-x="853" 
d="M184 0l-174 528h161l95 -326l93 326h135l93 -326l96 326h160l-174 -528h-143l-99 323l-100 -323h-143zM300 678l53 96l200 -124l-44 -79z" />
    <glyph glyph-name="Wacute" unicode="&#x1e82;" horiz-adv-x="1015" 
d="M174 670l130 -449l129 449h149l129 -449l131 449h165l-199 -670h-168l-133 442l-132 -442h-168l-199 670h166zM381 792l200 124l53 -96l-209 -107z" />
    <glyph glyph-name="wacute" unicode="&#x1e83;" horiz-adv-x="853" 
d="M184 0l-174 528h161l95 -326l93 326h135l93 -326l96 326h160l-174 -528h-143l-99 323l-100 -323h-143zM300 650l200 124l53 -96l-209 -107z" />
    <glyph glyph-name="Wdieresis" unicode="&#x1e84;" horiz-adv-x="1015" 
d="M174 670l130 -449l129 449h149l129 -449l131 449h165l-199 -670h-168l-133 442l-132 -442h-168l-199 670h166zM374 811q0 26 17 43t43 17t43 -17t17 -43q0 -25 -17 -42t-43 -17t-43 17t-17 42zM523 811q0 26 17 43t43 17t42.5 -17t16.5 -43q0 -25 -16.5 -42t-42.5 -17
t-43 17t-17 42z" />
    <glyph glyph-name="wdieresis" unicode="&#x1e85;" horiz-adv-x="853" 
d="M184 0l-174 528h161l95 -326l93 326h135l93 -326l96 326h160l-174 -528h-143l-99 323l-100 -323h-143zM293 669q0 26 17 43t43 17t43 -17t17 -43q0 -25 -17 -42t-43 -17t-43 17t-17 42zM442 669q0 26 17 43t43 17t42.5 -17t16.5 -43q0 -25 -16.5 -42t-42.5 -17t-43 17
t-17 42z" />
    <glyph glyph-name="uni01EA" unicode="&#x1ea;" horiz-adv-x="766" 
d="M35 335q0 71 27.5 134t74.5 110t110.5 74t135.5 27t135.5 -27t111 -74t74.5 -110t27 -134q0 -63 -21 -119.5t-58.5 -101t-88.5 -75t-111 -42.5q-14 -14 -22.5 -29t-7.5 -29q2 -34 46 -34v-90h-75q-42 0 -68.5 22.5t-26.5 57.5q0 24 13 50t37 47q-66 6 -123 35.5t-99 75.5
t-66.5 105.5t-24.5 126.5zM197 336q0 -40 14.5 -75t40 -61t59 -41t72.5 -15t72.5 15t59 41t40 61t14.5 75q0 39 -14.5 73.5t-40 60.5t-59.5 41t-72 15t-72 -15t-59.5 -41t-40 -60.5t-14.5 -73.5z" />
    <glyph glyph-name="uni01EB" unicode="&#x1eb;" horiz-adv-x="610" 
d="M28 264q0 59 21 109.5t57.5 87t87 57t110.5 20.5t110.5 -20.5t88 -57.5t58.5 -87t21 -109q0 -49 -15 -92.5t-42.5 -78t-65 -58.5t-82.5 -35q-15 -14 -24.5 -30.5t-8.5 -30.5q2 -34 46 -34v-90h-75q-41 0 -68 22.5t-27 57.5q0 25 13.5 51t37.5 47q-53 5 -97.5 27.5t-77 58
t-50.5 83t-18 102.5zM182 263q0 -25 9 -48t25.5 -40t39.5 -27t50 -10t49.5 10t38 27t24.5 40t9 48q0 26 -8.5 49.5t-24.5 41t-38.5 27.5t-49.5 10q-28 0 -50.5 -10t-39 -27.5t-25.5 -41t-9 -49.5z" />
    <glyph glyph-name="uni1EBD" unicode="&#x1ebd;" horiz-adv-x="606" 
d="M181 231q8 -47 41 -76.5t85 -29.5q32 0 59 16t41 39h161q-10 -43 -33.5 -78t-58 -59.5t-78 -38t-94.5 -13.5q-60 0 -110.5 20.5t-87 57t-57.5 86.5t-21 109t20.5 109.5t57 87t86.5 57t110 20.5q56 0 103.5 -16.5t83.5 -47t58.5 -73t28.5 -93.5q2 -23 2.5 -40t-0.5 -37
h-397zM418 313q-7 40 -38 65.5t-76 25.5q-47 0 -77 -25t-41 -66h232zM311 707q11 -5 21 -10.5t23 -5.5t28.5 8t35.5 29l29 -86q-29 -26 -50.5 -36t-41.5 -10q-15 0 -29.5 5.5t-31.5 13.5q-10 5 -20.5 10.5t-23.5 5.5t-28.5 -8t-35.5 -29l-29 86q29 26 50.5 36t41.5 10
q15 0 29.5 -5.5t31.5 -13.5z" />
    <glyph glyph-name="uni1EF9" unicode="&#x1ef9;" horiz-adv-x="568" 
d="M137 -195l74 201l-201 522h158l114 -321l118 321h157l-277 -723h-143zM292 707q11 -5 21 -10.5t23 -5.5t28.5 8t35.5 29l29 -86q-29 -26 -50.5 -36t-41.5 -10q-15 0 -29.5 5.5t-31.5 13.5q-10 5 -20.5 10.5t-23.5 5.5t-28.5 -8t-35.5 -29l-29 86q29 26 50.5 36t41.5 10
q15 0 29.5 -5.5t31.5 -13.5z" />
    <glyph glyph-name="uni1EBC" unicode="&#x1ebc;" horiz-adv-x="604" 
d="M70 670h492v-137h-338v-133h279v-132h-279v-131h338v-137h-492v670zM310 849q11 -5 21 -10.5t23 -5.5t28.5 8t35.5 29l29 -86q-29 -26 -50.5 -36t-41.5 -10q-15 0 -29.5 5.5t-31.5 13.5q-10 5 -20.5 10.5t-23.5 5.5t-28.5 -8t-35.5 -29l-29 86q29 26 50.5 36t41.5 10
q15 0 29.5 -5.5t31.5 -13.5z" />
    <glyph glyph-name="uni1EF8" unicode="&#x1ef8;" horiz-adv-x="661" 
d="M183 670l148 -287l148 287h181l-252 -457v-213h-154v213l-252 457h181zM339 849q11 -5 21 -10.5t23 -5.5t28.5 8t35.5 29l29 -86q-29 -26 -50.5 -36t-41.5 -10q-15 0 -29.5 5.5t-31.5 13.5q-10 5 -20.5 10.5t-23.5 5.5t-28.5 -8t-35.5 -29l-29 86q29 26 50.5 36t41.5 10
q15 0 29.5 -5.5t31.5 -13.5z" />
    <glyph glyph-name="Ibreve" unicode="&#x12c;" horiz-adv-x="294" 
d="M70 670h154v-670h-154v670zM147 819q21 0 32.5 13.5t11.5 31.5h100q0 -26 -7.5 -52t-25 -47t-45 -34t-66.5 -13t-66.5 13t-45 34t-25 47t-7.5 52h100q0 -18 11.5 -31.5t32.5 -13.5z" />
    <glyph glyph-name="ibreve" unicode="&#x12d;" horiz-adv-x="261" 
d="M56 528h149v-528h-149v528zM130 677q21 0 32.5 13.5t11.5 31.5h100q0 -26 -7.5 -52t-25 -47t-45 -34t-66.5 -13t-66.5 13t-45 34t-25 47t-7.5 52h100q0 -18 11.5 -31.5t32.5 -13.5z" />
    <glyph glyph-name="gcaron" unicode="&#x1e7;" horiz-adv-x="637" 
d="M581 33q0 -121 -68 -183t-201 -62q-63 0 -108.5 13.5t-75.5 38t-45.5 58t-18.5 74.5h149q7 -32 34.5 -47.5t66.5 -15.5q118 0 118 124v49q-23 -32 -59.5 -50t-92.5 -18t-102.5 19.5t-79.5 54.5t-51.5 83t-18.5 104q0 57 18.5 105t52 83t80 55t101.5 20q56 0 92.5 -18.5
t59.5 -51.5v60h149v-495zM182 271q0 -25 9 -47t25 -39t39.5 -27t51.5 -10q52 0 86 31.5t39 82.5v26q-6 51 -40.5 80t-84.5 29q-29 0 -52 -10t-39.5 -27t-25 -40t-8.5 -49zM319 668l111 86l52 -56l-118 -124h-91l-118 124l52 56z" />
    <glyph glyph-name="Gcaron" unicode="&#x1e6;" horiz-adv-x="762" 
d="M354 -10q-70 0 -128.5 25t-101 70t-66 108.5t-23.5 141.5q0 71 26 134t71.5 110t108.5 74t137 27q61 0 113.5 -15.5t93.5 -45t70.5 -71t43.5 -94.5h-185q-17 37 -54 57t-85 20q-40 0 -73 -14.5t-56.5 -40.5t-36 -61t-12.5 -76q0 -94 53 -147t147 -53q53 0 92.5 18
t59.5 51v54h-151v111h305v-373h-154v63q-35 -35 -84 -54t-111 -19zM376 810l111 86l52 -56l-118 -124h-91l-118 124l52 56z" />
    <glyph glyph-name="uni0232" unicode="&#x232;" horiz-adv-x="661" 
d="M183 670l148 -287l148 287h181l-252 -457v-213h-154v213l-252 457h181zM205 853h252v-96h-252v96z" />
    <glyph glyph-name="uni0233" unicode="&#x233;" horiz-adv-x="568" 
d="M137 -195l74 201l-201 522h158l114 -321l118 321h157l-277 -723h-143zM158 711h252v-96h-252v96z" />
    <glyph glyph-name="uni1E21" unicode="&#x1e21;" horiz-adv-x="637" 
d="M581 33q0 -121 -68 -183t-201 -62q-63 0 -108.5 13.5t-75.5 38t-45.5 58t-18.5 74.5h149q7 -32 34.5 -47.5t66.5 -15.5q118 0 118 124v49q-23 -32 -59.5 -50t-92.5 -18t-102.5 19.5t-79.5 54.5t-51.5 83t-18.5 104q0 57 18.5 105t52 83t80 55t101.5 20q56 0 92.5 -18.5
t59.5 -51.5v60h149v-495zM182 271q0 -25 9 -47t25 -39t39.5 -27t51.5 -10q52 0 86 31.5t39 82.5v26q-6 51 -40.5 80t-84.5 29q-29 0 -52 -10t-39.5 -27t-25 -40t-8.5 -49zM192 711h252v-96h-252v96z" />
    <glyph glyph-name="zero.numr" horiz-adv-x="444" 
d="M222 266q-90 0 -138.5 53.5t-48.5 153.5t48.5 153.5t138.5 53.5t138.5 -53.5t48.5 -153.5t-48.5 -153.5t-138.5 -53.5zM222 372q34 0 52 26.5t18 74.5t-18 74.5t-52 26.5t-52 -26.5t-18 -74.5t18 -74.5t52 -26.5z" />
    <glyph glyph-name="one.numr" horiz-adv-x="268" 
d="M93 575h-58v95h170v-402h-112v307z" />
    <glyph glyph-name="two.numr" horiz-adv-x="389" 
d="M37 368q38 23 73.5 45.5t63 44t44 42t16.5 39.5q0 13 -8.5 24t-29.5 11q-24 0 -33 -15t-9 -35h-118q1 77 39 116.5t120 39.5q77 0 117 -33.5t40 -91.5q0 -54 -33 -97.5t-99 -89.5h133v-96h-316v96z" />
    <glyph glyph-name="three.numr" horiz-adv-x="410" 
d="M257 406q0 32 -55 32h-59v72h65q40 0 40 31q0 15 -12 24t-32 9q-23 0 -34.5 -10t-11.5 -26h-119q9 142 161 142q78 0 121.5 -30.5t43.5 -87.5q0 -74 -69 -89q37 -5 57.5 -28t20.5 -61q0 -56 -44.5 -87t-127.5 -31q-78 0 -120.5 36t-46.5 106h118q1 -15 14 -25.5t39 -10.5
q24 0 37.5 9t13.5 25z" />
    <glyph glyph-name="four.numr" horiz-adv-x="422" 
d="M216 670h120v-242h50v-85h-50v-75h-112v75h-201v85zM136 428h88v112z" />
    <glyph glyph-name="five.numr" horiz-adv-x="399" 
d="M145 392q6 -34 55 -34q23 0 37 11.5t14 31.5q0 22 -14.5 34t-39.5 12q-20 0 -36 -6t-27 -17h-94l31 246h264v-95h-180l-9 -65q11 7 32 11.5t47 4.5q66 0 102 -34t36 -95q0 -66 -41.5 -100.5t-119.5 -34.5q-79 0 -121 33.5t-46 96.5h110z" />
    <glyph glyph-name="six.numr" horiz-adv-x="406" 
d="M35 510q0 80 39.5 125t128.5 45q147 0 158 -124h-110q-3 29 -46 29q-20 0 -31.5 -6.5t-17.5 -17t-7.5 -25t-1.5 -31.5q14 11 35 18t47 7q64 0 102.5 -34t38.5 -91q0 -30 -11.5 -55.5t-32.5 -44t-50.5 -29t-65.5 -10.5q-83 0 -129 41t-46 110v93zM202 367q26 0 41 10.5
t15 30.5q0 19 -15 29.5t-41 10.5t-41 -10.5t-15 -29.5q0 -20 15 -30.5t41 -10.5z" />
    <glyph glyph-name="seven.numr" horiz-adv-x="344" 
d="M204 575h-181v95h298v-95l-118 -307h-120z" />
    <glyph glyph-name="eight.numr" horiz-adv-x="419" 
d="M35 385q0 37 20 60.5t48 36.5q-21 11 -36.5 32.5t-15.5 53.5q0 51 43 81.5t115 30.5t115 -30.5t43 -81.5q0 -32 -15.5 -53.5t-37.5 -32.5q29 -13 49 -36.5t20 -60.5q0 -57 -45.5 -88t-128.5 -31t-128.5 31t-45.5 88zM209 588q-23 0 -35 -11.5t-12 -28.5q0 -18 13 -29
t34 -11q22 0 35 11t13 29q0 17 -12 28.5t-36 11.5zM209 442q-25 0 -43.5 -10t-18.5 -32q0 -41 62 -41q63 0 63 41q0 22 -19 32t-44 10z" />
    <glyph glyph-name="nine.numr" horiz-adv-x="406" 
d="M370 436q0 -80 -39.5 -125t-128.5 -45q-147 0 -159 125h111q3 -29 46 -29q20 0 31.5 6t17.5 17t7.5 25.5t1.5 30.5q-14 -11 -35 -18t-47 -7q-64 0 -102.5 34t-38.5 91q0 30 11.5 55.5t32.5 44t50.5 29t65.5 10.5q82 0 128.5 -41t46.5 -110v-93zM203 579q-26 0 -41 -10.5
t-15 -30.5q0 -19 15 -29.5t41 -10.5t41 10.5t15 29.5q0 20 -15 30.5t-41 10.5z" />
    <glyph glyph-name="zero.subs" horiz-adv-x="444" 
d="M222 -90q-90 0 -138.5 53.5t-48.5 153.5t48.5 153.5t138.5 53.5t138.5 -53.5t48.5 -153.5t-48.5 -153.5t-138.5 -53.5zM222 16q34 0 52 26.5t18 74.5t-18 74.5t-52 26.5t-52 -26.5t-18 -74.5t18 -74.5t52 -26.5z" />
    <glyph glyph-name="one.subs" horiz-adv-x="268" 
d="M93 227h-58v95h170v-402h-112v307z" />
    <glyph glyph-name="two.subs" horiz-adv-x="389" 
d="M37 16q38 23 73.5 45.5t63 44t44 42t16.5 39.5q0 13 -8.5 24t-29.5 11q-24 0 -33 -15t-9 -35h-118q1 77 39 116.5t120 39.5q77 0 117 -33.5t40 -91.5q0 -54 -33 -97.5t-99 -89.5h133v-96h-316v96z" />
    <glyph glyph-name="three.subs" horiz-adv-x="410" 
d="M257 52q0 32 -55 32h-59v72h65q40 0 40 31q0 15 -12 24t-32 9q-23 0 -34.5 -10t-11.5 -26h-119q9 142 161 142q78 0 121.5 -30.5t43.5 -87.5q0 -74 -69 -89q37 -5 57.5 -28t20.5 -61q0 -56 -44.5 -87t-127.5 -31q-78 0 -120.5 36t-46.5 106h118q1 -15 14 -25.5t39 -10.5
q24 0 37.5 9t13.5 25z" />
    <glyph glyph-name="four.subs" horiz-adv-x="422" 
d="M216 322h120v-242h50v-85h-50v-75h-112v75h-201v85zM136 80h88v112z" />
    <glyph glyph-name="five.subs" horiz-adv-x="399" 
d="M145 40q6 -34 55 -34q23 0 37 11.5t14 31.5q0 22 -14.5 34t-39.5 12q-20 0 -36 -6t-27 -17h-94l31 246h264v-95h-180l-9 -65q11 7 32 11.5t47 4.5q66 0 102 -34t36 -95q0 -66 -41.5 -100.5t-119.5 -34.5q-79 0 -121 33.5t-46 96.5h110z" />
    <glyph glyph-name="six.subs" horiz-adv-x="406" 
d="M35 154q0 80 39.5 125t128.5 45q147 0 158 -124h-110q-3 29 -46 29q-20 0 -31.5 -6.5t-17.5 -17t-7.5 -25t-1.5 -31.5q14 11 35 18t47 7q64 0 102.5 -34t38.5 -91q0 -30 -11.5 -55.5t-32.5 -44t-50.5 -29t-65.5 -10.5q-83 0 -129 41t-46 110v93zM202 11q26 0 41 10.5
t15 30.5q0 19 -15 29.5t-41 10.5t-41 -10.5t-15 -29.5q0 -20 15 -30.5t41 -10.5z" />
    <glyph glyph-name="seven.subs" horiz-adv-x="344" 
d="M204 227h-181v95h298v-95l-118 -307h-120z" />
    <glyph glyph-name="eight.subs" horiz-adv-x="419" 
d="M35 29q0 37 20 60.5t48 36.5q-21 11 -36.5 32.5t-15.5 53.5q0 51 43 81.5t115 30.5t115 -30.5t43 -81.5q0 -32 -15.5 -53.5t-37.5 -32.5q29 -13 49 -36.5t20 -60.5q0 -57 -45.5 -88t-128.5 -31t-128.5 31t-45.5 88zM209 232q-23 0 -35 -11.5t-12 -28.5q0 -18 13 -29
t34 -11q22 0 35 11t13 29q0 17 -12 28.5t-36 11.5zM209 86q-25 0 -43.5 -10t-18.5 -32q0 -41 62 -41q63 0 63 41q0 22 -19 32t-44 10z" />
    <glyph glyph-name="nine.subs" horiz-adv-x="406" 
d="M370 80q0 -80 -39.5 -125t-128.5 -45q-147 0 -159 125h111q3 -29 46 -29q20 0 31.5 6t17.5 17t7.5 25.5t1.5 30.5q-14 -11 -35 -18t-47 -7q-64 0 -102.5 34t-38.5 91q0 30 11.5 55.5t32.5 44t50.5 29t65.5 10.5q82 0 128.5 -41t46.5 -110v-93zM203 223q-26 0 -41 -10.5
t-15 -30.5q0 -19 15 -29.5t41 -10.5t41 10.5t15 29.5q0 20 -15 30.5t-41 10.5z" />
    <glyph glyph-name="zero.sups" horiz-adv-x="444" 
d="M222 346q-90 0 -138.5 53.5t-48.5 153.5t48.5 153.5t138.5 53.5t138.5 -53.5t48.5 -153.5t-48.5 -153.5t-138.5 -53.5zM222 452q34 0 52 26.5t18 74.5t-18 74.5t-52 26.5t-52 -26.5t-18 -74.5t18 -74.5t52 -26.5z" />
    <glyph glyph-name="one.sups" horiz-adv-x="268" 
d="M93 655h-58v95h170v-402h-112v307z" />
    <glyph glyph-name="two.sups" horiz-adv-x="389" 
d="M37 448q38 23 73.5 45.5t63 44t44 42t16.5 39.5q0 13 -8.5 24t-29.5 11q-24 0 -33 -15t-9 -35h-118q1 77 39 116.5t120 39.5q77 0 117 -33.5t40 -91.5q0 -54 -33 -97.5t-99 -89.5h133v-96h-316v96z" />
    <glyph glyph-name="three.sups" horiz-adv-x="410" 
d="M257 486q0 32 -55 32h-59v72h65q40 0 40 31q0 15 -12 24t-32 9q-23 0 -34.5 -10t-11.5 -26h-119q9 142 161 142q78 0 121.5 -30.5t43.5 -87.5q0 -74 -69 -89q37 -5 57.5 -28t20.5 -61q0 -56 -44.5 -87t-127.5 -31q-78 0 -120.5 36t-46.5 106h118q1 -15 14 -25.5t39 -10.5
q24 0 37.5 9t13.5 25z" />
    <glyph glyph-name="four.sups" horiz-adv-x="422" 
d="M216 750h120v-242h50v-85h-50v-75h-112v75h-201v85zM136 508h88v112z" />
    <glyph glyph-name="five.sups" horiz-adv-x="399" 
d="M145 472q6 -34 55 -34q23 0 37 11.5t14 31.5q0 22 -14.5 34t-39.5 12q-20 0 -36 -6t-27 -17h-94l31 246h264v-95h-180l-9 -65q11 7 32 11.5t47 4.5q66 0 102 -34t36 -95q0 -66 -41.5 -100.5t-119.5 -34.5q-79 0 -121 33.5t-46 96.5h110z" />
    <glyph glyph-name="six.sups" horiz-adv-x="406" 
d="M35 590q0 80 39.5 125t128.5 45q147 0 158 -124h-110q-3 29 -46 29q-20 0 -31.5 -6.5t-17.5 -17t-7.5 -25t-1.5 -31.5q14 11 35 18t47 7q64 0 102.5 -34t38.5 -91q0 -30 -11.5 -55.5t-32.5 -44t-50.5 -29t-65.5 -10.5q-83 0 -129 41t-46 110v93zM202 447q26 0 41 10.5
t15 30.5q0 19 -15 29.5t-41 10.5t-41 -10.5t-15 -29.5q0 -20 15 -30.5t41 -10.5z" />
    <glyph glyph-name="seven.sups" horiz-adv-x="344" 
d="M204 655h-181v95h298v-95l-118 -307h-120z" />
    <glyph glyph-name="eight.sups" horiz-adv-x="419" 
d="M35 465q0 37 20 60.5t48 36.5q-21 11 -36.5 32.5t-15.5 53.5q0 51 43 81.5t115 30.5t115 -30.5t43 -81.5q0 -32 -15.5 -53.5t-37.5 -32.5q29 -13 49 -36.5t20 -60.5q0 -57 -45.5 -88t-128.5 -31t-128.5 31t-45.5 88zM209 668q-23 0 -35 -11.5t-12 -28.5q0 -18 13 -29
t34 -11q22 0 35 11t13 29q0 17 -12 28.5t-36 11.5zM209 522q-25 0 -43.5 -10t-18.5 -32q0 -41 62 -41q63 0 63 41q0 22 -19 32t-44 10z" />
    <glyph glyph-name="nine.sups" horiz-adv-x="406" 
d="M370 516q0 -80 -39.5 -125t-128.5 -45q-147 0 -159 125h111q3 -29 46 -29q20 0 31.5 6t17.5 17t7.5 25.5t1.5 30.5q-14 -11 -35 -18t-47 -7q-64 0 -102.5 34t-38.5 91q0 30 11.5 55.5t32.5 44t50.5 29t65.5 10.5q82 0 128.5 -41t46.5 -110v-93zM203 659q-26 0 -41 -10.5
t-15 -30.5q0 -19 15 -29.5t41 -10.5t41 10.5t15 29.5q0 20 -15 30.5t-41 10.5z" />
    <glyph glyph-name="twosuperior" unicode="&#xb2;" horiz-adv-x="389" 
d="M37 448q38 23 73.5 45.5t63 44t44 42t16.5 39.5q0 13 -8.5 24t-29.5 11q-24 0 -33 -15t-9 -35h-118q1 77 39 116.5t120 39.5q77 0 117 -33.5t40 -91.5q0 -54 -33 -97.5t-99 -89.5h133v-96h-316v96z" />
    <glyph glyph-name="threesuperior" unicode="&#xb3;" horiz-adv-x="410" 
d="M257 486q0 32 -55 32h-59v72h65q40 0 40 31q0 15 -12 24t-32 9q-23 0 -34.5 -10t-11.5 -26h-119q9 142 161 142q78 0 121.5 -30.5t43.5 -87.5q0 -74 -69 -89q37 -5 57.5 -28t20.5 -61q0 -56 -44.5 -87t-127.5 -31q-78 0 -120.5 36t-46.5 106h118q1 -15 14 -25.5t39 -10.5
q24 0 37.5 9t13.5 25z" />
    <glyph glyph-name="f_f.dlig" horiz-adv-x="776" 
d="M408 741v-130h-101q-58 0 -58 -70v-13h219v18q0 97 44.5 146t132.5 49h131v-130h-101q-58 0 -58 -70v-13h147v-120h-147v-408h-149v408h-219v-408h-149v408h-82v120h82v18q0 97 44.5 146t132.5 49h131z" />
    <glyph glyph-name="f_t.dlig" horiz-adv-x="780" 
d="M408 741v-130h-101q-58 0 -58 -70v-13h229v150h149v-150h119v-120h-119v-211q0 -40 19 -54.5t54 -14.5q11 0 22 1t24 3v-135q-46 -6 -85 -6q-91 0 -137 38.5t-46 129.5v249h-229v-408h-149v408h-82v120h82v18q0 97 44.5 146t132.5 49h131z" />
    <glyph glyph-name="f_f_t.dlig" horiz-adv-x="1148" 
d="M776 741v-130h-101q-58 0 -58 -70v-13h228v150h149v-150h120v-120h-120v-211q0 -40 19.5 -54.5t54.5 -14.5q11 0 22 1t24 3v-135q-46 -6 -85 -6q-91 0 -137.5 38.5t-46.5 129.5v249h-228v-408h-149v408h-219v-408h-149v408h-82v120h82v18q0 97 44.5 146t132.5 49h131
v-130h-101q-58 0 -58 -70v-13h219v18q0 97 44.5 146t132.5 49h131z" />
    <glyph glyph-name="t_f.dlig" horiz-adv-x="800" 
d="M259 678v-150h234v18q0 97 44.5 146t132.5 49h130v-130h-101q-58 0 -58 -70v-13h147v-120h-147v-408h-148v408h-234v-211q0 -40 19.5 -54.5t54.5 -14.5q10 0 21.5 1t24.5 3v-135q-46 -6 -86 -6q-91 0 -137 38.5t-46 129.5v249h-85v120h85v150h149z" />
    <glyph glyph-name="t_t.dlig" horiz-adv-x="804" 
d="M650 678v-150h120v-120h-120v-211q0 -40 19.5 -54.5t54.5 -14.5q10 0 21.5 1t24.5 3v-135q-46 -6 -86 -6q-91 0 -137 38.5t-46 129.5v249h-242v-211q0 -40 19.5 -54.5t54.5 -14.5q10 0 21.5 1t24.5 3v-135q-46 -6 -86 -6q-91 0 -137 38.5t-46 129.5v249h-85v120h85v150
h149v-150h242v150h149z" />
    <glyph glyph-name="t_t_f.dlig" horiz-adv-x="1198" 
d="M650 678v-150h240v18q0 97 44.5 146t132.5 49h131v-130h-101q-58 0 -58 -70v-13h147v-120h-147v-408h-149v408h-240v-211q0 -40 19.5 -54.5t54.5 -14.5q10 0 21.5 1t24.5 3v-135q-46 -6 -86 -6q-91 0 -137 38.5t-46 129.5v249h-242v-211q0 -40 19.5 -54.5t54.5 -14.5
q10 0 21.5 1t24.5 3v-135q-46 -6 -86 -6q-91 0 -137 38.5t-46 129.5v249h-85v120h85v150h149v-150h242v150h149z" />
    <glyph glyph-name="Adieresis.alt" horiz-adv-x="685" 
d="M248 670h189l246 -670h-157l-44 118h-280l-43 -118h-157zM439 240l-96 263l-97 -263h193zM213 752v108h106v-108h-106zM365 752v108h106v-108h-106z" />
    <glyph glyph-name="Edieresis.alt" horiz-adv-x="604" 
d="M70 670h492v-137h-338v-133h279v-132h-279v-131h338v-137h-492v670zM173 750v108h106v-108h-106zM325 750v108h106v-108h-106z" />
    <glyph glyph-name="Idieresis.alt" horiz-adv-x="294" 
d="M70 670h154v-670h-154v670zM18 750v108h106v-108h-106zM170 750v108h106v-108h-106z" />
    <glyph glyph-name="Odieresis.alt" horiz-adv-x="766" 
d="M35 335q0 71 27.5 134t74.5 110t110.5 74t135.5 27t135.5 -27t111 -74t74.5 -110t27 -134q0 -72 -27 -134.5t-74.5 -109.5t-111 -74t-135.5 -27t-135.5 27t-110.5 74t-74.5 109.5t-27.5 134.5zM197 336q0 -40 14.5 -75t40 -61t59 -41t72.5 -15t72.5 15t59 41t40 61
t14.5 75q0 39 -14.5 73.5t-40 60.5t-59.5 41t-72 15t-72 -15t-59.5 -41t-40 -60.5t-14.5 -73.5zM254 748v108h106v-108h-106zM406 748v108h106v-108h-106z" />
    <glyph glyph-name="Udieresis.alt" horiz-adv-x="702" 
d="M352 -10q-140 0 -216 71t-76 204v405h154v-392q0 -67 36.5 -104.5t101.5 -37.5q64 0 100 37.5t36 104.5v392h154v-405q0 -133 -75 -204t-215 -71zM222 748v108h106v-108h-106zM374 748v108h106v-108h-106z" />
    <glyph glyph-name="Ydieresis.alt" horiz-adv-x="661" 
d="M183 670l148 -287l148 287h181l-252 -457v-213h-154v213l-252 457h181zM202 748v108h106v-108h-106zM354 748v108h106v-108h-106z" />
    <glyph glyph-name="adieresis.alt" horiz-adv-x="637" 
d="M581 0h-149v62q-23 -33 -59.5 -52t-92.5 -19t-102.5 20.5t-79.5 56.5t-51.5 86t-18.5 109q0 60 18.5 110t52 87t80 57.5t101.5 20.5q56 0 92.5 -19.5t59.5 -53.5v63h149v-528zM432 282q-5 46 -39 77.5t-86 31.5q-29 0 -52 -10t-39.5 -27.5t-25 -41t-8.5 -49.5
q0 -25 9 -48t25 -40t39.5 -27t51.5 -10q26 0 47.5 8.5t38 22.5t26.5 34t13 42v37zM189 616v108h106v-108h-106zM341 616v108h106v-108h-106z" />
    <glyph glyph-name="edieresis.alt" horiz-adv-x="606" 
d="M181 231q8 -47 41 -76.5t85 -29.5q32 0 59 16t41 39h161q-10 -43 -33.5 -78t-58 -59.5t-78 -38t-94.5 -13.5q-60 0 -110.5 20.5t-87 57t-57.5 86.5t-21 109t20.5 109.5t57 87t86.5 57t110 20.5q56 0 103.5 -16.5t83.5 -47t58.5 -73t28.5 -93.5q2 -23 2.5 -40t-0.5 -37
h-397zM418 313q-7 40 -38 65.5t-76 25.5q-47 0 -77 -25t-41 -66h232zM174 616v108h106v-108h-106zM326 616v108h106v-108h-106z" />
    <glyph glyph-name="idieresis.alt" horiz-adv-x="261" 
d="M56 528h149v-528h-149v528zM1 616v108h106v-108h-106zM153 616v108h106v-108h-106z" />
    <glyph glyph-name="odieresis.alt" horiz-adv-x="610" 
d="M28 264q0 59 21 109.5t57.5 87t87 57t110.5 20.5t110.5 -20.5t88 -57.5t58.5 -87t21 -109t-21 -109t-58.5 -86.5t-88 -57t-110.5 -20.5t-110.5 20.5t-87 57t-57.5 86.5t-21 109zM182 263q0 -25 9 -48t25.5 -40t39.5 -27t50 -10t49.5 10t38 27t24.5 40t9 48
q0 26 -8.5 49.5t-24.5 41t-38.5 27.5t-49.5 10q-28 0 -50.5 -10t-39 -27.5t-25.5 -41t-9 -49.5zM176 616v108h106v-108h-106zM328 616v108h106v-108h-106z" />
    <glyph glyph-name="udieresis.alt" 
d="M556 0h-149v76q-29 -40 -71.5 -63t-96.5 -23q-42 0 -76 14.5t-57.5 40t-36.5 61t-13 77.5v345h149v-292q0 -46 25.5 -72t64.5 -26q25 0 45 10.5t35 28t23 40t9 47.5v264h149v-528zM177 616v108h106v-108h-106zM329 616v108h106v-108h-106z" />
    <glyph glyph-name="ydieresis.alt" horiz-adv-x="568" 
d="M137 -195l74 201l-201 522h158l114 -321l118 321h157l-277 -723h-143zM155 616v108h106v-108h-106zM307 616v108h106v-108h-106z" />
    <glyph glyph-name="Wdieresis.alt" horiz-adv-x="1015" 
d="M174 670l130 -449l129 449h149l129 -449l131 449h165l-199 -670h-168l-133 442l-132 -442h-168l-199 670h166zM379 768v108h106v-108h-106zM531 768v108h106v-108h-106z" />
    <glyph glyph-name="wdieresis.alt" horiz-adv-x="853" 
d="M184 0l-174 528h161l95 -326l93 326h135l93 -326l96 326h160l-174 -528h-143l-99 323l-100 -323h-143zM298 616v108h106v-108h-106zM450 616v108h106v-108h-106z" />
    <glyph glyph-name="dotaccent.alt" horiz-adv-x="201" 
d="M35 598v135h131v-135h-131z" />
    <glyph glyph-name="Cdotaccent.alt" horiz-adv-x="752" 
d="M35 335q0 71 27.5 134t74.5 110t110.5 74t135.5 27q65 0 122 -20t101.5 -56t74.5 -86t41 -110h-171q-17 54 -62 86t-105 32q-39 0 -73 -15t-59.5 -41t-40 -60.5t-14.5 -73.5q0 -40 14.5 -75t40 -61t59.5 -41t73 -15q60 0 105 32t62 86h171q-11 -60 -41 -110t-74.5 -86
t-101.5 -56t-122 -20q-72 0 -135.5 27t-110.5 74t-74.5 110t-27.5 134zM312 730v135h131v-135h-131z" />
    <glyph glyph-name="cdotaccent.alt" horiz-adv-x="603" 
d="M29 264q0 59 21 109.5t58 87t87.5 57t110.5 20.5q54 0 100.5 -16.5t82 -46.5t58.5 -71.5t29 -91.5h-157q-11 35 -40.5 57.5t-71.5 22.5q-28 0 -50.5 -10.5t-39 -28t-25.5 -41t-9 -49.5q0 -25 9 -48.5t25.5 -40.5t39 -27.5t50.5 -10.5q42 0 71 22t41 55h157
q-7 -49 -30 -90t-58.5 -70t-81.5 -45.5t-100 -16.5q-60 0 -111 20.5t-87.5 57t-57.5 86.5t-21 109zM236 598v135h131v-135h-131z" />
    <glyph glyph-name="Edotaccent.alt" horiz-adv-x="604" 
d="M70 670h492v-137h-338v-133h279v-132h-279v-131h338v-137h-492v670zM237 726v135h131v-135h-131z" />
    <glyph glyph-name="edotaccent.alt" horiz-adv-x="606" 
d="M181 231q8 -47 41 -76.5t85 -29.5q32 0 59 16t41 39h161q-10 -43 -33.5 -78t-58 -59.5t-78 -38t-94.5 -13.5q-60 0 -110.5 20.5t-87 57t-57.5 86.5t-21 109t20.5 109.5t57 87t86.5 57t110 20.5q56 0 103.5 -16.5t83.5 -47t58.5 -73t28.5 -93.5q2 -23 2.5 -40t-0.5 -37
h-397zM418 313q-7 40 -38 65.5t-76 25.5q-47 0 -77 -25t-41 -66h232zM238 598v135h131v-135h-131z" />
    <glyph glyph-name="Gdotaccent.alt" horiz-adv-x="762" 
d="M354 -10q-70 0 -128.5 25t-101 70t-66 108.5t-23.5 141.5q0 71 26 134t71.5 110t108.5 74t137 27q61 0 113.5 -15.5t93.5 -45t70.5 -71t43.5 -94.5h-185q-17 37 -54 57t-85 20q-40 0 -73 -14.5t-56.5 -40.5t-36 -61t-12.5 -76q0 -94 53 -147t147 -53q53 0 92.5 18
t59.5 51v54h-151v111h305v-373h-154v63q-35 -35 -84 -54t-111 -19zM311 730v135h131v-135h-131z" />
    <glyph glyph-name="gdotaccent.alt" horiz-adv-x="637" 
d="M581 33q0 -121 -68 -183t-201 -62q-63 0 -108.5 13.5t-75.5 38t-45.5 58t-18.5 74.5h149q7 -32 34.5 -47.5t66.5 -15.5q118 0 118 124v49q-23 -32 -59.5 -50t-92.5 -18t-102.5 19.5t-79.5 54.5t-51.5 83t-18.5 104q0 57 18.5 105t52 83t80 55t101.5 20q56 0 92.5 -18.5
t59.5 -51.5v60h149v-495zM182 271q0 -25 9 -47t25 -39t39.5 -27t51.5 -10q52 0 86 31.5t39 82.5v26q-6 51 -40.5 80t-84.5 29q-29 0 -52 -10t-39.5 -27t-25 -40t-8.5 -49zM253 598v135h131v-135h-131z" />
    <glyph glyph-name="Idotaccent.alt" horiz-adv-x="294" 
d="M70 670h154v-670h-154v670zM82 730v135h131v-135h-131z" />
    <glyph glyph-name="Zdotaccent.alt" horiz-adv-x="594" 
d="M233 134h319v-134h-510v134l320 402h-320v134h510v-134zM232 726v135h131v-135h-131z" />
    <glyph glyph-name="zdotaccent.alt" horiz-adv-x="490" 
d="M44 402v126h405v-126l-232 -276h240v-126h-424v126l236 276h-225zM180 598v135h131v-135h-131z" />
    <glyph glyph-name="exclamdown.alt" horiz-adv-x="273" 
d="M63 477h147v-129h-147v129zM69 279h135l13 -472h-161z" />
    <glyph glyph-name="questiondown.alt" horiz-adv-x="546" 
d="M353.012 163.02l-84.9951 -39.998q-43.9971 -20.998 -60.4961 -42.4971t-16.499 -54.4971q0 -80.9951 81.9951 -80.9951q35.998 0 57.4961 21.999q21.499 21.999 26.499 60.9961h153.99q-10.999 -228.986 -243.985 -228.986q-111.993 0 -171.989 52.4971
t-59.9961 152.491q0 78.9951 50.4971 138.491t158.49 108.493l108.993 49.9971v-137.991zM353.012 479v-134.992h-134.992v134.992h134.992z" />
    </font>
</defs>
</svg>
